# Blender 3.3.2 Release Candidate
# www.blender.org
mtllib 10_Santim.mtl
o 10_Santim
v -0.000975 -0.000000 -0.027998
v -0.000975 -0.002744 -0.027863
v -0.000975 -0.005462 -0.027460
v -0.000975 -0.008127 -0.026792
v -0.000975 -0.010714 -0.025866
v -0.000975 -0.013198 -0.024692
v -0.000975 -0.015555 -0.023279
v -0.000975 -0.017761 -0.021642
v -0.000975 -0.019797 -0.019797
v -0.000975 -0.021642 -0.017761
v -0.000975 -0.023279 -0.015555
v -0.000975 -0.024692 -0.013198
v -0.000975 -0.025866 -0.010714
v -0.000975 -0.026792 -0.008127
v -0.000975 -0.027460 -0.005462
v -0.000975 -0.027863 -0.002744
v -0.000975 -0.027998 -0.000000
v -0.000975 -0.027863 0.002744
v -0.000975 -0.027460 0.005462
v -0.000975 -0.026792 0.008127
v -0.000975 -0.025866 0.010714
v -0.000975 -0.024692 0.013198
v -0.000975 -0.023279 0.015555
v -0.000975 -0.021642 0.017761
v -0.000975 -0.019797 0.019797
v -0.000975 -0.017761 0.021642
v -0.000975 -0.015555 0.023279
v -0.000975 -0.013198 0.024692
v -0.000975 -0.010714 0.025866
v -0.000975 -0.008127 0.026792
v -0.000975 -0.005462 0.027460
v -0.000975 -0.002744 0.027863
v -0.000975 -0.000000 0.027998
v -0.000975 0.002744 0.027863
v -0.000975 0.005462 0.027460
v -0.000975 0.008127 0.026792
v -0.000975 0.010714 0.025866
v -0.000975 0.013198 0.024692
v -0.000975 0.015555 0.023279
v -0.000975 0.017761 0.021642
v -0.000975 0.019797 0.019797
v -0.000975 0.021642 0.017761
v -0.000975 0.023279 0.015555
v -0.000975 0.024692 0.013198
v -0.000975 0.025866 0.010714
v -0.000975 0.026792 0.008127
v -0.000975 0.027460 0.005462
v -0.000975 0.027863 0.002744
v -0.000975 0.027998 -0.000000
v -0.000975 0.027863 -0.002744
v -0.000975 0.027460 -0.005462
v -0.000975 0.026792 -0.008127
v -0.000975 0.025866 -0.010714
v -0.000975 0.024692 -0.013198
v -0.000975 0.023279 -0.015555
v -0.000975 0.021642 -0.017761
v -0.000975 0.019797 -0.019797
v -0.000975 0.017761 -0.021642
v -0.000975 0.015555 -0.023279
v -0.000975 0.013198 -0.024692
v -0.000975 0.010714 -0.025866
v -0.000975 0.008127 -0.026792
v -0.000975 0.005462 -0.027460
v -0.000975 0.002744 -0.027863
v 0.001025 -0.002744 -0.027863
v 0.001025 0.000000 -0.027998
v 0.001025 -0.005462 -0.027460
v 0.001025 -0.008127 -0.026792
v 0.001025 -0.010714 -0.025866
v 0.001025 -0.013198 -0.024692
v 0.001025 -0.015555 -0.023279
v 0.001025 -0.017761 -0.021642
v 0.001025 -0.019797 -0.019797
v 0.001025 -0.021642 -0.017761
v 0.001025 -0.023279 -0.015555
v 0.001025 -0.024692 -0.013198
v 0.001025 -0.025866 -0.010714
v 0.001025 -0.026792 -0.008127
v 0.001025 -0.027460 -0.005462
v 0.001025 -0.027863 -0.002744
v 0.001025 -0.027998 0.000000
v 0.001025 -0.027863 0.002744
v 0.001025 -0.027460 0.005462
v 0.001025 -0.026792 0.008127
v 0.001025 -0.025866 0.010714
v 0.001025 -0.024692 0.013198
v 0.001025 -0.023279 0.015555
v 0.001025 -0.021642 0.017761
v 0.001025 -0.019797 0.019797
v 0.001025 -0.017761 0.021642
v 0.001025 -0.015555 0.023279
v 0.001025 -0.013198 0.024692
v 0.001025 -0.010714 0.025866
v 0.001025 -0.008127 0.026792
v 0.001025 -0.005462 0.027460
v 0.001025 -0.002744 0.027863
v 0.001025 0.000000 0.027998
v 0.001025 0.002744 0.027863
v 0.001025 0.005462 0.027460
v 0.001025 0.008127 0.026792
v 0.001025 0.010714 0.025866
v 0.001025 0.013198 0.024692
v 0.001025 0.015555 0.023279
v 0.001025 0.017761 0.021642
v 0.001025 0.019797 0.019797
v 0.001025 0.021642 0.017761
v 0.001025 0.023279 0.015555
v 0.001025 0.024692 0.013198
v 0.001025 0.025866 0.010714
v 0.001025 0.026792 0.008127
v 0.001025 0.027460 0.005462
v 0.001025 0.027863 0.002744
v 0.001025 0.027998 0.000000
v 0.001025 0.027863 -0.002744
v 0.001025 0.027460 -0.005462
v 0.001025 0.026792 -0.008127
v 0.001025 0.025866 -0.010714
v 0.001025 0.024692 -0.013198
v 0.001025 0.023279 -0.015555
v 0.001025 0.021642 -0.017761
v 0.001025 0.019797 -0.019797
v 0.001025 0.017761 -0.021642
v 0.001025 0.015555 -0.023279
v 0.001025 0.013198 -0.024692
v 0.001025 0.010714 -0.025866
v 0.001025 0.008127 -0.026792
v 0.001025 0.005462 -0.027460
v 0.001025 0.002744 -0.027863
v 0.000275 0.000000 -0.027438
v 0.000275 0.000000 0.000000
v 0.000275 -0.002689 -0.027306
v 0.000275 -0.005353 -0.026910
v 0.000275 -0.007965 -0.026256
v 0.000275 -0.010500 -0.025349
v 0.000275 -0.012934 -0.024198
v 0.000275 -0.015244 -0.022814
v 0.000275 -0.017406 -0.021210
v 0.000275 -0.019401 -0.019401
v 0.000275 -0.021210 -0.017406
v 0.000275 -0.022814 -0.015244
v 0.000275 -0.024198 -0.012934
v 0.000275 -0.025349 -0.010500
v 0.000275 -0.026256 -0.007965
v 0.000275 -0.026910 -0.005353
v 0.000275 -0.027306 -0.002689
v 0.000275 -0.027438 0.000000
v 0.000275 -0.027306 0.002689
v 0.000275 -0.026910 0.005353
v 0.000275 -0.026256 0.007965
v 0.000275 -0.025349 0.010500
v 0.000275 -0.024198 0.012934
v 0.000275 -0.022814 0.015244
v 0.000275 -0.021210 0.017406
v 0.000275 -0.019401 0.019401
v 0.000275 -0.017406 0.021210
v 0.000275 -0.015244 0.022814
v 0.000275 -0.012934 0.024198
v 0.000275 -0.010500 0.025349
v 0.000275 -0.007965 0.026256
v 0.000275 -0.005353 0.026910
v 0.000275 -0.002689 0.027306
v 0.000275 0.000000 0.027438
v 0.000275 0.002689 0.027306
v 0.000275 0.005353 0.026910
v 0.000275 0.007965 0.026256
v 0.000275 0.010500 0.025349
v 0.000275 0.012934 0.024198
v 0.000275 0.015244 0.022814
v 0.000275 0.017406 0.021210
v 0.000275 0.019401 0.019401
v 0.000275 0.021210 0.017406
v 0.000275 0.022814 0.015244
v 0.000275 0.024198 0.012934
v 0.000275 0.025349 0.010500
v 0.000275 0.026256 0.007965
v 0.000275 0.026910 0.005353
v 0.000275 0.027306 0.002689
v 0.000275 0.027438 0.000000
v 0.000275 0.027306 -0.002689
v 0.000275 0.026910 -0.005353
v 0.000275 0.026256 -0.007965
v 0.000275 0.025349 -0.010500
v 0.000275 0.024198 -0.012934
v 0.000275 0.022814 -0.015244
v 0.000275 0.021210 -0.017406
v 0.000275 0.019401 -0.019401
v 0.000275 0.017406 -0.021210
v 0.000275 0.015244 -0.022814
v 0.000275 0.012934 -0.024198
v 0.000275 0.010500 -0.025349
v 0.000275 0.007965 -0.026256
v 0.000275 0.005353 -0.026910
v 0.000275 0.002689 -0.027306
v -0.000225 -0.002689 -0.027306
v -0.000225 0.000000 -0.000000
v -0.000225 -0.000000 -0.027438
v -0.000225 -0.005353 -0.026910
v -0.000225 -0.007965 -0.026256
v -0.000225 -0.010500 -0.025349
v -0.000225 -0.012934 -0.024198
v -0.000225 -0.015244 -0.022814
v -0.000225 -0.017406 -0.021210
v -0.000225 -0.019401 -0.019401
v -0.000225 -0.021210 -0.017406
v -0.000225 -0.022814 -0.015244
v -0.000225 -0.024198 -0.012934
v -0.000225 -0.025349 -0.010500
v -0.000225 -0.026256 -0.007965
v -0.000225 -0.026910 -0.005353
v -0.000225 -0.027306 -0.002689
v -0.000225 -0.027438 -0.000000
v -0.000225 -0.027306 0.002689
v -0.000225 -0.026910 0.005353
v -0.000225 -0.026256 0.007965
v -0.000225 -0.025349 0.010500
v -0.000225 -0.024198 0.012934
v -0.000225 -0.022814 0.015244
v -0.000225 -0.021210 0.017406
v -0.000225 -0.019401 0.019401
v -0.000225 -0.017406 0.021210
v -0.000225 -0.015244 0.022814
v -0.000225 -0.012934 0.024198
v -0.000225 -0.010500 0.025349
v -0.000225 -0.007965 0.026256
v -0.000225 -0.005353 0.026910
v -0.000225 -0.002689 0.027306
v -0.000225 -0.000000 0.027438
v -0.000225 0.002689 0.027306
v -0.000225 0.005353 0.026910
v -0.000225 0.007965 0.026256
v -0.000225 0.010500 0.025349
v -0.000225 0.012934 0.024198
v -0.000225 0.015244 0.022814
v -0.000225 0.017406 0.021210
v -0.000225 0.019401 0.019401
v -0.000225 0.021210 0.017406
v -0.000225 0.022814 0.015244
v -0.000225 0.024198 0.012934
v -0.000225 0.025349 0.010500
v -0.000225 0.026256 0.007965
v -0.000225 0.026910 0.005353
v -0.000225 0.027306 0.002689
v -0.000225 0.027438 -0.000000
v -0.000225 0.027306 -0.002689
v -0.000225 0.026910 -0.005353
v -0.000225 0.026256 -0.007965
v -0.000225 0.025349 -0.010500
v -0.000225 0.024198 -0.012934
v -0.000225 0.022814 -0.015244
v -0.000225 0.021210 -0.017406
v -0.000225 0.019401 -0.019401
v -0.000225 0.017406 -0.021210
v -0.000225 0.015244 -0.022814
v -0.000225 0.012934 -0.024198
v -0.000225 0.010500 -0.025349
v -0.000225 0.007965 -0.026256
v -0.000225 0.005353 -0.026910
v -0.000225 0.002689 -0.027306
v -0.000775 -0.002941 -0.029856
v -0.000975 -0.002921 -0.029656
v -0.000916 -0.002935 -0.029797
v -0.000975 -0.000000 -0.029800
v -0.000775 -0.000000 -0.030000
v -0.000916 -0.000000 -0.029941
v -0.000775 -0.005853 -0.029424
v -0.000975 -0.005814 -0.029227
v -0.000916 -0.005841 -0.029366
v -0.000775 -0.008709 -0.028708
v -0.000975 -0.008650 -0.028517
v -0.000916 -0.008691 -0.028652
v -0.000775 -0.011481 -0.027716
v -0.000975 -0.011404 -0.027531
v -0.000916 -0.011458 -0.027662
v -0.000775 -0.014142 -0.026458
v -0.000975 -0.014048 -0.026281
v -0.000916 -0.014114 -0.026406
v -0.000775 -0.016667 -0.024944
v -0.000975 -0.016556 -0.024778
v -0.000916 -0.016634 -0.024895
v -0.000775 -0.019032 -0.023190
v -0.000975 -0.018905 -0.023036
v -0.000916 -0.018995 -0.023145
v -0.000775 -0.021213 -0.021213
v -0.000975 -0.021072 -0.021072
v -0.000916 -0.021172 -0.021172
v -0.000775 -0.023190 -0.019032
v -0.000975 -0.023036 -0.018905
v -0.000916 -0.023145 -0.018995
v -0.000775 -0.024944 -0.016667
v -0.000975 -0.024778 -0.016556
v -0.000916 -0.024895 -0.016634
v -0.000775 -0.026458 -0.014142
v -0.000975 -0.026281 -0.014048
v -0.000916 -0.026406 -0.014114
v -0.000775 -0.027716 -0.011481
v -0.000975 -0.027531 -0.011404
v -0.000916 -0.027662 -0.011458
v -0.000775 -0.028708 -0.008709
v -0.000975 -0.028517 -0.008650
v -0.000916 -0.028652 -0.008691
v -0.000775 -0.029424 -0.005853
v -0.000975 -0.029227 -0.005814
v -0.000916 -0.029366 -0.005841
v -0.000775 -0.029856 -0.002941
v -0.000975 -0.029656 -0.002921
v -0.000916 -0.029797 -0.002935
v -0.000775 -0.030000 -0.000000
v -0.000975 -0.029800 -0.000000
v -0.000916 -0.029941 -0.000000
v -0.000775 -0.029856 0.002941
v -0.000975 -0.029656 0.002921
v -0.000916 -0.029797 0.002935
v -0.000775 -0.029424 0.005853
v -0.000975 -0.029227 0.005814
v -0.000916 -0.029366 0.005841
v -0.000775 -0.028708 0.008709
v -0.000975 -0.028517 0.008650
v -0.000916 -0.028652 0.008691
v -0.000775 -0.027716 0.011481
v -0.000975 -0.027531 0.011404
v -0.000916 -0.027662 0.011458
v -0.000775 -0.026458 0.014142
v -0.000975 -0.026281 0.014048
v -0.000916 -0.026406 0.014114
v -0.000775 -0.024944 0.016667
v -0.000975 -0.024778 0.016556
v -0.000916 -0.024895 0.016634
v -0.000775 -0.023190 0.019032
v -0.000975 -0.023036 0.018905
v -0.000916 -0.023145 0.018995
v -0.000775 -0.021213 0.021213
v -0.000975 -0.021072 0.021072
v -0.000916 -0.021172 0.021172
v -0.000775 -0.019032 0.023190
v -0.000975 -0.018905 0.023036
v -0.000916 -0.018995 0.023145
v -0.000775 -0.016667 0.024944
v -0.000975 -0.016556 0.024778
v -0.000916 -0.016634 0.024895
v -0.000775 -0.014142 0.026458
v -0.000975 -0.014048 0.026281
v -0.000916 -0.014114 0.026406
v -0.000775 -0.011481 0.027716
v -0.000975 -0.011404 0.027531
v -0.000916 -0.011458 0.027662
v -0.000775 -0.008709 0.028708
v -0.000975 -0.008650 0.028517
v -0.000916 -0.008691 0.028652
v -0.000775 -0.005853 0.029424
v -0.000975 -0.005814 0.029227
v -0.000916 -0.005841 0.029366
v -0.000775 -0.002941 0.029856
v -0.000975 -0.002921 0.029656
v -0.000916 -0.002935 0.029797
v -0.000775 -0.000000 0.030000
v -0.000975 -0.000000 0.029800
v -0.000916 -0.000000 0.029941
v -0.000775 0.002941 0.029856
v -0.000975 0.002921 0.029656
v -0.000916 0.002935 0.029797
v -0.000775 0.005853 0.029424
v -0.000975 0.005814 0.029227
v -0.000916 0.005841 0.029366
v -0.000775 0.008709 0.028708
v -0.000975 0.008650 0.028517
v -0.000916 0.008691 0.028652
v -0.000775 0.011481 0.027716
v -0.000975 0.011404 0.027531
v -0.000916 0.011458 0.027662
v -0.000775 0.014142 0.026458
v -0.000975 0.014048 0.026281
v -0.000916 0.014114 0.026406
v -0.000775 0.016667 0.024944
v -0.000975 0.016556 0.024778
v -0.000916 0.016634 0.024895
v -0.000775 0.019032 0.023190
v -0.000975 0.018905 0.023036
v -0.000916 0.018995 0.023145
v -0.000775 0.021213 0.021213
v -0.000975 0.021072 0.021072
v -0.000916 0.021172 0.021172
v -0.000775 0.023190 0.019032
v -0.000975 0.023036 0.018905
v -0.000916 0.023145 0.018995
v -0.000775 0.024944 0.016667
v -0.000975 0.024778 0.016556
v -0.000916 0.024895 0.016634
v -0.000775 0.026458 0.014142
v -0.000975 0.026281 0.014048
v -0.000916 0.026406 0.014114
v -0.000775 0.027716 0.011481
v -0.000975 0.027531 0.011404
v -0.000916 0.027662 0.011458
v -0.000775 0.028708 0.008709
v -0.000975 0.028517 0.008650
v -0.000916 0.028652 0.008691
v -0.000775 0.029424 0.005853
v -0.000975 0.029227 0.005814
v -0.000916 0.029366 0.005841
v -0.000775 0.029856 0.002941
v -0.000975 0.029656 0.002921
v -0.000916 0.029797 0.002935
v -0.000775 0.030000 -0.000000
v -0.000975 0.029800 -0.000000
v -0.000916 0.029941 -0.000000
v -0.000775 0.029856 -0.002941
v -0.000975 0.029656 -0.002921
v -0.000916 0.029797 -0.002935
v -0.000775 0.029424 -0.005853
v -0.000975 0.029227 -0.005814
v -0.000916 0.029366 -0.005841
v -0.000775 0.028708 -0.008709
v -0.000975 0.028517 -0.008650
v -0.000916 0.028652 -0.008691
v -0.000775 0.027716 -0.011481
v -0.000975 0.027531 -0.011404
v -0.000916 0.027662 -0.011458
v -0.000775 0.026458 -0.014142
v -0.000975 0.026281 -0.014048
v -0.000916 0.026406 -0.014114
v -0.000775 0.024944 -0.016667
v -0.000975 0.024778 -0.016556
v -0.000916 0.024895 -0.016634
v -0.000775 0.023190 -0.019032
v -0.000975 0.023036 -0.018905
v -0.000916 0.023145 -0.018995
v -0.000775 0.021213 -0.021213
v -0.000975 0.021072 -0.021072
v -0.000916 0.021172 -0.021172
v -0.000775 0.019032 -0.023190
v -0.000975 0.018905 -0.023036
v -0.000916 0.018995 -0.023145
v -0.000775 0.016667 -0.024944
v -0.000975 0.016556 -0.024778
v -0.000916 0.016634 -0.024895
v -0.000775 0.014142 -0.026458
v -0.000975 0.014048 -0.026281
v -0.000916 0.014114 -0.026406
v -0.000775 0.011481 -0.027716
v -0.000975 0.011404 -0.027531
v -0.000916 0.011458 -0.027662
v -0.000775 0.008709 -0.028708
v -0.000975 0.008650 -0.028517
v -0.000916 0.008691 -0.028652
v -0.000775 0.005853 -0.029424
v -0.000975 0.005814 -0.029227
v -0.000916 0.005841 -0.029366
v -0.000775 0.002941 -0.029856
v -0.000975 0.002921 -0.029656
v -0.000916 0.002935 -0.029797
v 0.001025 -0.002921 -0.029656
v 0.000825 -0.002941 -0.029856
v 0.000966 -0.002935 -0.029797
v 0.000825 0.000000 -0.030000
v 0.001025 0.000000 -0.029800
v 0.000966 0.000000 -0.029941
v 0.001025 -0.005814 -0.029227
v 0.000825 -0.005853 -0.029424
v 0.000966 -0.005841 -0.029366
v 0.001025 -0.008650 -0.028517
v 0.000825 -0.008709 -0.028708
v 0.000966 -0.008691 -0.028652
v 0.001025 -0.011404 -0.027531
v 0.000825 -0.011481 -0.027716
v 0.000966 -0.011458 -0.027662
v 0.001025 -0.014048 -0.026281
v 0.000825 -0.014142 -0.026458
v 0.000966 -0.014114 -0.026406
v 0.001025 -0.016556 -0.024778
v 0.000825 -0.016667 -0.024944
v 0.000966 -0.016634 -0.024895
v 0.001025 -0.018905 -0.023036
v 0.000825 -0.019032 -0.023190
v 0.000966 -0.018995 -0.023145
v 0.001025 -0.021072 -0.021072
v 0.000825 -0.021213 -0.021213
v 0.000966 -0.021172 -0.021172
v 0.001025 -0.023036 -0.018905
v 0.000825 -0.023190 -0.019032
v 0.000966 -0.023145 -0.018995
v 0.001025 -0.024778 -0.016556
v 0.000825 -0.024944 -0.016667
v 0.000966 -0.024895 -0.016634
v 0.001025 -0.026281 -0.014048
v 0.000825 -0.026458 -0.014142
v 0.000966 -0.026406 -0.014114
v 0.001025 -0.027531 -0.011404
v 0.000825 -0.027716 -0.011481
v 0.000966 -0.027662 -0.011458
v 0.001025 -0.028517 -0.008650
v 0.000825 -0.028708 -0.008709
v 0.000966 -0.028652 -0.008691
v 0.001025 -0.029227 -0.005814
v 0.000825 -0.029424 -0.005853
v 0.000966 -0.029366 -0.005841
v 0.001025 -0.029656 -0.002921
v 0.000825 -0.029856 -0.002941
v 0.000966 -0.029797 -0.002935
v 0.001025 -0.029800 0.000000
v 0.000825 -0.030000 0.000000
v 0.000966 -0.029941 0.000000
v 0.001025 -0.029656 0.002921
v 0.000825 -0.029856 0.002941
v 0.000966 -0.029797 0.002935
v 0.001025 -0.029227 0.005814
v 0.000825 -0.029424 0.005853
v 0.000966 -0.029366 0.005841
v 0.001025 -0.028517 0.008650
v 0.000825 -0.028708 0.008709
v 0.000966 -0.028652 0.008691
v 0.001025 -0.027531 0.011404
v 0.000825 -0.027716 0.011481
v 0.000966 -0.027662 0.011458
v 0.001025 -0.026281 0.014048
v 0.000825 -0.026458 0.014142
v 0.000966 -0.026406 0.014114
v 0.001025 -0.024778 0.016556
v 0.000825 -0.024944 0.016667
v 0.000966 -0.024895 0.016634
v 0.001025 -0.023036 0.018905
v 0.000825 -0.023190 0.019032
v 0.000966 -0.023145 0.018995
v 0.001025 -0.021072 0.021072
v 0.000825 -0.021213 0.021213
v 0.000966 -0.021172 0.021172
v 0.001025 -0.018905 0.023036
v 0.000825 -0.019032 0.023190
v 0.000966 -0.018995 0.023145
v 0.001025 -0.016556 0.024778
v 0.000825 -0.016667 0.024944
v 0.000966 -0.016634 0.024895
v 0.001025 -0.014048 0.026281
v 0.000825 -0.014142 0.026458
v 0.000966 -0.014114 0.026406
v 0.001025 -0.011404 0.027531
v 0.000825 -0.011481 0.027716
v 0.000966 -0.011458 0.027662
v 0.001025 -0.008650 0.028517
v 0.000825 -0.008709 0.028708
v 0.000966 -0.008691 0.028652
v 0.001025 -0.005814 0.029227
v 0.000825 -0.005853 0.029424
v 0.000966 -0.005841 0.029366
v 0.001025 -0.002921 0.029656
v 0.000825 -0.002941 0.029856
v 0.000966 -0.002935 0.029797
v 0.001025 0.000000 0.029800
v 0.000825 0.000000 0.030000
v 0.000966 0.000000 0.029941
v 0.001025 0.002921 0.029656
v 0.000825 0.002941 0.029856
v 0.000966 0.002935 0.029797
v 0.001025 0.005814 0.029227
v 0.000825 0.005853 0.029424
v 0.000966 0.005841 0.029366
v 0.001025 0.008650 0.028517
v 0.000825 0.008709 0.028708
v 0.000966 0.008691 0.028652
v 0.001025 0.011404 0.027531
v 0.000825 0.011481 0.027716
v 0.000966 0.011458 0.027662
v 0.001025 0.014048 0.026281
v 0.000825 0.014142 0.026458
v 0.000966 0.014114 0.026406
v 0.001025 0.016556 0.024778
v 0.000825 0.016667 0.024944
v 0.000966 0.016634 0.024895
v 0.001025 0.018905 0.023036
v 0.000825 0.019032 0.023190
v 0.000966 0.018995 0.023145
v 0.001025 0.021072 0.021072
v 0.000825 0.021213 0.021213
v 0.000966 0.021172 0.021172
v 0.001025 0.023036 0.018905
v 0.000825 0.023190 0.019032
v 0.000966 0.023145 0.018995
v 0.001025 0.024778 0.016556
v 0.000825 0.024944 0.016667
v 0.000966 0.024895 0.016634
v 0.001025 0.026281 0.014048
v 0.000825 0.026458 0.014142
v 0.000966 0.026406 0.014114
v 0.001025 0.027531 0.011404
v 0.000825 0.027716 0.011481
v 0.000966 0.027662 0.011458
v 0.001025 0.028517 0.008650
v 0.000825 0.028708 0.008709
v 0.000966 0.028652 0.008691
v 0.001025 0.029227 0.005814
v 0.000825 0.029424 0.005853
v 0.000966 0.029366 0.005841
v 0.001025 0.029656 0.002921
v 0.000825 0.029856 0.002941
v 0.000966 0.029797 0.002935
v 0.001025 0.029800 0.000000
v 0.000825 0.030000 0.000000
v 0.000966 0.029941 0.000000
v 0.001025 0.029656 -0.002921
v 0.000825 0.029856 -0.002941
v 0.000966 0.029797 -0.002935
v 0.001025 0.029227 -0.005814
v 0.000825 0.029424 -0.005853
v 0.000966 0.029366 -0.005841
v 0.001025 0.028517 -0.008650
v 0.000825 0.028708 -0.008709
v 0.000966 0.028652 -0.008691
v 0.001025 0.027531 -0.011404
v 0.000825 0.027716 -0.011481
v 0.000966 0.027662 -0.011458
v 0.001025 0.026281 -0.014048
v 0.000825 0.026458 -0.014142
v 0.000966 0.026406 -0.014114
v 0.001025 0.024778 -0.016556
v 0.000825 0.024944 -0.016667
v 0.000966 0.024895 -0.016634
v 0.001025 0.023036 -0.018905
v 0.000825 0.023190 -0.019032
v 0.000966 0.023145 -0.018995
v 0.001025 0.021072 -0.021072
v 0.000825 0.021213 -0.021213
v 0.000966 0.021172 -0.021172
v 0.001025 0.018905 -0.023036
v 0.000825 0.019032 -0.023190
v 0.000966 0.018995 -0.023145
v 0.001025 0.016556 -0.024778
v 0.000825 0.016667 -0.024944
v 0.000966 0.016634 -0.024895
v 0.001025 0.014048 -0.026281
v 0.000825 0.014142 -0.026458
v 0.000966 0.014114 -0.026406
v 0.001025 0.011404 -0.027531
v 0.000825 0.011481 -0.027716
v 0.000966 0.011458 -0.027662
v 0.001025 0.008650 -0.028517
v 0.000825 0.008709 -0.028708
v 0.000966 0.008691 -0.028652
v 0.001025 0.005814 -0.029227
v 0.000825 0.005853 -0.029424
v 0.000966 0.005841 -0.029366
v 0.001025 0.002921 -0.029656
v 0.000825 0.002941 -0.029856
v 0.000966 0.002935 -0.029797
vn -0.8995 0.4285 -0.0852
vn -0.8995 0.4180 -0.1268
vn -0.8883 0.4395 -0.1333
vn -0.8883 0.4504 -0.0896
vn -0.8995 -0.4036 -0.1672
vn -0.8995 -0.4180 -0.1268
vn -0.8883 -0.4395 -0.1333
vn -0.8883 -0.4243 -0.1757
vn -0.8995 0.4348 -0.0428
vn -0.8883 0.4570 -0.0450
vn -0.8995 -0.3853 -0.2059
vn -0.8883 -0.4050 -0.2165
vn -0.8995 0.4369 -0.0000
vn -0.8883 0.4592 -0.0000
vn -0.8995 -0.3632 -0.2427
vn -0.8883 -0.3818 -0.2551
vn -0.8995 0.4348 0.0428
vn -0.8883 0.4570 0.0450
vn -0.8995 -0.3377 -0.2771
vn -0.8883 -0.3550 -0.2913
vn -0.8995 0.4285 0.0852
vn -0.8883 0.4504 0.0896
vn -0.8995 -0.3089 -0.3089
vn -0.8883 -0.3247 -0.3247
vn -0.8995 0.4180 0.1268
vn -0.8883 0.4395 0.1333
vn -0.8995 -0.2771 -0.3377
vn -0.8883 -0.2913 -0.3550
vn -0.8995 0.4036 0.1672
vn -0.8883 0.4243 0.1757
vn -0.8995 -0.2427 -0.3632
vn -0.8883 -0.2551 -0.3818
vn -0.8995 0.3853 0.2059
vn -0.8883 0.4050 0.2165
vn -0.8995 -0.2059 -0.3853
vn -0.8883 -0.2165 -0.4050
vn -0.8995 -0.0428 0.4348
vn -0.8995 -0.0000 0.4369
vn -0.8883 -0.0000 0.4592
vn -0.8883 -0.0450 0.4570
vn -0.8995 0.3632 0.2427
vn -0.8883 0.3818 0.2551
vn -0.8995 -0.1672 -0.4036
vn -0.8883 -0.1757 -0.4243
vn -0.8995 -0.0852 0.4285
vn -0.8883 -0.0896 0.4504
vn -0.8995 0.3377 0.2771
vn -0.8883 0.3550 0.2913
vn -0.8995 -0.1268 -0.4180
vn -0.8883 -0.1333 -0.4395
vn -0.8995 -0.1268 0.4180
vn -0.8883 -0.1333 0.4395
vn -0.8995 0.3089 0.3089
vn -0.8883 0.3247 0.3247
vn -0.8995 -0.0852 -0.4285
vn -0.8883 -0.0896 -0.4504
vn -0.8995 -0.1672 0.4036
vn -0.8883 -0.1757 0.4243
vn -0.8995 0.2771 0.3377
vn -0.8883 0.2913 0.3550
vn -0.8995 -0.0428 -0.4348
vn -0.8883 -0.0450 -0.4570
vn -0.8995 -0.2059 0.3853
vn -0.8883 -0.2165 0.4050
vn -0.8995 0.2427 0.3632
vn -0.8883 0.2551 0.3818
vn -0.8995 -0.0000 -0.4369
vn -0.8883 -0.0000 -0.4592
vn -0.8995 -0.2427 0.3632
vn -0.8883 -0.2551 0.3818
vn -0.8995 0.2059 0.3853
vn -0.8883 0.2165 0.4050
vn -0.8995 0.0428 -0.4348
vn -0.8883 0.0450 -0.4570
vn -0.8995 -0.2771 0.3377
vn -0.8883 -0.2913 0.3550
vn -0.8995 0.1672 0.4036
vn -0.8883 0.1757 0.4243
vn -0.8995 0.0852 -0.4285
vn -0.8883 0.0896 -0.4504
vn -0.8995 -0.3089 0.3089
vn -0.8883 -0.3247 0.3247
vn -0.8995 0.1268 0.4180
vn -0.8883 0.1333 0.4395
vn -0.8995 0.1268 -0.4180
vn -0.8883 0.1333 -0.4395
vn -0.8995 -0.3377 0.2771
vn -0.8883 -0.3550 0.2913
vn -0.8995 0.0852 0.4285
vn -0.8883 0.0896 0.4504
vn -0.8995 0.1672 -0.4036
vn -0.8883 0.1757 -0.4243
vn -0.8995 -0.3632 0.2427
vn -0.8883 -0.3818 0.2551
vn -0.8995 0.0428 0.4348
vn -0.8883 0.0450 0.4570
vn -0.8995 0.2059 -0.3853
vn -0.8883 0.2165 -0.4050
vn -0.8995 -0.3853 0.2059
vn -0.8883 -0.4050 0.2165
vn -0.8995 0.2427 -0.3632
vn -0.8883 0.2551 -0.3818
vn -0.8995 -0.4036 0.1672
vn -0.8883 -0.4243 0.1757
vn -0.8995 0.2771 -0.3377
vn -0.8883 0.2913 -0.3550
vn -0.8995 -0.4180 0.1268
vn -0.8883 -0.4395 0.1333
vn -0.8995 0.3089 -0.3089
vn -0.8883 0.3247 -0.3247
vn -0.8995 -0.4285 0.0852
vn -0.8883 -0.4504 0.0896
vn -0.8995 0.3377 -0.2771
vn -0.8883 0.3550 -0.2913
vn -0.8995 -0.4348 0.0428
vn -0.8883 -0.4570 0.0450
vn -0.8995 0.3632 -0.2427
vn -0.8883 0.3818 -0.2551
vn -0.8995 -0.4369 -0.0000
vn -0.8883 -0.4592 -0.0000
vn -0.8995 0.3853 -0.2059
vn -0.8883 0.4050 -0.2165
vn -0.8995 -0.4348 -0.0428
vn -0.8883 -0.4570 -0.0450
vn -0.8995 0.4036 -0.1672
vn -0.8883 0.4243 -0.1757
vn -0.8995 -0.4285 -0.0852
vn -0.8883 -0.4504 -0.0896
vn -0.9796 0.1999 -0.0197
vn -0.9796 0.1970 -0.0392
vn -0.9796 -0.1553 0.1274
vn -0.9796 -0.1420 0.1420
vn -0.9796 0.1922 -0.0583
vn -0.9796 -0.1274 0.1553
vn -0.9796 0.1856 -0.0769
vn -0.9796 -0.1116 0.1670
vn -0.9796 0.1771 -0.0947
vn -0.9796 -0.0947 0.1771
vn -0.9796 0.1670 -0.1116
vn -0.9796 -0.0769 0.1856
vn -0.9796 -0.0197 -0.1999
vn -0.9796 -0.0392 -0.1970
vn -0.9796 0.1553 -0.1274
vn -0.9796 -0.0583 0.1922
vn -0.9796 0.0197 -0.1999
vn -0.9796 -0.0000 -0.2009
vn -0.9796 0.1420 -0.1420
vn -0.9796 -0.0392 0.1970
vn -0.9796 -0.0583 -0.1922
vn -0.9796 -0.0769 -0.1856
vn -0.9796 0.1274 -0.1553
vn -0.9796 -0.0197 0.1999
vn -0.9796 -0.0947 -0.1771
vn -0.9796 0.1116 -0.1670
vn -0.9796 -0.0000 0.2009
vn -0.9796 -0.1116 -0.1670
vn -0.9796 0.0947 -0.1771
vn -0.9796 0.0197 0.1999
vn -0.9796 -0.1274 -0.1553
vn -0.9796 0.0769 -0.1856
vn -0.9796 0.0392 0.1970
vn -0.9796 -0.1420 -0.1420
vn -0.9796 0.0583 -0.1922
vn -0.9796 0.0583 0.1922
vn -0.9796 -0.1553 -0.1274
vn -0.9796 0.0392 -0.1970
vn -0.9796 0.0769 0.1856
vn -0.9796 -0.1670 -0.1116
vn -0.9796 0.0947 0.1771
vn -0.9796 -0.1771 -0.0947
vn 0.8995 -0.0000 0.4369
vn 0.8995 0.0428 0.4348
vn 0.9796 -0.0197 -0.1999
vn 0.9796 -0.0000 -0.2009
vn -0.9796 0.1116 0.1670
vn -0.9796 -0.1856 -0.0769
vn -0.9796 0.1274 0.1553
vn -0.9796 -0.1922 -0.0583
vn -0.9796 0.1420 0.1420
vn -0.9796 -0.1970 -0.0392
vn -0.9796 0.1553 0.1274
vn -0.9796 -0.1999 -0.0197
vn -0.9796 0.1670 0.1116
vn -0.9796 -0.2009 -0.0000
vn -0.9796 0.1771 0.0947
vn -0.9796 -0.1999 0.0197
vn -0.9796 0.1856 0.0769
vn -0.9796 -0.1970 0.0392
vn -0.9796 0.1922 0.0583
vn -0.9796 -0.1922 0.0583
vn -0.9796 0.1970 0.0392
vn -0.9796 -0.1856 0.0769
vn -0.9796 0.1999 0.0197
vn -0.9796 -0.1771 0.0947
vn -0.9796 0.2009 -0.0000
vn -0.9796 -0.1670 0.1116
vn 0.8995 0.4036 -0.1672
vn 0.8995 0.4180 -0.1268
vn 0.8883 0.4395 -0.1333
vn 0.8883 0.4243 -0.1757
vn 0.8995 -0.4285 -0.0852
vn 0.8995 -0.4180 -0.1268
vn 0.8883 -0.4395 -0.1333
vn 0.8883 -0.4504 -0.0896
vn 0.8995 0.4285 -0.0852
vn 0.8883 0.4504 -0.0896
vn 0.8995 -0.4036 -0.1672
vn 0.8883 -0.4243 -0.1757
vn 0.8995 0.4348 -0.0428
vn 0.8883 0.4570 -0.0450
vn 0.8995 -0.3853 -0.2059
vn 0.8883 -0.4050 -0.2165
vn 0.8995 0.4369 -0.0000
vn 0.8883 0.4592 -0.0000
vn 0.8995 -0.3632 -0.2427
vn 0.8883 -0.3818 -0.2551
vn 0.8995 0.4348 0.0428
vn 0.8883 0.4570 0.0450
vn 0.8995 -0.3377 -0.2771
vn 0.8883 -0.3550 -0.2913
vn 0.8995 0.4285 0.0852
vn 0.8883 0.4504 0.0896
vn 0.8995 -0.3089 -0.3089
vn 0.8883 -0.3247 -0.3247
vn 0.8995 0.4180 0.1268
vn 0.8883 0.4395 0.1333
vn 0.8995 -0.2771 -0.3377
vn 0.8883 -0.2913 -0.3550
vn 0.8995 0.4036 0.1672
vn 0.8883 0.4243 0.1757
vn 0.8995 -0.2427 -0.3632
vn 0.8883 -0.2551 -0.3818
vn 0.8995 0.3853 0.2059
vn 0.8883 0.4050 0.2165
vn 0.8995 -0.2059 -0.3853
vn 0.8883 -0.2165 -0.4050
vn 0.8995 -0.0428 0.4348
vn 0.8883 -0.0450 0.4570
vn 0.8883 -0.0000 0.4592
vn 0.8995 0.3632 0.2427
vn 0.8883 0.3818 0.2551
vn 0.8995 -0.1672 -0.4036
vn 0.8883 -0.1757 -0.4243
vn 0.8995 -0.0852 0.4285
vn 0.8883 -0.0896 0.4504
vn 0.8995 0.3377 0.2771
vn 0.8883 0.3550 0.2913
vn 0.8995 -0.1268 -0.4180
vn 0.8883 -0.1333 -0.4395
vn 0.8995 -0.1268 0.4180
vn 0.8883 -0.1333 0.4395
vn 0.8995 0.3089 0.3089
vn 0.8883 0.3247 0.3247
vn 0.8995 -0.0852 -0.4285
vn 0.8883 -0.0896 -0.4504
vn 0.8995 -0.1672 0.4036
vn 0.8883 -0.1757 0.4243
vn 0.8995 0.2771 0.3377
vn 0.8883 0.2913 0.3550
vn 0.8995 -0.0428 -0.4348
vn 0.8883 -0.0450 -0.4570
vn 0.8995 -0.2059 0.3853
vn 0.8883 -0.2165 0.4050
vn 0.8995 0.2427 0.3632
vn 0.8883 0.2551 0.3818
vn 0.8995 -0.0000 -0.4369
vn 0.8883 -0.0000 -0.4592
vn 0.8995 -0.2427 0.3632
vn 0.8883 -0.2551 0.3818
vn 0.8995 0.2059 0.3853
vn 0.8883 0.2165 0.4050
vn 0.8995 0.0428 -0.4348
vn 0.8883 0.0450 -0.4570
vn 0.8995 -0.2771 0.3377
vn 0.8883 -0.2913 0.3550
vn 0.8995 0.1672 0.4036
vn 0.8883 0.1757 0.4243
vn 0.8995 0.0852 -0.4285
vn 0.8883 0.0896 -0.4504
vn 0.8995 -0.3089 0.3089
vn 0.8883 -0.3247 0.3247
vn 0.8995 0.1268 0.4180
vn 0.8883 0.1333 0.4395
vn 0.8995 0.1268 -0.4180
vn 0.8883 0.1333 -0.4395
vn 0.8995 -0.3377 0.2771
vn 0.8883 -0.3550 0.2913
vn 0.8995 0.0852 0.4285
vn 0.8883 0.0896 0.4504
vn 0.8995 0.1672 -0.4036
vn 0.8883 0.1757 -0.4243
vn 0.8995 -0.3632 0.2427
vn 0.8883 -0.3818 0.2551
vn 0.8883 0.0450 0.4570
vn 0.8995 0.2059 -0.3853
vn 0.8883 0.2165 -0.4050
vn 0.8995 -0.3853 0.2059
vn 0.8883 -0.4050 0.2165
vn 0.8995 0.2427 -0.3632
vn 0.8883 0.2551 -0.3818
vn 0.8995 -0.4036 0.1672
vn 0.8883 -0.4243 0.1757
vn 0.8995 0.2771 -0.3377
vn 0.8883 0.2913 -0.3550
vn 0.8995 -0.4180 0.1268
vn 0.8883 -0.4395 0.1333
vn 0.8995 0.3089 -0.3089
vn 0.8883 0.3247 -0.3247
vn 0.8995 -0.4285 0.0852
vn 0.8883 -0.4504 0.0896
vn 0.8995 0.3377 -0.2771
vn 0.8883 0.3550 -0.2913
vn 0.8995 -0.4348 0.0428
vn 0.8883 -0.4570 0.0450
vn 0.8995 0.3632 -0.2427
vn 0.8883 0.3818 -0.2551
vn 0.8995 -0.4369 -0.0000
vn 0.8883 -0.4592 -0.0000
vn 0.8995 0.3853 -0.2059
vn 0.8883 0.4050 -0.2165
vn 0.8995 -0.4348 -0.0428
vn 0.8883 -0.4570 -0.0450
vn -0.1944 -0.0961 -0.9762
vn -0.1944 -0.0000 -0.9809
vn 0.1944 -0.0000 -0.9809
vn 0.1944 -0.0961 -0.9762
vn -0.1944 -0.1914 -0.9621
vn 0.1944 -0.1914 -0.9621
vn -0.1944 -0.2847 -0.9387
vn 0.1944 -0.2847 -0.9387
vn -0.1944 -0.3754 -0.9062
vn 0.1944 -0.3754 -0.9062
vn -0.1944 -0.4624 -0.8651
vn 0.1944 -0.4624 -0.8651
vn -0.1944 -0.5450 -0.8156
vn 0.1944 -0.5450 -0.8156
vn -0.1944 -0.6223 -0.7583
vn 0.1944 -0.6223 -0.7583
vn -0.1944 -0.6936 -0.6936
vn 0.1944 -0.6936 -0.6936
vn -0.1944 -0.7583 -0.6223
vn 0.1944 -0.7583 -0.6223
vn -0.1944 -0.8156 -0.5450
vn 0.1944 -0.8156 -0.5450
vn -0.1944 -0.8651 -0.4624
vn 0.1944 -0.8651 -0.4624
vn -0.1944 -0.9062 -0.3754
vn 0.1944 -0.9062 -0.3754
vn -0.1944 -0.9387 -0.2847
vn 0.1944 -0.9387 -0.2847
vn -0.1944 -0.9621 -0.1914
vn 0.1944 -0.9621 -0.1914
vn -0.1944 -0.9762 -0.0961
vn 0.1944 -0.9762 -0.0961
vn -0.1944 -0.9809 -0.0000
vn 0.1944 -0.9809 -0.0000
vn -0.1944 -0.9762 0.0961
vn 0.1944 -0.9762 0.0961
vn -0.1944 -0.9621 0.1914
vn 0.1944 -0.9621 0.1914
vn -0.1944 -0.9387 0.2847
vn 0.1944 -0.9387 0.2847
vn -0.1944 -0.9062 0.3754
vn 0.1944 -0.9062 0.3754
vn -0.1944 -0.8651 0.4624
vn 0.1944 -0.8651 0.4624
vn -0.1944 -0.8156 0.5450
vn 0.1944 -0.8156 0.5450
vn -0.1944 -0.7583 0.6223
vn 0.1944 -0.7583 0.6223
vn -0.1944 -0.6936 0.6936
vn 0.1944 -0.6936 0.6936
vn -0.1944 -0.6223 0.7583
vn 0.1944 -0.6223 0.7583
vn -0.1944 -0.5450 0.8156
vn 0.1944 -0.5450 0.8156
vn -0.1944 -0.4624 0.8651
vn 0.1944 -0.4624 0.8651
vn -0.1944 -0.3754 0.9062
vn 0.1944 -0.3754 0.9062
vn -0.1944 -0.2847 0.9387
vn 0.1944 -0.2847 0.9387
vn -0.1944 -0.1914 0.9621
vn 0.1944 -0.1914 0.9621
vn -0.1944 -0.0961 0.9762
vn 0.1944 -0.0961 0.9762
vn -0.1944 -0.0000 0.9809
vn 0.1944 -0.0000 0.9809
vn -0.1944 0.0961 0.9762
vn 0.1944 0.0961 0.9762
vn -0.1944 0.1914 0.9621
vn 0.1944 0.1914 0.9621
vn -0.1944 0.2847 0.9387
vn 0.1944 0.2847 0.9387
vn -0.1944 0.3754 0.9062
vn 0.1944 0.3754 0.9062
vn -0.1944 0.4624 0.8651
vn 0.1944 0.4624 0.8651
vn -0.1944 0.5450 0.8156
vn 0.1944 0.5450 0.8156
vn -0.1944 0.6223 0.7583
vn 0.1944 0.6223 0.7583
vn -0.1944 0.6936 0.6936
vn 0.1944 0.6936 0.6936
vn -0.1944 0.7583 0.6223
vn 0.1944 0.7583 0.6223
vn -0.1944 0.8156 0.5450
vn 0.1944 0.8156 0.5450
vn -0.1944 0.8651 0.4624
vn 0.1944 0.8651 0.4624
vn -0.1944 0.9062 0.3754
vn 0.1944 0.9062 0.3754
vn -0.1944 0.9387 0.2847
vn 0.1944 0.9387 0.2847
vn -0.1944 0.9621 0.1914
vn 0.1944 0.9621 0.1914
vn -0.1944 0.9762 0.0961
vn 0.1944 0.9762 0.0961
vn -0.1944 0.9809 -0.0000
vn 0.1944 0.9809 -0.0000
vn -0.1944 0.9762 -0.0961
vn 0.1944 0.9762 -0.0961
vn -0.1944 0.9621 -0.1914
vn 0.1944 0.9621 -0.1914
vn -0.1944 0.9387 -0.2847
vn 0.1944 0.9387 -0.2847
vn -0.1944 0.9062 -0.3754
vn 0.1944 0.9062 -0.3754
vn -0.1944 0.8651 -0.4624
vn 0.1944 0.8651 -0.4624
vn -0.1944 0.8156 -0.5450
vn 0.1944 0.8156 -0.5450
vn -0.1944 0.7583 -0.6223
vn 0.1944 0.7583 -0.6223
vn -0.1944 0.6936 -0.6936
vn 0.1944 0.6936 -0.6936
vn -0.1944 0.6223 -0.7583
vn 0.1944 0.6223 -0.7583
vn -0.1944 0.5450 -0.8156
vn 0.1944 0.5450 -0.8156
vn -0.1944 0.4624 -0.8651
vn 0.1944 0.4624 -0.8651
vn -0.1944 0.3754 -0.9062
vn 0.1944 0.3754 -0.9062
vn -0.1944 0.2847 -0.9387
vn 0.1944 0.2847 -0.9387
vn -0.1944 0.1914 -0.9621
vn 0.1944 0.1914 -0.9621
vn -0.1944 0.0961 -0.9762
vn 0.1944 0.0961 -0.9762
vn 0.9796 -0.0392 -0.1970
vn 0.9796 0.0197 -0.1999
vn 0.9796 -0.0769 -0.1856
vn 0.9796 -0.0583 -0.1922
vn 0.9796 -0.0947 -0.1771
vn 0.9796 -0.1116 -0.1670
vn 0.9796 -0.1274 -0.1553
vn 0.9796 -0.1420 -0.1420
vn 0.9796 -0.1553 -0.1274
vn 0.9796 -0.1670 -0.1116
vn 0.9796 -0.1771 -0.0947
vn 0.9796 -0.1856 -0.0769
vn 0.9796 -0.1922 -0.0583
vn 0.9796 -0.1970 -0.0392
vn 0.9796 -0.1999 -0.0197
vn 0.9796 -0.2009 -0.0000
vn 0.9796 -0.1999 0.0197
vn 0.9796 -0.1970 0.0392
vn 0.9796 -0.1922 0.0583
vn 0.9796 -0.1856 0.0769
vn 0.9796 -0.1771 0.0947
vn 0.9796 -0.1670 0.1116
vn 0.9796 -0.1553 0.1274
vn 0.9796 -0.1420 0.1420
vn 0.9796 -0.1274 0.1553
vn 0.9796 -0.1116 0.1670
vn 0.9796 -0.0947 0.1771
vn 0.9796 -0.0769 0.1856
vn 0.9796 -0.0583 0.1922
vn 0.9796 -0.0392 0.1970
vn 0.9796 -0.0197 0.1999
vn 0.9796 -0.0000 0.2009
vn 0.9796 0.0197 0.1999
vn 0.9796 0.0392 0.1970
vn 0.9796 0.0583 0.1922
vn 0.9796 0.0769 0.1856
vn 0.9796 0.0947 0.1771
vn 0.9796 0.1116 0.1670
vn 0.9796 0.1274 0.1553
vn 0.9796 0.1420 0.1420
vn 0.9796 0.1553 0.1274
vn 0.9796 0.1670 0.1116
vn 0.9796 0.1771 0.0947
vn 0.9796 0.1856 0.0769
vn 0.9796 0.1922 0.0583
vn 0.9796 0.1970 0.0392
vn 0.9796 0.1999 0.0197
vn 0.9796 0.2009 -0.0000
vn 0.9796 0.1999 -0.0197
vn 0.9796 0.1970 -0.0392
vn 0.9796 0.1922 -0.0583
vn 0.9796 0.1856 -0.0769
vn 0.9796 0.1771 -0.0947
vn 0.9796 0.1670 -0.1116
vn 0.9796 0.1553 -0.1274
vn 0.9796 0.1420 -0.1420
vn 0.9796 0.1274 -0.1553
vn 0.9796 0.1116 -0.1670
vn 0.9796 0.0947 -0.1771
vn 0.9796 0.0769 -0.1856
vn 0.9796 0.0583 -0.1922
vn 0.9796 0.0392 -0.1970
vn 1.0000 -0.0000 -0.0000
vn -1.0000 -0.0000 -0.0000
vn -0.7016 -0.0000 -0.7126
vn -0.7016 -0.0698 -0.7091
vn -0.7016 -0.1390 -0.6989
vn -0.7016 -0.2068 -0.6819
vn -0.7016 -0.2727 -0.6583
vn -0.7016 -0.3359 -0.6284
vn -0.7016 -0.3959 -0.5925
vn -0.7016 -0.4520 -0.5508
vn -0.7016 -0.5039 -0.5039
vn -0.7016 -0.5508 -0.4520
vn -0.7016 -0.5925 -0.3959
vn -0.7016 -0.6284 -0.3359
vn -0.7016 -0.6583 -0.2727
vn -0.7016 -0.6819 -0.2068
vn -0.7016 -0.6989 -0.1390
vn -0.7016 -0.7091 -0.0698
vn -0.7016 -0.7126 -0.0000
vn -0.7016 -0.7091 0.0698
vn -0.7016 -0.6989 0.1390
vn -0.7016 -0.6819 0.2068
vn -0.7016 -0.6583 0.2727
vn -0.7016 -0.6284 0.3359
vn -0.7016 -0.5925 0.3959
vn -0.7016 -0.5508 0.4520
vn -0.7016 -0.5039 0.5039
vn -0.7016 -0.4520 0.5508
vn -0.7016 -0.3959 0.5925
vn -0.7016 -0.3359 0.6284
vn -0.7016 -0.2727 0.6583
vn -0.7016 -0.2068 0.6819
vn -0.7016 -0.1390 0.6989
vn -0.7016 -0.0698 0.7091
vn -0.7016 -0.0000 0.7126
vn -0.7016 0.0698 0.7091
vn -0.7016 0.1390 0.6989
vn -0.7016 0.2068 0.6819
vn -0.7016 0.2727 0.6583
vn -0.7016 0.3359 0.6284
vn -0.7016 0.3959 0.5925
vn -0.7016 0.4520 0.5508
vn -0.7016 0.5039 0.5039
vn -0.7016 0.5508 0.4520
vn -0.7016 0.5925 0.3959
vn -0.7016 0.6284 0.3359
vn -0.7016 0.6583 0.2727
vn -0.7016 0.6819 0.2068
vn -0.7016 0.6989 0.1390
vn -0.7016 0.7091 0.0698
vn -0.7016 0.7126 -0.0000
vn -0.7016 0.7091 -0.0698
vn -0.7016 0.6989 -0.1390
vn -0.7016 0.6819 -0.2068
vn -0.7016 0.6583 -0.2727
vn -0.7016 0.6284 -0.3359
vn -0.7016 0.5925 -0.3959
vn -0.7016 0.5508 -0.4520
vn -0.7016 0.5039 -0.5039
vn -0.7016 0.4520 -0.5508
vn -0.7016 0.3959 -0.5925
vn -0.7016 0.3359 -0.6284
vn -0.7016 0.2727 -0.6583
vn -0.7016 0.2068 -0.6819
vn -0.7016 0.1390 -0.6989
vn -0.7016 0.0698 -0.7091
vn 0.7016 -0.0000 -0.7126
vn 0.7016 -0.0698 -0.7091
vn 0.7016 -0.1390 -0.6989
vn 0.7016 -0.2068 -0.6819
vn 0.7016 -0.2727 -0.6583
vn 0.7016 -0.3359 -0.6284
vn 0.7016 -0.3959 -0.5925
vn 0.7016 -0.4520 -0.5508
vn 0.7016 -0.5039 -0.5039
vn 0.7016 -0.5508 -0.4520
vn 0.7016 -0.5925 -0.3959
vn 0.7016 -0.6284 -0.3359
vn 0.7016 -0.6583 -0.2727
vn 0.7016 -0.6819 -0.2068
vn 0.7016 -0.6989 -0.1390
vn 0.7016 -0.7091 -0.0698
vn 0.7016 -0.7126 -0.0000
vn 0.7016 -0.7091 0.0698
vn 0.7016 -0.6989 0.1390
vn 0.7016 -0.6819 0.2068
vn 0.7016 -0.6583 0.2727
vn 0.7016 -0.6284 0.3359
vn 0.7016 -0.5925 0.3959
vn 0.7016 -0.5508 0.4520
vn 0.7016 -0.5039 0.5039
vn 0.7016 -0.4520 0.5508
vn 0.7016 -0.3959 0.5925
vn 0.7016 -0.3359 0.6284
vn 0.7016 -0.2727 0.6583
vn 0.7016 -0.2068 0.6819
vn 0.7016 -0.1390 0.6989
vn 0.7016 -0.0698 0.7091
vn 0.7016 -0.0000 0.7126
vn 0.7016 0.0698 0.7091
vn 0.7016 0.1390 0.6989
vn 0.7016 0.2068 0.6819
vn 0.7016 0.2727 0.6583
vn 0.7016 0.3359 0.6284
vn 0.7016 0.3959 0.5925
vn 0.7016 0.4520 0.5508
vn 0.7016 0.5039 0.5039
vn 0.7016 0.5508 0.4520
vn 0.7016 0.5925 0.3959
vn 0.7016 0.6284 0.3359
vn 0.7016 0.6583 0.2727
vn 0.7016 0.6819 0.2068
vn 0.7016 0.6989 0.1390
vn 0.7016 0.7091 0.0698
vn 0.7016 0.7126 -0.0000
vn 0.7016 0.7091 -0.0698
vn 0.7016 0.6989 -0.1390
vn 0.7016 0.6819 -0.2068
vn 0.7016 0.6583 -0.2727
vn 0.7016 0.6284 -0.3359
vn 0.7016 0.5925 -0.3959
vn 0.7016 0.5508 -0.4520
vn 0.7016 0.5039 -0.5039
vn 0.7016 0.4520 -0.5508
vn 0.7016 0.3959 -0.5925
vn 0.7016 0.3359 -0.6284
vn 0.7016 0.2727 -0.6583
vn 0.7016 0.2068 -0.6819
vn 0.7016 0.1390 -0.6989
vn 0.7016 0.0698 -0.7091
vt 0.250946 0.103104
vt 0.273701 0.105393
vt 0.296227 0.111824
vt 0.318304 0.122335
vt 0.339721 0.136823
vt 0.360271 0.155150
vt 0.379756 0.177135
vt 0.397989 0.202560
vt 0.414805 0.231177
vt 0.430008 0.262782
vt 0.443508 0.296968
vt 0.455137 0.333472
vt 0.464784 0.371921
vt 0.472357 0.411942
vt 0.477787 0.453150
vt 0.481021 0.495151
vt 0.482028 0.537537
vt 0.480798 0.579904
vt 0.477344 0.621841
vt 0.471698 0.662945
vt 0.463916 0.702820
vt 0.454073 0.741081
vt 0.442264 0.777358
vt 0.428608 0.811304
vt 0.413238 0.842612
vt 0.396263 0.870917
vt 0.377901 0.896053
vt 0.358294 0.917704
vt 0.337643 0.935664
vt 0.316147 0.949765
vt 0.294014 0.959873
vt 0.271455 0.965894
vt 0.248689 0.967768
vt 0.225934 0.965479
vt 0.203409 0.959048
vt 0.181331 0.948537
vt 0.159914 0.934048
vt 0.139364 0.915722
vt 0.119879 0.893737
vt 0.101646 0.868312
vt 0.084831 0.839695
vt 0.069628 0.808090
vt 0.056127 0.773904
vt 0.044498 0.737400
vt 0.034851 0.698951
vt 0.027278 0.658930
vt 0.021848 0.617721
vt 0.018615 0.575721
vt 0.017608 0.533335
vt 0.018838 0.490968
vt 0.022292 0.449031
vt 0.027937 0.407927
vt 0.035719 0.368052
vt 0.045562 0.329791
vt 0.057371 0.293514
vt 0.071027 0.259568
vt 0.086397 0.228260
vt 0.103372 0.199955
vt 0.121734 0.174819
vt 0.141341 0.153168
vt 0.161992 0.135208
vt 0.183488 0.121107
vt 0.205621 0.110999
vt 0.228180 0.104978
vt 0.727349 0.107079
vt 0.750051 0.105075
vt 0.704862 0.113216
vt 0.682806 0.123428
vt 0.661393 0.137618
vt 0.640828 0.155651
vt 0.621312 0.177360
vt 0.603043 0.202535
vt 0.586162 0.230864
vt 0.570887 0.262178
vt 0.557325 0.296112
vt 0.545611 0.332361
vt 0.535860 0.370576
vt 0.528167 0.410389
vt 0.522607 0.451415
vt 0.519234 0.493259
vt 0.518080 0.535518
vt 0.519156 0.577783
vt 0.522452 0.619650
vt 0.527937 0.660715
vt 0.535559 0.700583
vt 0.545245 0.738870
vt 0.556905 0.775206
vt 0.570427 0.809220
vt 0.585642 0.840649
vt 0.602461 0.869089
vt 0.620688 0.894337
vt 0.640157 0.916147
vt 0.660683 0.934302
vt 0.682067 0.948625
vt 0.704102 0.958977
vt 0.726577 0.965257
vt 0.749275 0.967406
vt 0.771976 0.965402
vt 0.794463 0.959264
vt 0.816519 0.949052
vt 0.837932 0.934862
vt 0.858497 0.916829
vt 0.878014 0.895121
vt 0.896282 0.869945
vt 0.913163 0.841616
vt 0.928439 0.810302
vt 0.942000 0.776368
vt 0.953714 0.740119
vt 0.963466 0.701904
vt 0.971159 0.662091
vt 0.976718 0.621065
vt 0.980092 0.579221
vt 0.981246 0.536963
vt 0.980169 0.494697
vt 0.976873 0.452830
vt 0.971388 0.411766
vt 0.963766 0.371898
vt 0.954081 0.333610
vt 0.942421 0.297274
vt 0.928899 0.263260
vt 0.913683 0.231831
vt 0.896864 0.203392
vt 0.878637 0.178143
vt 0.859168 0.156333
vt 0.838642 0.138178
vt 0.817258 0.123855
vt 0.795223 0.113504
vt 0.772748 0.107223
vt 0.750042 0.119401
vt 0.749663 0.536240
vt 0.728094 0.121338
vt 0.706355 0.127271
vt 0.685031 0.137144
vt 0.664330 0.150862
vt 0.644450 0.168296
vt 0.625583 0.189281
vt 0.607915 0.213617
vt 0.591597 0.241010
vt 0.576828 0.271272
vt 0.563717 0.304082
vt 0.552392 0.339128
vt 0.542965 0.376074
vt 0.535527 0.414564
vt 0.530152 0.454227
vt 0.526890 0.494680
vt 0.525774 0.535534
vt 0.526815 0.576396
vt 0.530001 0.616871
vt 0.535304 0.656572
vt 0.542672 0.695114
vt 0.552036 0.732127
vt 0.563308 0.767254
vt 0.576378 0.800148
vt 0.591092 0.830530
vt 0.607346 0.858027
vt 0.624968 0.882437
vt 0.643792 0.903522
vt 0.663636 0.921074
vt 0.684309 0.934921
vt 0.705613 0.944930
vt 0.727340 0.951002
vt 0.749284 0.953079
vt 0.771231 0.951142
vt 0.792971 0.945209
vt 0.814294 0.935337
vt 0.834995 0.921619
vt 0.854876 0.904185
vt 0.873742 0.883199
vt 0.891410 0.858864
vt 0.907728 0.831470
vt 0.922497 0.801208
vt 0.935608 0.768398
vt 0.946934 0.733352
vt 0.956361 0.696406
vt 0.963798 0.657916
vt 0.969173 0.618253
vt 0.972435 0.577800
vt 0.973551 0.536946
vt 0.972511 0.496084
vt 0.969324 0.455609
vt 0.964021 0.415908
vt 0.956653 0.377366
vt 0.947289 0.340353
vt 0.936017 0.305227
vt 0.922947 0.272332
vt 0.908233 0.241950
vt 0.891980 0.214453
vt 0.874357 0.190043
vt 0.855533 0.168958
vt 0.835689 0.151406
vt 0.815016 0.137559
vt 0.793713 0.127551
vt 0.771985 0.121479
vt 0.272912 0.119683
vt 0.249818 0.535435
vt 0.250913 0.117469
vt 0.294688 0.125900
vt 0.316032 0.136062
vt 0.336738 0.150070
vt 0.356605 0.167787
vt 0.375444 0.189041
vt 0.393072 0.213623
vt 0.409323 0.241291
vt 0.424024 0.271842
vt 0.437074 0.304904
vt 0.448316 0.340192
vt 0.457642 0.377362
vt 0.464964 0.416053
vt 0.470213 0.455891
vt 0.473339 0.496496
vt 0.474312 0.537475
vt 0.473123 0.578433
vt 0.469783 0.618977
vt 0.464325 0.658715
vt 0.456801 0.697265
vt 0.447285 0.734255
vt 0.435869 0.769329
vt 0.422667 0.802150
vt 0.407805 0.832406
vt 0.391396 0.859777
vt 0.373638 0.884073
vt 0.354685 0.905003
vt 0.334721 0.922366
vt 0.313940 0.935999
vt 0.292542 0.945772
vt 0.270733 0.951591
vt 0.248723 0.953403
vt 0.226724 0.951189
vt 0.204947 0.944971
vt 0.183603 0.934810
vt 0.162898 0.920802
vt 0.143030 0.903085
vt 0.124191 0.881831
vt 0.106563 0.857249
vt 0.090312 0.829581
vt 0.075611 0.799029
vt 0.062561 0.765968
vt 0.051319 0.730679
vt 0.041994 0.693510
vt 0.034671 0.654819
vt 0.029422 0.614980
vt 0.026297 0.574376
vt 0.025324 0.533397
vt 0.026513 0.492439
vt 0.029852 0.451895
vt 0.035310 0.412157
vt 0.042834 0.373607
vt 0.052350 0.336617
vt 0.063766 0.301543
vt 0.076969 0.268722
vt 0.091830 0.238466
vt 0.108239 0.211095
vt 0.125997 0.186799
vt 0.144950 0.165868
vt 0.164915 0.148505
vt 0.185696 0.134873
vt 0.207094 0.125100
vt 0.228903 0.119280
vt 0.515788 0.049967
vt 0.515788 0.057075
vt 0.275261 0.077751
vt 0.515788 0.053522
vt 0.500294 0.057079
vt 0.251043 0.075310
vt 0.500294 0.049972
vt 0.500294 0.053526
vt 0.531281 0.049963
vt 0.299234 0.084600
vt 0.531281 0.057071
vt 0.531281 0.053517
vt 0.546775 0.049959
vt 0.322730 0.095791
vt 0.546775 0.057066
vt 0.546775 0.053513
vt 0.562268 0.049954
vt 0.345523 0.111217
vt 0.562269 0.057061
vt 0.562269 0.053508
vt 0.577762 0.049950
vt 0.367393 0.130728
vt 0.577762 0.057057
vt 0.577762 0.053504
vt 0.593256 0.049945
vt 0.388127 0.154134
vt 0.593256 0.057053
vt 0.593256 0.053500
vt 0.608749 0.049941
vt 0.407524 0.181204
vt 0.608750 0.057048
vt 0.608750 0.053495
vt 0.624243 0.049936
vt 0.425391 0.211655
vt 0.624243 0.057044
vt 0.624243 0.053491
vt 0.639736 0.049932
vt 0.441606 0.245222
vt 0.639736 0.057039
vt 0.639737 0.053486
vt 0.655230 0.049928
vt 0.455981 0.281654
vt 0.655230 0.057035
vt 0.655230 0.053482
vt 0.670723 0.049923
vt 0.468353 0.320521
vt 0.670724 0.057030
vt 0.670724 0.053477
vt 0.686217 0.049918
vt 0.478615 0.361448
vt 0.686217 0.057026
vt 0.686217 0.053473
vt 0.701710 0.049914
vt 0.486672 0.404045
vt 0.701711 0.057022
vt 0.701711 0.053468
vt 0.717204 0.049909
vt 0.492448 0.447904
vt 0.717204 0.057017
vt 0.717204 0.053464
vt 0.732697 0.049905
vt 0.495886 0.492605
vt 0.732698 0.057012
vt 0.732698 0.053459
vt 0.748191 0.049901
vt 0.496956 0.537717
vt 0.748191 0.057008
vt 0.748191 0.053455
vt 0.763684 0.049896
vt 0.495644 0.582807
vt 0.763684 0.057003
vt 0.763684 0.053450
vt 0.779178 0.049891
vt 0.491966 0.627440
vt 0.779178 0.056999
vt 0.779178 0.053446
vt 0.794671 0.049887
vt 0.485955 0.671186
vt 0.794671 0.056994
vt 0.794671 0.053441
vt 0.810164 0.049882
vt 0.477670 0.713622
vt 0.810165 0.056990
vt 0.810165 0.053437
vt 0.825658 0.049878
vt 0.467190 0.754340
vt 0.825658 0.056985
vt 0.825658 0.053432
vt 0.841151 0.049873
vt 0.454618 0.792943
vt 0.841152 0.056981
vt 0.841152 0.053427
vt 0.856645 0.049869
vt 0.440079 0.829056
vt 0.856645 0.056976
vt 0.856645 0.053423
vt 0.872138 0.049864
vt 0.423723 0.862323
vt 0.872138 0.056972
vt 0.872138 0.053418
vt 0.887631 0.049860
vt 0.405694 0.892510
vt 0.887632 0.056967
vt 0.887632 0.053414
vt 0.903125 0.049855
vt 0.386126 0.919275
vt 0.903125 0.056962
vt 0.903125 0.053409
vt 0.918618 0.049850
vt 0.365250 0.942309
vt 0.918618 0.056958
vt 0.918618 0.053405
vt 0.934111 0.049845
vt 0.343268 0.961416
vt 0.934111 0.056952
vt 0.934111 0.053399
vt 0.949604 0.049834
vt 0.320389 0.976416
vt 0.949605 0.056942
vt 0.949605 0.053388
vt 0.965101 0.049808
vt 0.296832 0.987169
vt 0.965101 0.056920
vt 0.965101 0.053365
vt 0.980615 0.049844
vt 0.272822 0.993572
vt 0.980604 0.056960
vt 0.980610 0.053406
vt 0.996284 0.050636
vt 0.004224 0.050587
vt 0.248592 0.995562
vt 0.996212 0.057810
vt 0.004291 0.057812
vt 0.996259 0.054239
vt 0.004246 0.054197
vt 0.019959 0.050029
vt 0.224374 0.993121
vt 0.019966 0.057172
vt 0.019963 0.053595
vt 0.035481 0.050069
vt 0.200402 0.986272
vt 0.035481 0.057181
vt 0.035481 0.053625
vt 0.050975 0.050091
vt 0.176905 0.975080
vt 0.050975 0.057199
vt 0.050975 0.053645
vt 0.066468 0.050091
vt 0.154112 0.959655
vt 0.066469 0.057198
vt 0.066469 0.053645
vt 0.081962 0.050087
vt 0.132242 0.940144
vt 0.081962 0.057194
vt 0.081963 0.053641
vt 0.097456 0.050083
vt 0.111508 0.916738
vt 0.097456 0.057190
vt 0.097456 0.053637
vt 0.112950 0.050078
vt 0.092111 0.889668
vt 0.112950 0.057186
vt 0.112950 0.053633
vt 0.128444 0.050074
vt 0.074244 0.859217
vt 0.128444 0.057182
vt 0.128444 0.053629
vt 0.143938 0.050070
vt 0.058030 0.825649
vt 0.143938 0.057178
vt 0.143938 0.053624
vt 0.159432 0.050066
vt 0.043654 0.789217
vt 0.159432 0.057173
vt 0.159432 0.053620
vt 0.174925 0.050062
vt 0.031282 0.750351
vt 0.174926 0.057169
vt 0.174926 0.053616
vt 0.190419 0.050058
vt 0.021020 0.709424
vt 0.190420 0.057165
vt 0.190420 0.053612
vt 0.205913 0.050053
vt 0.012963 0.666827
vt 0.205913 0.057161
vt 0.205913 0.053608
vt 0.221407 0.050049
vt 0.007187 0.622967
vt 0.221407 0.057156
vt 0.221407 0.053603
vt 0.236901 0.050044
vt 0.003749 0.578267
vt 0.236901 0.057152
vt 0.236901 0.053599
vt 0.252394 0.050041
vt 0.002680 0.533155
vt 0.252395 0.057148
vt 0.252395 0.053595
vt 0.267888 0.050036
vt 0.003991 0.488065
vt 0.267888 0.057144
vt 0.267889 0.053590
vt 0.283382 0.050032
vt 0.007669 0.443432
vt 0.283382 0.057140
vt 0.283382 0.053586
vt 0.298876 0.050028
vt 0.013680 0.399686
vt 0.298876 0.057135
vt 0.298876 0.053582
vt 0.314370 0.050024
vt 0.021965 0.357250
vt 0.314370 0.057131
vt 0.314370 0.053578
vt 0.329863 0.050019
vt 0.032445 0.316532
vt 0.329864 0.057127
vt 0.329864 0.053574
vt 0.345357 0.050015
vt 0.045017 0.277928
vt 0.345357 0.057123
vt 0.345357 0.053569
vt 0.360851 0.050011
vt 0.059556 0.241816
vt 0.360851 0.057118
vt 0.360851 0.053565
vt 0.376345 0.050006
vt 0.075912 0.208549
vt 0.376345 0.057114
vt 0.376345 0.053561
vt 0.391838 0.050002
vt 0.093941 0.178362
vt 0.391839 0.057110
vt 0.391839 0.053556
vt 0.407332 0.049998
vt 0.113509 0.151597
vt 0.407332 0.057105
vt 0.407332 0.053552
vt 0.422826 0.049993
vt 0.134385 0.128562
vt 0.422826 0.057101
vt 0.422826 0.053548
vt 0.438319 0.049989
vt 0.156367 0.109456
vt 0.438320 0.057097
vt 0.438320 0.053544
vt 0.453813 0.049985
vt 0.179246 0.094455
vt 0.453813 0.057092
vt 0.453813 0.053539
vt 0.469307 0.049980
vt 0.202804 0.083702
vt 0.469307 0.057088
vt 0.469307 0.053535
vt 0.484800 0.049976
vt 0.226813 0.077300
vt 0.484801 0.057084
vt 0.484801 0.053530
vt 0.725939 0.079484
vt 0.515765 0.005907
vt 0.515765 0.013015
vt 0.515764 0.009460
vt 0.500271 0.013019
vt 0.750100 0.077356
vt 0.500271 0.005912
vt 0.500271 0.009465
vt 0.702006 0.086011
vt 0.531258 0.005903
vt 0.531258 0.013010
vt 0.531258 0.009456
vt 0.678531 0.096874
vt 0.546752 0.005898
vt 0.546752 0.013006
vt 0.546752 0.009451
vt 0.655739 0.111969
vt 0.562246 0.005894
vt 0.562246 0.013001
vt 0.562245 0.009447
vt 0.633849 0.131154
vt 0.577739 0.005890
vt 0.577740 0.012997
vt 0.577739 0.009443
vt 0.613070 0.154249
vt 0.593233 0.005885
vt 0.593233 0.012993
vt 0.593233 0.009438
vt 0.593600 0.181057
vt 0.608726 0.005881
vt 0.608727 0.012988
vt 0.608726 0.009434
vt 0.575671 0.211269
vt 0.624220 0.005876
vt 0.624220 0.012984
vt 0.624220 0.009430
vt 0.559417 0.244542
vt 0.639713 0.005872
vt 0.639714 0.012980
vt 0.639713 0.009425
vt 0.544978 0.280642
vt 0.655207 0.005867
vt 0.655207 0.012975
vt 0.655207 0.009421
vt 0.532507 0.319215
vt 0.670700 0.005863
vt 0.670701 0.012971
vt 0.670700 0.009416
vt 0.522125 0.359885
vt 0.686194 0.005859
vt 0.686194 0.012966
vt 0.686194 0.009412
vt 0.513935 0.402255
vt 0.701687 0.005854
vt 0.701688 0.012962
vt 0.701687 0.009407
vt 0.508015 0.445918
vt 0.717181 0.005850
vt 0.717181 0.012957
vt 0.717181 0.009403
vt 0.504422 0.490451
vt 0.732674 0.005845
vt 0.732674 0.012953
vt 0.732674 0.009398
vt 0.503192 0.535426
vt 0.748168 0.005841
vt 0.748168 0.012948
vt 0.748167 0.009394
vt 0.504335 0.580410
vt 0.763661 0.005836
vt 0.763661 0.012944
vt 0.763661 0.009389
vt 0.507840 0.624969
vt 0.779154 0.005832
vt 0.779155 0.012939
vt 0.779154 0.009385
vt 0.513675 0.668675
vt 0.794648 0.005827
vt 0.794648 0.012934
vt 0.794648 0.009381
vt 0.521783 0.711109
vt 0.810142 0.005823
vt 0.810142 0.012930
vt 0.810141 0.009376
vt 0.532087 0.751864
vt 0.825635 0.005818
vt 0.825635 0.012926
vt 0.825635 0.009371
vt 0.544492 0.790552
vt 0.841128 0.005814
vt 0.841128 0.012921
vt 0.841128 0.009367
vt 0.558890 0.826800
vt 0.856622 0.005809
vt 0.856622 0.012917
vt 0.856622 0.009362
vt 0.575118 0.860180
vt 0.872115 0.005805
vt 0.872115 0.012912
vt 0.872115 0.009358
vt 0.592989 0.890443
vt 0.887608 0.005800
vt 0.887609 0.012908
vt 0.887608 0.009353
vt 0.612379 0.917325
vt 0.903102 0.005796
vt 0.903102 0.012903
vt 0.903102 0.009349
vt 0.633097 0.940545
vt 0.918595 0.005791
vt 0.918595 0.012899
vt 0.918595 0.009344
vt 0.654940 0.959874
vt 0.934088 0.005787
vt 0.934088 0.012894
vt 0.934088 0.009340
vt 0.677698 0.975123
vt 0.949581 0.005786
vt 0.949581 0.012894
vt 0.949581 0.009339
vt 0.701150 0.986144
vt 0.965074 0.005803
vt 0.965074 0.012915
vt 0.965074 0.009359
vt 0.725069 0.992833
vt 0.980588 0.005812
vt 0.980595 0.012955
vt 0.980592 0.009389
vt 0.749226 0.995125
vt 0.996262 0.005171
vt 0.004342 0.005171
vt 0.996330 0.012396
vt 0.004270 0.012346
vt 0.996308 0.008786
vt 0.004295 0.008743
vt 0.773387 0.992996
vt 0.019950 0.006021
vt 0.019940 0.013138
vt 0.019945 0.009576
vt 0.797320 0.986470
vt 0.035454 0.006062
vt 0.035454 0.013174
vt 0.035454 0.009618
vt 0.820794 0.975606
vt 0.050951 0.006041
vt 0.050952 0.013149
vt 0.050951 0.009594
vt 0.843586 0.960511
vt 0.066445 0.006031
vt 0.066446 0.013138
vt 0.066445 0.009584
vt 0.865476 0.941327
vt 0.081939 0.006026
vt 0.081940 0.013133
vt 0.081939 0.009579
vt 0.886256 0.918231
vt 0.097433 0.006022
vt 0.097433 0.013129
vt 0.097433 0.009575
vt 0.905725 0.891424
vt 0.112927 0.006018
vt 0.112927 0.013125
vt 0.112927 0.009571
vt 0.923654 0.861211
vt 0.128421 0.006013
vt 0.128421 0.013121
vt 0.128421 0.009567
vt 0.939908 0.827938
vt 0.143915 0.006009
vt 0.143915 0.013117
vt 0.143915 0.009563
vt 0.954347 0.791838
vt 0.159409 0.006005
vt 0.159409 0.013113
vt 0.159409 0.009558
vt 0.966819 0.753265
vt 0.174902 0.006001
vt 0.174903 0.013109
vt 0.174902 0.009554
vt 0.977200 0.712596
vt 0.190396 0.005997
vt 0.190396 0.013104
vt 0.190396 0.009550
vt 0.985391 0.670225
vt 0.205890 0.005992
vt 0.205890 0.013100
vt 0.205890 0.009546
vt 0.991311 0.626562
vt 0.221384 0.005988
vt 0.221384 0.013096
vt 0.221384 0.009542
vt 0.994903 0.582029
vt 0.236878 0.005984
vt 0.236878 0.013092
vt 0.236878 0.009537
vt 0.996134 0.537054
vt 0.252371 0.005980
vt 0.252372 0.013088
vt 0.252371 0.009533
vt 0.994991 0.492070
vt 0.267865 0.005976
vt 0.267866 0.013083
vt 0.267865 0.009529
vt 0.991485 0.447512
vt 0.283359 0.005971
vt 0.283359 0.013079
vt 0.283359 0.009524
vt 0.985650 0.403805
vt 0.298853 0.005967
vt 0.298853 0.013075
vt 0.298853 0.009521
vt 0.977542 0.361372
vt 0.314347 0.005963
vt 0.314347 0.013071
vt 0.314347 0.009516
vt 0.967238 0.320616
vt 0.329840 0.005959
vt 0.329841 0.013066
vt 0.329840 0.009512
vt 0.954834 0.281928
vt 0.345334 0.005954
vt 0.345334 0.013062
vt 0.345334 0.009508
vt 0.940435 0.245681
vt 0.360828 0.005950
vt 0.360828 0.013058
vt 0.360828 0.009503
vt 0.924208 0.212300
vt 0.376322 0.005946
vt 0.376322 0.013053
vt 0.376322 0.009499
vt 0.906337 0.182037
vt 0.391815 0.005942
vt 0.391816 0.013049
vt 0.391815 0.009495
vt 0.886946 0.155155
vt 0.407309 0.005937
vt 0.407309 0.013045
vt 0.407309 0.009490
vt 0.866229 0.131935
vt 0.422803 0.005933
vt 0.422803 0.013041
vt 0.422803 0.009486
vt 0.844385 0.112606
vt 0.438296 0.005929
vt 0.438297 0.013036
vt 0.438296 0.009482
vt 0.821627 0.097358
vt 0.453790 0.005924
vt 0.453790 0.013032
vt 0.453790 0.009478
vt 0.798175 0.086336
vt 0.469284 0.005920
vt 0.469284 0.013028
vt 0.469284 0.009473
vt 0.774256 0.079647
vt 0.484777 0.005916
vt 0.484778 0.013023
vt 0.484777 0.009469
s 1
usemtl 10_Santim
f 19/19/1 20/20/2 214/214/3 213/213/4
f 45/45/5 46/46/6 240/240/7 239/239/8
f 18/18/9 19/19/1 213/213/4 212/212/10
f 44/44/11 45/45/5 239/239/8 238/238/12
f 17/17/13 18/18/9 212/212/10 211/211/14
f 43/43/15 44/44/11 238/238/12 237/237/16
f 16/16/17 17/17/13 211/211/14 210/210/18
f 42/42/19 43/43/15 237/237/16 236/236/20
f 15/15/21 16/16/17 210/210/18 209/209/22
f 41/41/23 42/42/19 236/236/20 235/235/24
f 14/14/25 15/15/21 209/209/22 208/208/26
f 40/40/27 41/41/23 235/235/24 234/234/28
f 13/13/29 14/14/25 208/208/26 207/207/30
f 39/39/31 40/40/27 234/234/28 233/233/32
f 12/12/33 13/13/29 207/207/30 206/206/34
f 38/38/35 39/39/31 233/233/32 232/232/36
f 64/64/37 1/1/38 196/196/39 258/258/40
f 11/11/41 12/12/33 206/206/34 205/205/42
f 37/37/43 38/38/35 232/232/36 231/231/44
f 63/63/45 64/64/37 258/258/40 257/257/46
f 10/10/47 11/11/41 205/205/42 204/204/48
f 36/36/49 37/37/43 231/231/44 230/230/50
f 62/62/51 63/63/45 257/257/46 256/256/52
f 9/9/53 10/10/47 204/204/48 203/203/54
f 35/35/55 36/36/49 230/230/50 229/229/56
f 61/61/57 62/62/51 256/256/52 255/255/58
f 8/8/59 9/9/53 203/203/54 202/202/60
f 34/34/61 35/35/55 229/229/56 228/228/62
f 60/60/63 61/61/57 255/255/58 254/254/64
f 7/7/65 8/8/59 202/202/60 201/201/66
f 33/33/67 34/34/61 228/228/62 227/227/68
f 59/59/69 60/60/63 254/254/64 253/253/70
f 6/6/71 7/7/65 201/201/66 200/200/72
f 32/32/73 33/33/67 227/227/68 226/226/74
f 58/58/75 59/59/69 253/253/70 252/252/76
f 5/5/77 6/6/71 200/200/72 199/199/78
f 31/31/79 32/32/73 226/226/74 225/225/80
f 57/57/81 58/58/75 252/252/76 251/251/82
f 4/4/83 5/5/77 199/199/78 198/198/84
f 30/30/85 31/31/79 225/225/80 224/224/86
f 56/56/87 57/57/81 251/251/82 250/250/88
f 3/3/89 4/4/83 198/198/84 197/197/90
f 29/29/91 30/30/85 224/224/86 223/223/92
f 55/55/93 56/56/87 250/250/88 249/249/94
f 2/2/95 3/3/89 197/197/90 194/194/96
f 28/28/97 29/29/91 223/223/92 222/222/98
f 54/54/99 55/55/93 249/249/94 248/248/100
f 1/1/38 2/2/95 194/194/96 196/196/39
f 27/27/101 28/28/97 222/222/98 221/221/102
f 53/53/103 54/54/99 248/248/100 247/247/104
f 26/26/105 27/27/101 221/221/102 220/220/106
f 52/52/107 53/53/103 247/247/104 246/246/108
f 25/25/109 26/26/105 220/220/106 219/219/110
f 51/51/111 52/52/107 246/246/108 245/245/112
f 24/24/113 25/25/109 219/219/110 218/218/114
f 50/50/115 51/51/111 245/245/112 244/244/116
f 23/23/117 24/24/113 218/218/114 217/217/118
f 49/49/119 50/50/115 244/244/116 243/243/120
f 22/22/121 23/23/117 217/217/118 216/216/122
f 48/48/123 49/49/119 243/243/120 242/242/124
f 21/21/125 22/22/121 216/216/122 215/215/126
f 47/47/127 48/48/123 242/242/124 241/241/128
f 20/20/2 21/21/125 215/215/126 214/214/3
f 46/46/6 47/47/127 241/241/128 240/240/7
f 51/51/111 50/50/115 407/459/129 410/463/130
f 25/25/109 24/24/113 329/352/131 332/356/132
f 52/52/107 51/51/111 410/463/130 413/467/133
f 26/26/105 25/25/109 332/356/132 335/360/134
f 53/53/103 52/52/107 413/467/133 416/471/135
f 27/27/101 26/26/105 335/360/134 338/364/136
f 54/54/99 53/53/103 416/471/135 419/475/137
f 28/28/97 27/27/101 338/364/136 341/368/138
f 55/55/93 54/54/99 419/475/137 422/479/139
f 29/29/91 28/28/97 341/368/138 344/372/140
f 3/3/89 2/2/95 260/261/141 266/268/142
f 56/56/87 55/55/93 422/479/139 425/483/143
f 30/30/85 29/29/91 344/372/140 347/376/144
f 1/1/38 64/64/37 449/515/145 262/264/146
f 57/57/81 56/56/87 425/483/143 428/487/147
f 31/31/79 30/30/85 347/376/144 350/380/148
f 5/5/77 4/4/83 269/272/149 272/276/150
f 58/58/75 57/57/81 428/487/147 431/491/151
f 32/32/73 31/31/79 350/380/148 353/384/152
f 6/6/71 5/5/77 272/276/150 275/280/153
f 59/59/69 58/58/75 431/491/151 434/495/154
f 33/33/67 32/32/73 353/384/152 356/389/155
f 7/7/65 6/6/71 275/280/153 278/284/156
f 60/60/63 59/59/69 434/495/154 437/499/157
f 34/34/61 33/33/67 356/389/155 359/395/158
f 8/8/59 7/7/65 278/284/156 281/288/159
f 61/61/57 60/60/63 437/499/157 440/503/160
f 35/35/55 34/34/61 359/395/158 362/399/161
f 9/9/53 8/8/59 281/288/159 284/292/162
f 62/62/51 61/61/57 440/503/160 443/507/163
f 36/36/49 35/35/55 362/399/161 365/403/164
f 10/10/47 9/9/53 284/292/162 287/296/165
f 63/63/45 62/62/51 443/507/163 446/511/166
f 37/37/43 36/36/49 365/403/164 368/407/167
f 11/11/41 10/10/47 287/296/165 290/300/168
f 64/64/37 63/63/45 446/511/166 449/515/145
f 38/38/35 37/37/43 368/407/167 371/411/169
f 12/12/33 11/11/41 290/300/168 293/304/170
f 66/66/171 65/65/172 451/518/173 455/523/174
f 39/39/31 38/38/35 371/411/169 374/415/175
f 13/13/29 12/12/33 293/304/170 296/308/176
f 4/4/83 3/3/89 266/268/142 269/272/149
f 40/40/27 39/39/31 374/415/175 377/419/177
f 14/14/25 13/13/29 296/308/176 299/312/178
f 41/41/23 40/40/27 377/419/177 380/423/179
f 15/15/21 14/14/25 299/312/178 302/316/180
f 42/42/19 41/41/23 380/423/179 383/427/181
f 16/16/17 15/15/21 302/316/180 305/320/182
f 43/43/15 42/42/19 383/427/181 386/431/183
f 17/17/13 16/16/17 305/320/182 308/324/184
f 44/44/11 43/43/15 386/431/183 389/435/185
f 18/18/9 17/17/13 308/324/184 311/328/186
f 45/45/5 44/44/11 389/435/185 392/439/187
f 19/19/1 18/18/9 311/328/186 314/332/188
f 46/46/6 45/45/5 392/439/187 395/443/189
f 20/20/2 19/19/1 314/332/188 317/336/190
f 47/47/127 46/46/6 395/443/189 398/447/191
f 21/21/125 20/20/2 317/336/190 320/340/192
f 48/48/123 47/47/127 398/447/191 401/451/193
f 22/22/121 21/21/125 320/340/192 323/344/194
f 49/49/119 48/48/123 401/451/193 404/455/195
f 23/23/117 22/22/121 323/344/194 326/348/196
f 50/50/115 49/49/119 404/455/195 407/459/129
f 24/24/113 23/23/117 326/348/196 329/352/131
f 85/85/197 84/84/198 149/149/199 150/150/200
f 111/111/201 110/110/202 175/175/203 176/176/204
f 84/84/198 83/83/205 148/148/206 149/149/199
f 110/110/202 109/109/207 174/174/208 175/175/203
f 83/83/205 82/82/209 147/147/210 148/148/206
f 109/109/207 108/108/211 173/173/212 174/174/208
f 82/82/209 81/81/213 146/146/214 147/147/210
f 108/108/211 107/107/215 172/172/216 173/173/212
f 81/81/213 80/80/217 145/145/218 146/146/214
f 107/107/215 106/106/219 171/171/220 172/172/216
f 80/80/217 79/79/221 144/144/222 145/145/218
f 106/106/219 105/105/223 170/170/224 171/171/220
f 79/79/221 78/78/225 143/143/226 144/144/222
f 105/105/223 104/104/227 169/169/228 170/170/224
f 78/78/225 77/77/229 142/142/230 143/143/226
f 104/104/227 103/103/231 168/168/232 169/169/228
f 77/77/229 76/76/233 141/141/234 142/142/230
f 103/103/231 102/102/235 167/167/236 168/168/232
f 66/66/171 128/128/237 193/193/238 129/129/239
f 76/76/233 75/75/240 140/140/241 141/141/234
f 102/102/235 101/101/242 166/166/243 167/167/236
f 128/128/237 127/127/244 192/192/245 193/193/238
f 75/75/240 74/74/246 139/139/247 140/140/241
f 101/101/242 100/100/248 165/165/249 166/166/243
f 127/127/244 126/126/250 191/191/251 192/192/245
f 74/74/246 73/73/252 138/138/253 139/139/247
f 100/100/248 99/99/254 164/164/255 165/165/249
f 126/126/250 125/125/256 190/190/257 191/191/251
f 73/73/252 72/72/258 137/137/259 138/138/253
f 99/99/254 98/98/260 163/163/261 164/164/255
f 125/125/256 124/124/262 189/189/263 190/190/257
f 72/72/258 71/71/264 136/136/265 137/137/259
f 98/98/260 97/97/266 162/162/267 163/163/261
f 124/124/262 123/123/268 188/188/269 189/189/263
f 71/71/264 70/70/270 135/135/271 136/136/265
f 97/97/266 96/96/272 161/161/273 162/162/267
f 123/123/268 122/122/274 187/187/275 188/188/269
f 70/70/270 69/69/276 134/134/277 135/135/271
f 96/96/272 95/95/278 160/160/279 161/161/273
f 122/122/274 121/121/280 186/186/281 187/187/275
f 69/69/276 68/68/282 133/133/283 134/134/277
f 95/95/278 94/94/284 159/159/285 160/160/279
f 121/121/280 120/120/286 185/185/287 186/186/281
f 68/68/282 67/67/288 132/132/289 133/133/283
f 94/94/284 93/93/290 158/158/291 159/159/285
f 120/120/286 119/119/292 184/184/293 185/185/287
f 67/67/288 65/65/172 131/131/294 132/132/289
f 93/93/290 92/92/295 157/157/296 158/158/291
f 119/119/292 118/118/297 183/183/298 184/184/293
f 65/65/172 66/66/171 129/129/239 131/131/294
f 92/92/295 91/91/299 156/156/300 157/157/296
f 118/118/297 117/117/301 182/182/302 183/183/298
f 91/91/299 90/90/303 155/155/304 156/156/300
f 117/117/301 116/116/305 181/181/306 182/182/302
f 90/90/303 89/89/307 154/154/308 155/155/304
f 116/116/305 115/115/309 180/180/310 181/181/306
f 89/89/307 88/88/311 153/153/312 154/154/308
f 115/115/309 114/114/313 179/179/314 180/180/310
f 88/88/311 87/87/315 152/152/316 153/153/312
f 114/114/313 113/113/317 178/178/318 179/179/314
f 87/87/315 86/86/319 151/151/320 152/152/316
f 113/113/317 112/112/321 177/177/322 178/178/318
f 86/86/319 85/85/197 150/150/200 151/151/320
f 112/112/321 111/111/201 176/176/204 177/177/322
f 259/259/323 263/265/324 454/522/325 452/520/326
f 265/267/327 259/259/323 452/520/326 458/528/328
f 268/271/329 265/267/327 458/528/328 461/532/330
f 271/275/331 268/271/329 461/532/330 464/536/332
f 274/279/333 271/275/331 464/536/332 467/540/334
f 277/283/335 274/279/333 467/540/334 470/544/336
f 280/287/337 277/283/335 470/544/336 473/548/338
f 283/291/339 280/287/337 473/548/338 476/552/340
f 286/295/341 283/291/339 476/552/340 479/556/342
f 289/299/343 286/295/341 479/556/342 482/560/344
f 292/303/345 289/299/343 482/560/344 485/564/346
f 295/307/347 292/303/345 485/564/346 488/568/348
f 298/311/349 295/307/347 488/568/348 491/572/350
f 301/315/351 298/311/349 491/572/350 494/576/352
f 304/319/353 301/315/351 494/576/352 497/580/354
f 307/323/355 304/319/353 497/580/354 500/584/356
f 310/327/357 307/323/355 500/584/356 503/588/358
f 313/331/359 310/327/357 503/588/358 506/592/360
f 316/335/361 313/331/359 506/592/360 509/596/362
f 319/339/363 316/335/361 509/596/362 512/600/364
f 322/343/365 319/339/363 512/600/364 515/604/366
f 325/347/367 322/343/365 515/604/366 518/608/368
f 328/351/369 325/347/367 518/608/368 521/612/370
f 331/355/371 328/351/369 521/612/370 524/616/372
f 334/359/373 331/355/371 524/616/372 527/620/374
f 337/363/375 334/359/373 527/620/374 530/624/376
f 340/367/377 337/363/375 530/624/376 533/628/378
f 343/371/379 340/367/377 533/628/378 536/632/380
f 346/375/381 343/371/379 536/632/380 539/636/382
f 349/379/383 346/375/381 539/636/382 542/640/384
f 352/383/385 349/379/383 542/640/384 545/644/386
f 355/387/387 352/383/385 545/644/386 548/649/388
f 358/394/389 355/388/387 548/650/388 551/655/390
f 361/398/391 358/394/389 551/655/390 554/659/392
f 364/402/393 361/398/391 554/659/392 557/663/394
f 367/406/395 364/402/393 557/663/394 560/667/396
f 370/410/397 367/406/395 560/667/396 563/671/398
f 373/414/399 370/410/397 563/671/398 566/675/400
f 376/418/401 373/414/399 566/675/400 569/679/402
f 379/422/403 376/418/401 569/679/402 572/683/404
f 382/426/405 379/422/403 572/683/404 575/687/406
f 385/430/407 382/426/405 575/687/406 578/691/408
f 388/434/409 385/430/407 578/691/408 581/695/410
f 391/438/411 388/434/409 581/695/410 584/699/412
f 394/442/413 391/438/411 584/699/412 587/703/414
f 397/446/415 394/442/413 587/703/414 590/707/416
f 400/450/417 397/446/415 590/707/416 593/711/418
f 403/454/419 400/450/417 593/711/418 596/715/420
f 406/458/421 403/454/419 596/715/420 599/719/422
f 409/462/423 406/458/421 599/719/422 602/723/424
f 412/466/425 409/462/423 602/723/424 605/727/426
f 415/470/427 412/466/425 605/727/426 608/731/428
f 418/474/429 415/470/427 608/731/428 611/735/430
f 421/478/431 418/474/429 611/735/430 614/739/432
f 424/482/433 421/478/431 614/739/432 617/743/434
f 427/486/435 424/482/433 617/743/434 620/747/436
f 430/490/437 427/486/435 620/747/436 623/751/438
f 433/494/439 430/490/437 623/751/438 626/755/440
f 436/498/441 433/494/439 626/755/440 629/759/442
f 439/502/443 436/498/441 629/759/442 632/763/444
f 442/506/445 439/502/443 632/763/444 635/767/446
f 445/510/447 442/506/445 635/767/446 638/771/448
f 448/514/449 445/510/447 638/771/448 641/775/450
f 263/265/324 448/514/449 641/775/450 454/522/325
f 65/65/172 67/67/288 457/526/451 451/518/173
f 128/128/237 66/66/171 455/523/174 640/773/452
f 68/68/282 69/69/276 463/534/453 460/530/454
f 69/69/276 70/70/270 466/538/455 463/534/453
f 70/70/270 71/71/264 469/542/456 466/538/455
f 71/71/264 72/72/258 472/546/457 469/542/456
f 72/72/258 73/73/252 475/550/458 472/546/457
f 73/73/252 74/74/246 478/554/459 475/550/458
f 74/74/246 75/75/240 481/558/460 478/554/459
f 75/75/240 76/76/233 484/562/461 481/558/460
f 76/76/233 77/77/229 487/566/462 484/562/461
f 77/77/229 78/78/225 490/570/463 487/566/462
f 78/78/225 79/79/221 493/574/464 490/570/463
f 79/79/221 80/80/217 496/578/465 493/574/464
f 80/80/217 81/81/213 499/582/466 496/578/465
f 81/81/213 82/82/209 502/586/467 499/582/466
f 82/82/209 83/83/205 505/590/468 502/586/467
f 83/83/205 84/84/198 508/594/469 505/590/468
f 84/84/198 85/85/197 511/598/470 508/594/469
f 85/85/197 86/86/319 514/602/471 511/598/470
f 86/86/319 87/87/315 517/606/472 514/602/471
f 87/87/315 88/88/311 520/610/473 517/606/472
f 88/88/311 89/89/307 523/614/474 520/610/473
f 89/89/307 90/90/303 526/618/475 523/614/474
f 90/90/303 91/91/299 529/622/476 526/618/475
f 91/91/299 92/92/295 532/626/477 529/622/476
f 92/92/295 93/93/290 535/630/478 532/626/477
f 93/93/290 94/94/284 538/634/479 535/630/478
f 94/94/284 95/95/278 541/638/480 538/634/479
f 95/95/278 96/96/272 544/642/481 541/638/480
f 96/96/272 97/97/266 547/646/482 544/642/481
f 97/97/266 98/98/260 550/653/483 547/646/482
f 98/98/260 99/99/254 553/657/484 550/653/483
f 99/99/254 100/100/248 556/661/485 553/657/484
f 100/100/248 101/101/242 559/665/486 556/661/485
f 101/101/242 102/102/235 562/669/487 559/665/486
f 102/102/235 103/103/231 565/673/488 562/669/487
f 103/103/231 104/104/227 568/677/489 565/673/488
f 104/104/227 105/105/223 571/681/490 568/677/489
f 105/105/223 106/106/219 574/685/491 571/681/490
f 106/106/219 107/107/215 577/689/492 574/685/491
f 107/107/215 108/108/211 580/693/493 577/689/492
f 108/108/211 109/109/207 583/697/494 580/693/493
f 109/109/207 110/110/202 586/701/495 583/697/494
f 110/110/202 111/111/201 589/705/496 586/701/495
f 111/111/201 112/112/321 592/709/497 589/705/496
f 112/112/321 113/113/317 595/713/498 592/709/497
f 113/113/317 114/114/313 598/717/499 595/713/498
f 114/114/313 115/115/309 601/721/500 598/717/499
f 115/115/309 116/116/305 604/725/501 601/721/500
f 116/116/305 117/117/301 607/729/502 604/725/501
f 117/117/301 118/118/297 610/733/503 607/729/502
f 118/118/297 119/119/292 613/737/504 610/733/503
f 119/119/292 120/120/286 616/741/505 613/737/504
f 120/120/286 121/121/280 619/745/506 616/741/505
f 121/121/280 122/122/274 622/749/507 619/745/506
f 122/122/274 123/123/268 625/753/508 622/749/507
f 123/123/268 124/124/262 628/757/509 625/753/508
f 124/124/262 125/125/256 631/761/510 628/757/509
f 125/125/256 126/126/250 634/765/511 631/761/510
f 126/126/250 127/127/244 637/769/512 634/765/511
f 127/127/244 128/128/237 640/773/452 637/769/512
f 67/67/288 68/68/282 460/530/454 457/526/451
f 130/130/513 131/131/294 129/129/239
f 130/130/513 132/132/289 131/131/294
f 130/130/513 133/133/283 132/132/289
f 130/130/513 134/134/277 133/133/283
f 130/130/513 135/135/271 134/134/277
f 130/130/513 136/136/265 135/135/271
f 130/130/513 137/137/259 136/136/265
f 130/130/513 138/138/253 137/137/259
f 130/130/513 139/139/247 138/138/253
f 130/130/513 140/140/241 139/139/247
f 130/130/513 141/141/234 140/140/241
f 130/130/513 142/142/230 141/141/234
f 130/130/513 143/143/226 142/142/230
f 130/130/513 144/144/222 143/143/226
f 130/130/513 145/145/218 144/144/222
f 130/130/513 146/146/214 145/145/218
f 130/130/513 147/147/210 146/146/214
f 130/130/513 148/148/206 147/147/210
f 130/130/513 149/149/199 148/148/206
f 130/130/513 150/150/200 149/149/199
f 130/130/513 151/151/320 150/150/200
f 130/130/513 152/152/316 151/151/320
f 130/130/513 153/153/312 152/152/316
f 130/130/513 154/154/308 153/153/312
f 130/130/513 155/155/304 154/154/308
f 130/130/513 156/156/300 155/155/304
f 130/130/513 157/157/296 156/156/300
f 130/130/513 158/158/291 157/157/296
f 130/130/513 159/159/285 158/158/291
f 130/130/513 160/160/279 159/159/285
f 130/130/513 161/161/273 160/160/279
f 130/130/513 162/162/267 161/161/273
f 130/130/513 163/163/261 162/162/267
f 130/130/513 164/164/255 163/163/261
f 130/130/513 165/165/249 164/164/255
f 130/130/513 166/166/243 165/165/249
f 130/130/513 167/167/236 166/166/243
f 130/130/513 168/168/232 167/167/236
f 130/130/513 169/169/228 168/168/232
f 130/130/513 170/170/224 169/169/228
f 130/130/513 171/171/220 170/170/224
f 130/130/513 172/172/216 171/171/220
f 130/130/513 173/173/212 172/172/216
f 130/130/513 174/174/208 173/173/212
f 130/130/513 175/175/203 174/174/208
f 130/130/513 176/176/204 175/175/203
f 130/130/513 177/177/322 176/176/204
f 130/130/513 178/178/318 177/177/322
f 130/130/513 179/179/314 178/178/318
f 130/130/513 180/180/310 179/179/314
f 130/130/513 181/181/306 180/180/310
f 130/130/513 182/182/302 181/181/306
f 130/130/513 183/183/298 182/182/302
f 130/130/513 184/184/293 183/183/298
f 130/130/513 185/185/287 184/184/293
f 130/130/513 186/186/281 185/185/287
f 130/130/513 187/187/275 186/186/281
f 130/130/513 188/188/269 187/187/275
f 130/130/513 189/189/263 188/188/269
f 130/130/513 190/190/257 189/189/263
f 130/130/513 191/191/251 190/190/257
f 130/130/513 192/192/245 191/191/251
f 130/130/513 193/193/238 192/192/245
f 130/130/513 129/129/239 193/193/238
f 195/195/514 196/196/39 194/194/96
f 195/195/514 194/194/96 197/197/90
f 195/195/514 197/197/90 198/198/84
f 195/195/514 198/198/84 199/199/78
f 195/195/514 199/199/78 200/200/72
f 195/195/514 200/200/72 201/201/66
f 195/195/514 201/201/66 202/202/60
f 195/195/514 202/202/60 203/203/54
f 195/195/514 203/203/54 204/204/48
f 195/195/514 204/204/48 205/205/42
f 195/195/514 205/205/42 206/206/34
f 195/195/514 206/206/34 207/207/30
f 195/195/514 207/207/30 208/208/26
f 195/195/514 208/208/26 209/209/22
f 195/195/514 209/209/22 210/210/18
f 195/195/514 210/210/18 211/211/14
f 195/195/514 211/211/14 212/212/10
f 195/195/514 212/212/10 213/213/4
f 195/195/514 213/213/4 214/214/3
f 195/195/514 214/214/3 215/215/126
f 195/195/514 215/215/126 216/216/122
f 195/195/514 216/216/122 217/217/118
f 195/195/514 217/217/118 218/218/114
f 195/195/514 218/218/114 219/219/110
f 195/195/514 219/219/110 220/220/106
f 195/195/514 220/220/106 221/221/102
f 195/195/514 221/221/102 222/222/98
f 195/195/514 222/222/98 223/223/92
f 195/195/514 223/223/92 224/224/86
f 195/195/514 224/224/86 225/225/80
f 195/195/514 225/225/80 226/226/74
f 195/195/514 226/226/74 227/227/68
f 195/195/514 227/227/68 228/228/62
f 195/195/514 228/228/62 229/229/56
f 195/195/514 229/229/56 230/230/50
f 195/195/514 230/230/50 231/231/44
f 195/195/514 231/231/44 232/232/36
f 195/195/514 232/232/36 233/233/32
f 195/195/514 233/233/32 234/234/28
f 195/195/514 234/234/28 235/235/24
f 195/195/514 235/235/24 236/236/20
f 195/195/514 236/236/20 237/237/16
f 195/195/514 237/237/16 238/238/12
f 195/195/514 238/238/12 239/239/8
f 195/195/514 239/239/8 240/240/7
f 195/195/514 240/240/7 241/241/128
f 195/195/514 241/241/128 242/242/124
f 195/195/514 242/242/124 243/243/120
f 195/195/514 243/243/120 244/244/116
f 195/195/514 244/244/116 245/245/112
f 195/195/514 245/245/112 246/246/108
f 195/195/514 246/246/108 247/247/104
f 195/195/514 247/247/104 248/248/100
f 195/195/514 248/248/100 249/249/94
f 195/195/514 249/249/94 250/250/88
f 195/195/514 250/250/88 251/251/82
f 195/195/514 251/251/82 252/252/76
f 195/195/514 252/252/76 253/253/70
f 195/195/514 253/253/70 254/254/64
f 195/195/514 254/254/64 255/255/58
f 195/195/514 255/255/58 256/256/52
f 195/195/514 256/256/52 257/257/46
f 195/195/514 257/257/46 258/258/40
f 195/195/514 258/258/40 196/196/39
f 260/260/141 262/263/146 264/266/515 261/262/516
f 261/262/516 264/266/515 263/265/324 259/259/323
f 266/269/142 260/260/141 261/262/516 267/270/517
f 267/270/517 261/262/516 259/259/323 265/267/327
f 269/273/149 266/269/142 267/270/517 270/274/518
f 270/274/518 267/270/517 265/267/327 268/271/329
f 272/277/150 269/273/149 270/274/518 273/278/519
f 273/278/519 270/274/518 268/271/329 271/275/331
f 275/281/153 272/277/150 273/278/519 276/282/520
f 276/282/520 273/278/519 271/275/331 274/279/333
f 278/285/156 275/281/153 276/282/520 279/286/521
f 279/286/521 276/282/520 274/279/333 277/283/335
f 281/289/159 278/285/156 279/286/521 282/290/522
f 282/290/522 279/286/521 277/283/335 280/287/337
f 284/293/162 281/289/159 282/290/522 285/294/523
f 285/294/523 282/290/522 280/287/337 283/291/339
f 287/297/165 284/293/162 285/294/523 288/298/524
f 288/298/524 285/294/523 283/291/339 286/295/341
f 290/301/168 287/297/165 288/298/524 291/302/525
f 291/302/525 288/298/524 286/295/341 289/299/343
f 293/305/170 290/301/168 291/302/525 294/306/526
f 294/306/526 291/302/525 289/299/343 292/303/345
f 296/309/176 293/305/170 294/306/526 297/310/527
f 297/310/527 294/306/526 292/303/345 295/307/347
f 299/313/178 296/309/176 297/310/527 300/314/528
f 300/314/528 297/310/527 295/307/347 298/311/349
f 302/317/180 299/313/178 300/314/528 303/318/529
f 303/318/529 300/314/528 298/311/349 301/315/351
f 305/321/182 302/317/180 303/318/529 306/322/530
f 306/322/530 303/318/529 301/315/351 304/319/353
f 308/325/184 305/321/182 306/322/530 309/326/531
f 309/326/531 306/322/530 304/319/353 307/323/355
f 311/329/186 308/325/184 309/326/531 312/330/532
f 312/330/532 309/326/531 307/323/355 310/327/357
f 314/333/188 311/329/186 312/330/532 315/334/533
f 315/334/533 312/330/532 310/327/357 313/331/359
f 317/337/190 314/333/188 315/334/533 318/338/534
f 318/338/534 315/334/533 313/331/359 316/335/361
f 320/341/192 317/337/190 318/338/534 321/342/535
f 321/342/535 318/338/534 316/335/361 319/339/363
f 323/345/194 320/341/192 321/342/535 324/346/536
f 324/346/536 321/342/535 319/339/363 322/343/365
f 326/349/196 323/345/194 324/346/536 327/350/537
f 327/350/537 324/346/536 322/343/365 325/347/367
f 329/353/131 326/349/196 327/350/537 330/354/538
f 330/354/538 327/350/537 325/347/367 328/351/369
f 332/357/132 329/353/131 330/354/538 333/358/539
f 333/358/539 330/354/538 328/351/369 331/355/371
f 335/361/134 332/357/132 333/358/539 336/362/540
f 336/362/540 333/358/539 331/355/371 334/359/373
f 338/365/136 335/361/134 336/362/540 339/366/541
f 339/366/541 336/362/540 334/359/373 337/363/375
f 341/369/138 338/365/136 339/366/541 342/370/542
f 342/370/542 339/366/541 337/363/375 340/367/377
f 344/373/140 341/369/138 342/370/542 345/374/543
f 345/374/543 342/370/542 340/367/377 343/371/379
f 347/377/144 344/373/140 345/374/543 348/378/544
f 348/378/544 345/374/543 343/371/379 346/375/381
f 350/381/148 347/377/144 348/378/544 351/382/545
f 351/382/545 348/378/544 346/375/381 349/379/383
f 353/385/152 350/381/148 351/382/545 354/386/546
f 354/386/546 351/382/545 349/379/383 352/383/385
f 356/390/155 353/385/152 354/386/546 357/392/547
f 357/392/547 354/386/546 352/383/385 355/387/387
f 359/396/158 356/391/155 357/393/547 360/397/548
f 360/397/548 357/393/547 355/388/387 358/394/389
f 362/400/161 359/396/158 360/397/548 363/401/549
f 363/401/549 360/397/548 358/394/389 361/398/391
f 365/404/164 362/400/161 363/401/549 366/405/550
f 366/405/550 363/401/549 361/398/391 364/402/393
f 368/408/167 365/404/164 366/405/550 369/409/551
f 369/409/551 366/405/550 364/402/393 367/406/395
f 371/412/169 368/408/167 369/409/551 372/413/552
f 372/413/552 369/409/551 367/406/395 370/410/397
f 374/416/175 371/412/169 372/413/552 375/417/553
f 375/417/553 372/413/552 370/410/397 373/414/399
f 377/420/177 374/416/175 375/417/553 378/421/554
f 378/421/554 375/417/553 373/414/399 376/418/401
f 380/424/179 377/420/177 378/421/554 381/425/555
f 381/425/555 378/421/554 376/418/401 379/422/403
f 383/428/181 380/424/179 381/425/555 384/429/556
f 384/429/556 381/425/555 379/422/403 382/426/405
f 386/432/183 383/428/181 384/429/556 387/433/557
f 387/433/557 384/429/556 382/426/405 385/430/407
f 389/436/185 386/432/183 387/433/557 390/437/558
f 390/437/558 387/433/557 385/430/407 388/434/409
f 392/440/187 389/436/185 390/437/558 393/441/559
f 393/441/559 390/437/558 388/434/409 391/438/411
f 395/444/189 392/440/187 393/441/559 396/445/560
f 396/445/560 393/441/559 391/438/411 394/442/413
f 398/448/191 395/444/189 396/445/560 399/449/561
f 399/449/561 396/445/560 394/442/413 397/446/415
f 401/452/193 398/448/191 399/449/561 402/453/562
f 402/453/562 399/449/561 397/446/415 400/450/417
f 404/456/195 401/452/193 402/453/562 405/457/563
f 405/457/563 402/453/562 400/450/417 403/454/419
f 407/460/129 404/456/195 405/457/563 408/461/564
f 408/461/564 405/457/563 403/454/419 406/458/421
f 410/464/130 407/460/129 408/461/564 411/465/565
f 411/465/565 408/461/564 406/458/421 409/462/423
f 413/468/133 410/464/130 411/465/565 414/469/566
f 414/469/566 411/465/565 409/462/423 412/466/425
f 416/472/135 413/468/133 414/469/566 417/473/567
f 417/473/567 414/469/566 412/466/425 415/470/427
f 419/476/137 416/472/135 417/473/567 420/477/568
f 420/477/568 417/473/567 415/470/427 418/474/429
f 422/480/139 419/476/137 420/477/568 423/481/569
f 423/481/569 420/477/568 418/474/429 421/478/431
f 425/484/143 422/480/139 423/481/569 426/485/570
f 426/485/570 423/481/569 421/478/431 424/482/433
f 428/488/147 425/484/143 426/485/570 429/489/571
f 429/489/571 426/485/570 424/482/433 427/486/435
f 431/492/151 428/488/147 429/489/571 432/493/572
f 432/493/572 429/489/571 427/486/435 430/490/437
f 434/496/154 431/492/151 432/493/572 435/497/573
f 435/497/573 432/493/572 430/490/437 433/494/439
f 437/500/157 434/496/154 435/497/573 438/501/574
f 438/501/574 435/497/573 433/494/439 436/498/441
f 440/504/160 437/500/157 438/501/574 441/505/575
f 441/505/575 438/501/574 436/498/441 439/502/443
f 443/508/163 440/504/160 441/505/575 444/509/576
f 444/509/576 441/505/575 439/502/443 442/506/445
f 446/512/166 443/508/163 444/509/576 447/513/577
f 447/513/577 444/509/576 442/506/445 445/510/447
f 449/516/145 446/512/166 447/513/577 450/517/578
f 450/517/578 447/513/577 445/510/447 448/514/449
f 262/263/146 449/516/145 450/517/578 264/266/515
f 264/266/515 450/517/578 448/514/449 263/265/324
f 452/520/326 454/522/325 456/525/579 453/521/580
f 453/521/580 456/525/579 455/524/174 451/519/173
f 458/528/328 452/520/326 453/521/580 459/529/581
f 459/529/581 453/521/580 451/519/173 457/527/451
f 461/532/330 458/528/328 459/529/581 462/533/582
f 462/533/582 459/529/581 457/527/451 460/531/454
f 464/536/332 461/532/330 462/533/582 465/537/583
f 465/537/583 462/533/582 460/531/454 463/535/453
f 467/540/334 464/536/332 465/537/583 468/541/584
f 468/541/584 465/537/583 463/535/453 466/539/455
f 470/544/336 467/540/334 468/541/584 471/545/585
f 471/545/585 468/541/584 466/539/455 469/543/456
f 473/548/338 470/544/336 471/545/585 474/549/586
f 474/549/586 471/545/585 469/543/456 472/547/457
f 476/552/340 473/548/338 474/549/586 477/553/587
f 477/553/587 474/549/586 472/547/457 475/551/458
f 479/556/342 476/552/340 477/553/587 480/557/588
f 480/557/588 477/553/587 475/551/458 478/555/459
f 482/560/344 479/556/342 480/557/588 483/561/589
f 483/561/589 480/557/588 478/555/459 481/559/460
f 485/564/346 482/560/344 483/561/589 486/565/590
f 486/565/590 483/561/589 481/559/460 484/563/461
f 488/568/348 485/564/346 486/565/590 489/569/591
f 489/569/591 486/565/590 484/563/461 487/567/462
f 491/572/350 488/568/348 489/569/591 492/573/592
f 492/573/592 489/569/591 487/567/462 490/571/463
f 494/576/352 491/572/350 492/573/592 495/577/593
f 495/577/593 492/573/592 490/571/463 493/575/464
f 497/580/354 494/576/352 495/577/593 498/581/594
f 498/581/594 495/577/593 493/575/464 496/579/465
f 500/584/356 497/580/354 498/581/594 501/585/595
f 501/585/595 498/581/594 496/579/465 499/583/466
f 503/588/358 500/584/356 501/585/595 504/589/596
f 504/589/596 501/585/595 499/583/466 502/587/467
f 506/592/360 503/588/358 504/589/596 507/593/597
f 507/593/597 504/589/596 502/587/467 505/591/468
f 509/596/362 506/592/360 507/593/597 510/597/598
f 510/597/598 507/593/597 505/591/468 508/595/469
f 512/600/364 509/596/362 510/597/598 513/601/599
f 513/601/599 510/597/598 508/595/469 511/599/470
f 515/604/366 512/600/364 513/601/599 516/605/600
f 516/605/600 513/601/599 511/599/470 514/603/471
f 518/608/368 515/604/366 516/605/600 519/609/601
f 519/609/601 516/605/600 514/603/471 517/607/472
f 521/612/370 518/608/368 519/609/601 522/613/602
f 522/613/602 519/609/601 517/607/472 520/611/473
f 524/616/372 521/612/370 522/613/602 525/617/603
f 525/617/603 522/613/602 520/611/473 523/615/474
f 527/620/374 524/616/372 525/617/603 528/621/604
f 528/621/604 525/617/603 523/615/474 526/619/475
f 530/624/376 527/620/374 528/621/604 531/625/605
f 531/625/605 528/621/604 526/619/475 529/623/476
f 533/628/378 530/624/376 531/625/605 534/629/606
f 534/629/606 531/625/605 529/623/476 532/627/477
f 536/632/380 533/628/378 534/629/606 537/633/607
f 537/633/607 534/629/606 532/627/477 535/631/478
f 539/636/382 536/632/380 537/633/607 540/637/608
f 540/637/608 537/633/607 535/631/478 538/635/479
f 542/640/384 539/636/382 540/637/608 543/641/609
f 543/641/609 540/637/608 538/635/479 541/639/480
f 545/644/386 542/640/384 543/641/609 546/645/610
f 546/645/610 543/641/609 541/639/480 544/643/481
f 548/649/388 545/644/386 546/645/610 549/651/611
f 549/651/611 546/645/610 544/643/481 547/647/482
f 551/655/390 548/650/388 549/652/611 552/656/612
f 552/656/612 549/652/611 547/648/482 550/654/483
f 554/659/392 551/655/390 552/656/612 555/660/613
f 555/660/613 552/656/612 550/654/483 553/658/484
f 557/663/394 554/659/392 555/660/613 558/664/614
f 558/664/614 555/660/613 553/658/484 556/662/485
f 560/667/396 557/663/394 558/664/614 561/668/615
f 561/668/615 558/664/614 556/662/485 559/666/486
f 563/671/398 560/667/396 561/668/615 564/672/616
f 564/672/616 561/668/615 559/666/486 562/670/487
f 566/675/400 563/671/398 564/672/616 567/676/617
f 567/676/617 564/672/616 562/670/487 565/674/488
f 569/679/402 566/675/400 567/676/617 570/680/618
f 570/680/618 567/676/617 565/674/488 568/678/489
f 572/683/404 569/679/402 570/680/618 573/684/619
f 573/684/619 570/680/618 568/678/489 571/682/490
f 575/687/406 572/683/404 573/684/619 576/688/620
f 576/688/620 573/684/619 571/682/490 574/686/491
f 578/691/408 575/687/406 576/688/620 579/692/621
f 579/692/621 576/688/620 574/686/491 577/690/492
f 581/695/410 578/691/408 579/692/621 582/696/622
f 582/696/622 579/692/621 577/690/492 580/694/493
f 584/699/412 581/695/410 582/696/622 585/700/623
f 585/700/623 582/696/622 580/694/493 583/698/494
f 587/703/414 584/699/412 585/700/623 588/704/624
f 588/704/624 585/700/623 583/698/494 586/702/495
f 590/707/416 587/703/414 588/704/624 591/708/625
f 591/708/625 588/704/624 586/702/495 589/706/496
f 593/711/418 590/707/416 591/708/625 594/712/626
f 594/712/626 591/708/625 589/706/496 592/710/497
f 596/715/420 593/711/418 594/712/626 597/716/627
f 597/716/627 594/712/626 592/710/497 595/714/498
f 599/719/422 596/715/420 597/716/627 600/720/628
f 600/720/628 597/716/627 595/714/498 598/718/499
f 602/723/424 599/719/422 600/720/628 603/724/629
f 603/724/629 600/720/628 598/718/499 601/722/500
f 605/727/426 602/723/424 603/724/629 606/728/630
f 606/728/630 603/724/629 601/722/500 604/726/501
f 608/731/428 605/727/426 606/728/630 609/732/631
f 609/732/631 606/728/630 604/726/501 607/730/502
f 611/735/430 608/731/428 609/732/631 612/736/632
f 612/736/632 609/732/631 607/730/502 610/734/503
f 614/739/432 611/735/430 612/736/632 615/740/633
f 615/740/633 612/736/632 610/734/503 613/738/504
f 617/743/434 614/739/432 615/740/633 618/744/634
f 618/744/634 615/740/633 613/738/504 616/742/505
f 620/747/436 617/743/434 618/744/634 621/748/635
f 621/748/635 618/744/634 616/742/505 619/746/506
f 623/751/438 620/747/436 621/748/635 624/752/636
f 624/752/636 621/748/635 619/746/506 622/750/507
f 626/755/440 623/751/438 624/752/636 627/756/637
f 627/756/637 624/752/636 622/750/507 625/754/508
f 629/759/442 626/755/440 627/756/637 630/760/638
f 630/760/638 627/756/637 625/754/508 628/758/509
f 632/763/444 629/759/442 630/760/638 633/764/639
f 633/764/639 630/760/638 628/758/509 631/762/510
f 635/767/446 632/763/444 633/764/639 636/768/640
f 636/768/640 633/764/639 631/762/510 634/766/511
f 638/771/448 635/767/446 636/768/640 639/772/641
f 639/772/641 636/768/640 634/766/511 637/770/512
f 641/775/450 638/771/448 639/772/641 642/776/642
f 642/776/642 639/772/641 637/770/512 640/774/452
f 454/522/325 641/775/450 642/776/642 456/525/579
f 456/525/579 642/776/642 640/774/452 455/524/174
f 2/2/95 1/1/38 262/264/146 260/261/141
