# Blender 3.5.0 Alpha
# www.blender.org
mtllib 1_Santim.mtl
o 1_Santim
v 0.000463 -0.000114 0.000197
v -0.000437 -0.000115 0.000197
v 0.000761 -0.000225 0.015047
v 0.000611 -0.000226 0.015197
v 0.000717 -0.000226 0.015153
v 0.000612 -0.001696 0.015114
v 0.000762 -0.001680 0.014964
v 0.000718 -0.001691 0.015070
v 0.000614 -0.003151 0.014887
v 0.000764 -0.003120 0.014740
v 0.000720 -0.003141 0.014844
v 0.000615 -0.004576 0.014518
v 0.000765 -0.004531 0.014375
v 0.000721 -0.004562 0.014476
v 0.000617 -0.005958 0.014012
v 0.000767 -0.005899 0.013874
v 0.000723 -0.005941 0.013971
v 0.000618 -0.007284 0.013373
v 0.000768 -0.007212 0.013241
v 0.000724 -0.007263 0.013334
v 0.000620 -0.008541 0.012606
v 0.000770 -0.008456 0.012482
v 0.000726 -0.008516 0.012570
v 0.000621 -0.009717 0.011721
v 0.000771 -0.009620 0.011605
v 0.000727 -0.009688 0.011687
v 0.000622 -0.010800 0.010724
v 0.000772 -0.010693 0.010619
v 0.000728 -0.010768 0.010693
v 0.000624 -0.011780 0.009626
v 0.000773 -0.011663 0.009532
v 0.000730 -0.011746 0.009598
v 0.000625 -0.012648 0.008437
v 0.000775 -0.012522 0.008355
v 0.000731 -0.012611 0.008413
v 0.000626 -0.013395 0.007169
v 0.000776 -0.013262 0.007099
v 0.000732 -0.013356 0.007148
v 0.000627 -0.014015 0.005833
v 0.000776 -0.013875 0.005777
v 0.000733 -0.013974 0.005817
v 0.000627 -0.014500 0.004444
v 0.000777 -0.014356 0.004401
v 0.000733 -0.014458 0.004431
v 0.000628 -0.014847 0.003013
v 0.000778 -0.014700 0.002985
v 0.000734 -0.014804 0.003005
v 0.000628 -0.015052 0.001556
v 0.000778 -0.014903 0.001542
v 0.000734 -0.015008 0.001552
v 0.000629 -0.015114 0.000085
v 0.000779 -0.014963 0.000086
v 0.000735 -0.015069 0.000085
v 0.000629 -0.015030 -0.001385
v 0.000779 -0.014881 -0.001369
v 0.000735 -0.014986 -0.001380
v 0.000629 -0.014803 -0.002839
v 0.000779 -0.014656 -0.002809
v 0.000735 -0.014760 -0.002830
v 0.000629 -0.014435 -0.004265
v 0.000779 -0.014291 -0.004220
v 0.000735 -0.014393 -0.004251
v 0.000629 -0.013929 -0.005647
v 0.000778 -0.013790 -0.005588
v 0.000735 -0.013888 -0.005630
v 0.000628 -0.013289 -0.006973
v 0.000778 -0.013157 -0.006901
v 0.000734 -0.013251 -0.006952
v 0.000628 -0.012523 -0.008230
v 0.000778 -0.012399 -0.008145
v 0.000734 -0.012487 -0.008205
v 0.000627 -0.011637 -0.009405
v 0.000777 -0.011522 -0.009309
v 0.000733 -0.011603 -0.009377
v 0.000626 -0.010641 -0.010489
v 0.000776 -0.010535 -0.010382
v 0.000732 -0.010610 -0.010457
v 0.000625 -0.009543 -0.011469
v 0.000775 -0.009448 -0.011352
v 0.000731 -0.009515 -0.011435
v 0.000624 -0.008354 -0.012337
v 0.000774 -0.008271 -0.012211
v 0.000730 -0.008329 -0.012300
v 0.000623 -0.007085 -0.013084
v 0.000773 -0.007016 -0.012951
v 0.000729 -0.007065 -0.013045
v 0.000622 -0.005750 -0.013704
v 0.000772 -0.005694 -0.013564
v 0.000728 -0.005733 -0.013663
v 0.000620 -0.004360 -0.014189
v 0.000770 -0.004318 -0.014045
v 0.000726 -0.004348 -0.014147
v 0.000619 -0.002930 -0.014536
v 0.000769 -0.002902 -0.014389
v 0.000725 -0.002921 -0.014493
v 0.000618 -0.001472 -0.014741
v 0.000768 -0.001458 -0.014592
v 0.000724 -0.001468 -0.014697
v 0.000616 -0.000001 -0.014802
v 0.000766 -0.000002 -0.014652
v 0.000722 -0.000002 -0.014758
v 0.000615 0.001468 -0.014719
v 0.000765 0.001453 -0.014570
v 0.000721 0.001464 -0.014675
v 0.000613 0.002923 -0.014492
v 0.000763 0.002892 -0.014345
v 0.000719 0.002914 -0.014449
v 0.000611 0.004348 -0.014124
v 0.000761 0.004303 -0.013980
v 0.000718 0.004335 -0.014082
v 0.000610 0.005730 -0.013617
v 0.000760 0.005672 -0.013479
v 0.000716 0.005713 -0.013577
v 0.000608 0.007056 -0.012978
v 0.000759 0.006984 -0.012846
v 0.000715 0.007035 -0.012939
v 0.000607 0.008313 -0.012212
v 0.000757 0.008229 -0.012088
v 0.000713 0.008288 -0.012175
v 0.000606 0.009489 -0.011326
v 0.000756 0.009393 -0.011211
v 0.000712 0.009461 -0.011292
v 0.000604 0.010572 -0.010329
v 0.000754 0.010465 -0.010224
v 0.000710 0.010541 -0.010299
v 0.000603 0.011552 -0.009231
v 0.000753 0.011436 -0.009137
v 0.000709 0.011518 -0.009204
v 0.000602 0.012420 -0.008043
v 0.000752 0.012295 -0.007960
v 0.000708 0.012384 -0.008018
v 0.000601 0.013168 -0.006774
v 0.000751 0.013035 -0.006704
v 0.000707 0.013129 -0.006754
v 0.000600 0.013787 -0.005439
v 0.000750 0.013648 -0.005382
v 0.000706 0.013746 -0.005422
v 0.000599 0.014272 -0.004049
v 0.000750 0.014129 -0.004007
v 0.000705 0.014230 -0.004037
v 0.000599 0.014619 -0.002619
v 0.000749 0.014472 -0.002590
v 0.000705 0.014576 -0.002610
v 0.000598 0.014824 -0.001161
v 0.000748 0.014675 -0.001147
v 0.000704 0.014781 -0.001157
v 0.000598 0.014886 0.000310
v 0.000748 0.014736 0.000309
v 0.000704 0.014842 0.000309
v 0.000598 0.014802 0.001779
v 0.000748 0.014653 0.001764
v 0.000704 0.014759 0.001775
v 0.000598 0.014575 0.003234
v 0.000748 0.014429 0.003203
v 0.000704 0.014532 0.003225
v 0.000598 0.014207 0.004659
v 0.000748 0.014064 0.004614
v 0.000704 0.014165 0.004646
v 0.000598 0.013701 0.006041
v 0.000748 0.013563 0.005983
v 0.000704 0.013660 0.006024
v 0.000598 0.013061 0.007367
v 0.000749 0.012930 0.007295
v 0.000705 0.013023 0.007346
v 0.000599 0.012295 0.008624
v 0.000749 0.012171 0.008540
v 0.000705 0.012259 0.008599
v 0.000600 0.011410 0.009800
v 0.000750 0.011294 0.009704
v 0.000706 0.011376 0.009772
v 0.000601 0.010413 0.010883
v 0.000751 0.010308 0.010776
v 0.000707 0.010382 0.010852
v 0.000601 0.009315 0.011863
v 0.000752 0.009221 0.011747
v 0.000708 0.009287 0.011829
v 0.000603 0.008126 0.012731
v 0.000753 0.008044 0.012606
v 0.000709 0.008102 0.012695
v 0.000604 0.006858 0.013479
v 0.000754 0.006788 0.013346
v 0.000710 0.006837 0.013440
v 0.000605 0.005522 0.014098
v 0.000755 0.005466 0.013959
v 0.000711 0.005506 0.014057
v 0.000606 0.004133 0.014584
v 0.000756 0.004090 0.014440
v 0.000712 0.004120 0.014541
v 0.000608 0.002702 0.014931
v 0.000758 0.002674 0.014783
v 0.000714 0.002694 0.014887
v 0.000609 0.001244 0.015136
v 0.000759 0.001231 0.014986
v 0.000715 0.001240 0.015092
v -0.000571 -0.014805 -0.002840
v -0.000721 -0.014658 -0.002809
v -0.000677 -0.014762 -0.002831
v -0.000721 -0.014293 -0.004220
v -0.000571 -0.014436 -0.004265
v -0.000677 -0.014394 -0.004252
v -0.000572 -0.013291 -0.006973
v -0.000722 -0.013159 -0.006901
v -0.000678 -0.013252 -0.006952
v -0.000722 -0.012400 -0.008145
v -0.000572 -0.012524 -0.008230
v -0.000678 -0.012488 -0.008205
v -0.000723 -0.011523 -0.009309
v -0.000573 -0.011639 -0.009406
v -0.000679 -0.011605 -0.009377
v -0.000724 -0.010537 -0.010382
v -0.000574 -0.010642 -0.010489
v -0.000680 -0.010611 -0.010457
v -0.000725 -0.009450 -0.011352
v -0.000575 -0.009544 -0.011469
v -0.000681 -0.009516 -0.011435
v -0.000726 -0.008273 -0.012212
v -0.000576 -0.008355 -0.012337
v -0.000682 -0.008331 -0.012300
v -0.000578 -0.005751 -0.013704
v -0.000728 -0.005695 -0.013565
v -0.000684 -0.005735 -0.013663
v -0.000730 -0.004319 -0.014045
v -0.000580 -0.004362 -0.014189
v -0.000686 -0.004349 -0.014147
v -0.000731 -0.002903 -0.014389
v -0.000581 -0.002931 -0.014536
v -0.000687 -0.002923 -0.014493
v -0.000732 -0.001460 -0.014592
v -0.000582 -0.001473 -0.014741
v -0.000689 -0.001470 -0.014697
v -0.000734 -0.000004 -0.014652
v -0.000584 -0.000003 -0.014803
v -0.000690 -0.000003 -0.014758
v -0.000735 0.001451 -0.014570
v -0.000585 0.001467 -0.014719
v -0.000692 0.001462 -0.014675
v -0.000737 0.002891 -0.014345
v -0.000587 0.002921 -0.014492
v -0.000693 0.002912 -0.014449
v -0.000590 0.005729 -0.013618
v -0.000740 0.005670 -0.013479
v -0.000696 0.005712 -0.013577
v -0.000741 0.006983 -0.012847
v -0.000592 0.007055 -0.012978
v -0.000698 0.007034 -0.012940
v -0.000743 0.008227 -0.012088
v -0.000593 0.008312 -0.012212
v -0.000699 0.008287 -0.012176
v -0.000744 0.009391 -0.011211
v -0.000594 0.009487 -0.011326
v -0.000700 0.009459 -0.011293
v -0.000746 0.010464 -0.010224
v -0.000596 0.010571 -0.010330
v -0.000702 0.010539 -0.010299
v -0.000598 0.012419 -0.008043
v -0.000748 0.012293 -0.007960
v -0.000704 0.012382 -0.008019
v -0.000749 0.013033 -0.006705
v -0.000599 0.013166 -0.006775
v -0.000705 0.013127 -0.006754
v -0.000750 0.013646 -0.005383
v -0.000600 0.013786 -0.005439
v -0.000706 0.013745 -0.005423
v -0.000601 0.014618 -0.002619
v -0.000751 0.014470 -0.002591
v -0.000707 0.014575 -0.002611
v -0.000602 0.014574 0.003234
v -0.000752 0.014427 0.003203
v -0.000708 0.014531 0.003225
v -0.000589 0.004347 -0.014124
v -0.000739 0.004302 -0.013981
v -0.000695 0.004333 -0.014082
v -0.000597 0.011551 -0.009232
v -0.000747 0.011434 -0.009137
v -0.000703 0.011517 -0.009204
v -0.000601 0.014271 -0.004049
v -0.000750 0.014127 -0.004007
v -0.000707 0.014229 -0.004037
v -0.000752 0.014673 -0.001148
v -0.000602 0.014823 -0.001161
v -0.000708 0.014779 -0.001157
v -0.000752 0.014734 0.000308
v -0.000602 0.014884 0.000310
v -0.000708 0.014840 0.000309
v -0.000602 0.014801 0.001779
v -0.000752 0.014652 0.001763
v -0.000708 0.014757 0.001775
v -0.000752 0.014062 0.004614
v -0.000602 0.014206 0.004659
v -0.000708 0.014164 0.004646
v -0.000752 0.013561 0.005983
v -0.000602 0.013700 0.006041
v -0.000708 0.013659 0.006024
v -0.000751 0.012928 0.007295
v -0.000602 0.013060 0.007367
v -0.000708 0.013021 0.007346
v -0.000751 0.012170 0.008539
v -0.000601 0.012294 0.008624
v -0.000707 0.012257 0.008599
v -0.000750 0.011293 0.009703
v -0.000600 0.011408 0.009800
v -0.000706 0.011374 0.009771
v -0.000749 0.010306 0.010776
v -0.000599 0.010412 0.010883
v -0.000705 0.010381 0.010851
v -0.000748 0.009219 0.011746
v -0.000599 0.009314 0.011863
v -0.000705 0.009286 0.011829
v -0.000747 0.008042 0.012606
v -0.000597 0.008125 0.012731
v -0.000703 0.008100 0.012694
v -0.000746 0.006786 0.013346
v -0.000596 0.006856 0.013479
v -0.000702 0.006836 0.013439
v -0.000745 0.005464 0.013959
v -0.000595 0.005521 0.014098
v -0.000701 0.005504 0.014057
v -0.000744 0.004089 0.014439
v -0.000594 0.004131 0.014583
v -0.000700 0.004119 0.014541
v -0.000742 0.002672 0.014783
v -0.000592 0.002701 0.014930
v -0.000698 0.002692 0.014887
v -0.000741 0.001229 0.014986
v -0.000591 0.001243 0.015135
v -0.000697 0.001239 0.015092
v -0.000739 -0.000227 0.015046
v -0.000589 -0.000228 0.015197
v -0.000695 -0.000227 0.015153
v -0.000738 -0.001682 0.014964
v -0.000588 -0.001697 0.015113
v -0.000694 -0.001693 0.015070
v -0.000736 -0.003122 0.014739
v -0.000586 -0.003152 0.014886
v -0.000692 -0.003143 0.014843
v -0.000735 -0.004532 0.014375
v -0.000585 -0.004577 0.014518
v -0.000691 -0.004564 0.014476
v -0.000733 -0.005901 0.013873
v -0.000583 -0.005959 0.014012
v -0.000689 -0.005942 0.013971
v -0.000732 -0.007213 0.013241
v -0.000582 -0.007285 0.013372
v -0.000688 -0.007264 0.013334
v -0.000730 -0.008458 0.012482
v -0.000580 -0.008542 0.012606
v -0.000686 -0.008517 0.012570
v -0.000729 -0.009622 0.011605
v -0.000579 -0.009718 0.011721
v -0.000685 -0.009690 0.011687
v -0.000728 -0.010694 0.010618
v -0.000578 -0.010801 0.010724
v -0.000684 -0.010770 0.010693
v -0.000727 -0.011665 0.009531
v -0.000576 -0.011781 0.009626
v -0.000683 -0.011747 0.009598
v -0.000725 -0.012524 0.008354
v -0.000575 -0.012649 0.008437
v -0.000681 -0.012613 0.008413
v -0.000724 -0.013264 0.007099
v -0.000574 -0.013397 0.007169
v -0.000680 -0.013358 0.007148
v -0.000724 -0.013877 0.005777
v -0.000573 -0.014016 0.005833
v -0.000680 -0.013975 0.005817
v -0.000723 -0.014358 0.004401
v -0.000573 -0.014502 0.004444
v -0.000679 -0.014459 0.004431
v -0.000722 -0.014701 0.002985
v -0.000572 -0.014848 0.003013
v -0.000678 -0.014805 0.003005
v -0.000722 -0.014904 0.001542
v -0.000572 -0.015054 0.001555
v -0.000678 -0.015010 0.001551
v -0.000721 -0.014965 0.000086
v -0.000571 -0.015115 0.000085
v -0.000677 -0.015071 0.000085
v -0.000571 -0.015031 -0.001385
v -0.000721 -0.014882 -0.001369
v -0.000677 -0.014988 -0.001380
v -0.000571 -0.013930 -0.005647
v -0.000722 -0.013792 -0.005588
v -0.000677 -0.013889 -0.005630
v -0.000577 -0.007087 -0.013084
v -0.000727 -0.007017 -0.012951
v -0.000683 -0.007066 -0.013045
vn 0.9815 -0.0004 0.1914
vn 0.9815 -0.0192 0.1904
vn 1.0000 0.0010 0.0002
vn -0.9813 -0.1836 -0.0571
vn -1.0000 -0.0010 -0.0002
vn -0.9813 -0.1772 -0.0747
vn 0.1944 -0.1033 0.9755
vn 0.1943 -0.0072 0.9809
vn -0.1946 -0.0076 0.9809
vn -0.1945 -0.1037 0.9754
vn 0.1942 0.0890 0.9769
vn 0.1941 0.1843 0.9635
vn -0.1948 0.1839 0.9634
vn -0.1947 0.0886 0.9768
vn 0.1941 0.4691 -0.8616
vn 0.1942 0.3824 -0.9034
vn -0.1947 0.3820 -0.9034
vn -0.1948 0.4687 -0.8616
vn 0.1952 -0.8683 0.4559
vn 0.1952 -0.8195 0.5389
vn -0.1937 -0.8199 0.5388
vn -0.1936 -0.8687 0.4559
vn 0.1940 0.5513 -0.8115
vn -0.1949 0.5509 -0.8115
vn 0.1953 -0.9088 0.3686
vn -0.1936 -0.9092 0.3685
vn 0.1939 0.6282 -0.7535
vn -0.1949 0.6278 -0.7536
vn 0.1954 -0.9406 0.2777
vn -0.1935 -0.9410 0.2777
vn 0.1938 0.6990 -0.6884
vn -0.1950 0.6986 -0.6884
vn 0.1954 -0.9633 0.1842
vn -0.1935 -0.9637 0.1841
vn 0.1938 0.7631 -0.6165
vn -0.1951 0.7627 -0.6166
vn 0.1954 -0.9767 0.0889
vn -0.1934 -0.9771 0.0888
vn 0.1937 0.8199 -0.5388
vn -0.1952 0.8195 -0.5389
vn 0.1954 -0.9807 -0.0073
vn -0.1934 -0.9811 -0.0074
vn 0.1936 0.8687 -0.4559
vn -0.1952 0.8683 -0.4559
vn 0.1955 -0.9752 -0.1034
vn -0.1934 -0.9756 -0.1035
vn 0.1936 0.9092 -0.3685
vn -0.1953 0.9088 -0.3686
vn 0.1955 -0.9604 -0.1985
vn -0.1934 -0.9608 -0.1986
vn 0.1935 0.9410 -0.2777
vn -0.1953 0.9406 -0.2777
vn 0.1954 -0.9363 -0.2917
vn -0.1934 -0.9367 -0.2918
vn 0.1935 0.9637 -0.1841
vn -0.1954 0.9633 -0.1842
vn 0.1954 -0.9032 -0.3821
vn -0.1934 -0.9036 -0.3822
vn 0.1934 0.9771 -0.0888
vn -0.1954 0.9767 -0.0889
vn 0.1954 -0.8614 -0.4688
vn -0.1935 -0.8618 -0.4689
vn 0.1934 0.9811 0.0074
vn -0.1954 0.9807 0.0073
vn 0.1954 -0.8113 -0.5510
vn -0.1935 -0.8117 -0.5511
vn 0.1934 0.9756 0.1035
vn -0.1955 0.9752 0.1034
vn 0.1953 -0.7534 -0.6279
vn -0.1936 -0.7538 -0.6280
vn 0.1934 0.9608 0.1986
vn -0.1955 0.9604 0.1985
vn 0.1953 -0.6882 -0.6988
vn -0.1936 -0.6886 -0.6988
vn 0.1934 0.9367 0.2918
vn -0.1954 0.9363 0.2917
vn 0.1952 -0.6164 -0.7629
vn -0.1937 -0.6168 -0.7629
vn 0.1934 0.9036 0.3822
vn -0.1954 0.9032 0.3821
vn 0.1951 -0.5386 -0.8196
vn -0.1937 -0.5390 -0.8197
vn 0.1935 0.8618 0.4689
vn -0.1954 0.8614 0.4688
vn 0.1951 -0.4557 -0.8685
vn -0.1938 -0.4561 -0.8686
vn 0.1935 0.8117 0.5511
vn -0.1954 0.8113 0.5510
vn 0.1950 -0.3684 -0.9090
vn -0.1939 -0.3688 -0.9091
vn 0.1945 -0.1984 0.9606
vn -0.1944 -0.1988 0.9606
vn 0.1935 0.7538 0.6280
vn -0.1953 0.7534 0.6279
vn 0.1949 -0.2775 -0.9408
vn -0.1940 -0.2779 -0.9408
vn 0.1945 -0.2916 0.9366
vn -0.1943 -0.2920 0.9365
vn 0.1936 0.6886 0.6988
vn -0.1953 0.6882 0.6988
vn 0.1948 -0.1840 -0.9634
vn -0.1941 -0.1843 -0.9635
vn 0.1947 -0.3820 0.9034
vn -0.1942 -0.3824 0.9034
vn 0.1937 0.6168 0.7629
vn -0.1952 0.6164 0.7629
vn 0.1947 -0.0886 -0.9768
vn -0.1942 -0.0890 -0.9769
vn 0.1948 -0.4687 0.8616
vn -0.1941 -0.4691 0.8616
vn 0.1937 0.5390 0.8197
vn -0.1951 0.5386 0.8196
vn 0.1946 0.0076 -0.9809
vn -0.1943 0.0072 -0.9809
vn 0.1948 -0.5509 0.8115
vn -0.1940 -0.5513 0.8115
vn 0.1938 0.4561 0.8686
vn -0.1951 0.4557 0.8685
vn 0.1945 0.1037 -0.9754
vn -0.1944 0.1033 -0.9755
vn 0.1949 -0.6278 0.7536
vn -0.1939 -0.6282 0.7535
vn 0.1939 0.3688 0.9091
vn -0.1950 0.3684 0.9090
vn 0.1944 0.1988 -0.9606
vn -0.1945 0.1984 -0.9606
vn 0.1950 -0.6986 0.6884
vn -0.1939 -0.6990 0.6884
vn 0.1940 0.2779 0.9408
vn -0.1949 0.2775 0.9408
vn 0.1943 0.2920 -0.9365
vn -0.1945 0.2916 -0.9366
vn 0.1951 -0.7627 0.6166
vn -0.1938 -0.7631 0.6165
vn 0.9814 0.1889 -0.0357
vn 0.9813 0.1915 -0.0171
vn 0.9817 -0.1751 -0.0743
vn 0.9817 -0.1670 -0.0912
vn 0.9813 0.1923 0.0016
vn 0.9817 -0.1572 -0.1073
vn 0.9813 0.1912 0.0204
vn 0.9817 -0.1459 -0.1223
vn 0.9813 0.1883 0.0389
vn 0.9817 -0.1332 -0.1361
vn 0.9813 0.1836 0.0571
vn 0.9817 -0.1192 -0.1486
vn 0.9813 0.1772 0.0747
vn 0.9817 -0.1041 -0.1596
vn 0.9813 0.1690 0.0916
vn 0.9817 -0.0879 -0.1692
vn 0.9814 0.1592 0.1076
vn 0.9816 -0.0709 -0.1771
vn 0.9815 -0.0377 0.1875
vn 0.9814 0.1479 0.1226
vn 0.9816 -0.0531 -0.1833
vn 0.9816 -0.0559 0.1828
vn 0.9814 0.1352 0.1364
vn 0.9816 -0.0349 -0.1877
vn 0.9816 -0.0735 0.1763
vn 0.9814 0.1212 0.1489
vn 0.9816 -0.0163 -0.1903
vn 0.9816 -0.0904 0.1682
vn 0.9814 0.1061 0.1600
vn 0.9816 0.0024 -0.1911
vn 0.9816 -0.1064 0.1584
vn 0.9814 0.0899 0.1695
vn 0.9816 0.0212 -0.1900
vn 0.9816 -0.1214 0.1471
vn 0.9814 0.0729 0.1774
vn 0.9815 0.0397 -0.1871
vn 0.9817 -0.1352 0.1344
vn 0.9814 0.0552 0.1836
vn 0.9815 0.0579 -0.1824
vn 0.9817 -0.1477 0.1204
vn 0.9815 0.0369 0.1880
vn 0.9815 0.0755 -0.1760
vn 0.9817 -0.1588 0.1052
vn 0.9815 0.0183 0.1907
vn 0.9815 0.0924 -0.1678
vn 0.9817 -0.1683 0.0891
vn 0.9815 0.1085 -0.1580
vn 0.9817 -0.1762 0.0720
vn 0.9814 0.1234 -0.1467
vn 0.9817 -0.1824 0.0543
vn 0.9814 0.1373 -0.1340
vn 0.9817 -0.1869 0.0361
vn 0.9814 0.1498 -0.1200
vn 0.9817 -0.1895 0.0175
vn 0.9814 0.1608 -0.1049
vn 0.9817 -0.1902 -0.0012
vn 0.9814 0.1704 -0.0887
vn 0.9817 -0.1892 -0.0200
vn 0.9814 0.1783 -0.0717
vn 0.9817 -0.1863 -0.0385
vn 0.9814 0.1844 -0.0540
vn 0.9817 -0.1816 -0.0567
vn -0.9816 0.0559 -0.1828
vn -0.9816 0.0735 -0.1763
vn -0.9816 0.0531 0.1832
vn -0.9816 0.0349 0.1877
vn -0.9814 -0.1690 -0.0916
vn -0.9814 -0.1592 -0.1076
vn -0.9815 0.0377 -0.1875
vn -0.9816 0.0709 0.1771
vn -0.9814 -0.1479 -0.1226
vn -0.9814 -0.1352 -0.1364
vn -0.9817 0.0879 0.1692
vn -0.9817 0.1041 0.1596
vn -0.9813 -0.1883 -0.0389
vn -0.9817 0.1192 0.1486
vn -0.9817 0.1332 0.1361
vn -0.9817 0.1459 0.1223
vn -0.9813 -0.1912 -0.0204
vn -0.9817 0.1572 0.1073
vn -0.9813 -0.1923 -0.0016
vn -0.9817 0.1670 0.0912
vn -0.9813 -0.1915 0.0171
vn -0.9817 0.1902 0.0013
vn -0.9817 0.1892 0.0200
vn -0.9814 -0.1889 0.0357
vn -0.9817 0.1816 0.0567
vn -0.9817 0.1751 0.0743
vn -0.9814 -0.1844 0.0540
vn -0.9814 -0.1782 0.0717
vn -0.9817 0.1863 0.0385
vn -0.9814 -0.1704 0.0887
vn -0.9814 -0.1608 0.1049
vn -0.9817 0.1895 -0.0175
vn -0.9814 -0.1498 0.1200
vn -0.9817 0.1869 -0.0361
vn -0.9814 -0.1373 0.1340
vn -0.9817 0.1824 -0.0543
vn -0.9814 -0.1234 0.1467
vn -0.9817 0.1588 -0.1052
vn -0.9817 0.1683 -0.0891
vn -0.9815 -0.1085 0.1580
vn -0.9815 0.0004 -0.1914
vn -0.9815 0.0192 -0.1904
vn -0.9817 0.1762 -0.0721
vn -0.9815 -0.0924 0.1678
vn -0.9815 -0.0183 -0.1907
vn -0.9815 -0.0755 0.1760
vn -0.9814 -0.0729 -0.1774
vn -0.9815 -0.0552 -0.1836
vn -0.9817 0.1477 -0.1204
vn -0.9815 -0.0579 0.1824
vn -0.9815 -0.0369 -0.1880
vn -0.9817 0.1352 -0.1344
vn -0.9815 -0.0397 0.1871
vn -0.9816 0.1214 -0.1471
vn -0.9816 -0.0212 0.1900
vn -0.9814 -0.0899 -0.1695
vn -0.9816 0.0904 -0.1682
vn -0.9816 -0.0024 0.1911
vn -0.9814 -0.1061 -0.1600
vn -0.9816 0.1064 -0.1584
vn -0.9816 0.0163 0.1903
vn -0.9814 -0.1212 -0.1489
vn 0.9239 -0.0019 0.3827
vn 0.9239 -0.0394 0.3806
vn 0.3836 -0.0970 0.9184
vn 0.3835 -0.0065 0.9235
vn 0.9240 -0.0765 0.3748
vn 0.3836 -0.1866 0.9044
vn 0.9240 -0.1128 0.3654
vn 0.3837 -0.2743 0.8818
vn 0.9240 -0.1481 0.3525
vn 0.3839 -0.3594 0.8506
vn 0.9241 -0.1819 0.3362
vn 0.3840 -0.4410 0.8112
vn 0.9241 -0.2140 0.3166
vn 0.3840 -0.5184 0.7641
vn 0.9241 -0.2439 0.2940
vn 0.3841 -0.5908 0.7095
vn 0.9242 -0.2716 0.2686
vn 0.3842 -0.6575 0.6482
vn 0.9242 -0.2965 0.2406
vn 0.3842 -0.7178 0.5806
vn 0.9242 -0.3187 0.2103
vn 0.3843 -0.7713 0.5074
vn 0.9243 -0.3377 0.1780
vn 0.3844 -0.8173 0.4293
vn 0.9243 -0.3535 0.1439
vn 0.3845 -0.8554 0.3471
vn 0.9243 -0.3659 0.1085
vn 0.3845 -0.8853 0.2615
vn 0.9243 -0.3748 0.0720
vn 0.3845 -0.9067 0.1734
vn 0.9243 -0.3800 0.0348
vn 0.3846 -0.9193 0.0837
vn 0.9243 -0.3816 -0.0027
vn 0.3846 -0.9231 -0.0069
vn 0.9243 -0.3794 -0.0402
vn 0.3846 -0.9179 -0.0973
vn 0.9243 -0.3736 -0.0773
vn 0.3846 -0.9040 -0.1869
vn 0.9243 -0.3642 -0.1136
vn 0.3846 -0.8813 -0.2746
vn 0.9243 -0.3513 -0.1489
vn 0.3846 -0.8501 -0.3597
vn 0.9243 -0.3350 -0.1827
vn 0.3845 -0.8108 -0.4414
vn 0.9243 -0.3155 -0.2147
vn 0.3845 -0.7636 -0.5187
vn 0.9243 -0.2929 -0.2447
vn 0.3845 -0.7091 -0.5911
vn 0.9243 -0.2675 -0.2723
vn 0.3844 -0.6477 -0.6578
vn 0.9242 -0.2395 -0.2973
vn 0.3844 -0.5801 -0.7182
vn 0.9242 -0.2092 -0.3195
vn 0.3843 -0.5069 -0.7716
vn 0.9242 -0.1768 -0.3385
vn 0.3842 -0.4288 -0.8176
vn 0.9242 -0.1428 -0.3543
vn 0.3841 -0.3466 -0.8557
vn 0.9241 -0.1073 -0.3667
vn 0.3841 -0.2610 -0.8856
vn 0.9241 -0.0709 -0.3756
vn 0.3840 -0.1730 -0.9070
vn 0.9241 -0.0337 -0.3808
vn 0.3839 -0.0832 -0.9196
vn 0.9240 0.0038 -0.3823
vn 0.3838 0.0073 -0.9234
vn 0.9240 0.0413 -0.3802
vn 0.3837 0.0978 -0.9183
vn 0.9239 0.0784 -0.3744
vn 0.3836 0.1873 -0.9043
vn 0.9239 0.1147 -0.3650
vn 0.3835 0.2751 -0.8816
vn 0.9239 0.1500 -0.3521
vn 0.3834 0.3602 -0.8504
vn 0.9238 0.1838 -0.3358
vn 0.3833 0.4418 -0.8111
vn 0.9238 0.2159 -0.3163
vn 0.3832 0.5192 -0.7639
vn 0.9237 0.2458 -0.2937
vn 0.3831 0.5916 -0.7094
vn 0.9237 0.2734 -0.2683
vn 0.3831 0.6583 -0.6480
vn 0.9237 0.2985 -0.2403
vn 0.3830 0.7186 -0.5804
vn 0.9237 0.3206 -0.2100
vn 0.3829 0.7721 -0.5072
vn 0.9236 0.3396 -0.1776
vn 0.3829 0.8181 -0.4291
vn 0.9236 0.3554 -0.1436
vn 0.3828 0.8562 -0.3469
vn 0.9236 0.3678 -0.1081
vn 0.3828 0.8861 -0.2614
vn 0.9236 0.3767 -0.0716
vn 0.3827 0.9075 -0.1733
vn 0.9236 0.3819 -0.0345
vn 0.3827 0.9201 -0.0835
vn 0.9236 0.3835 0.0030
vn 0.3827 0.9239 0.0070
vn 0.9235 0.3813 0.0405
vn 0.3827 0.9187 0.0975
vn 0.9235 0.3755 0.0776
vn 0.3827 0.9048 0.1870
vn 0.9235 0.3662 0.1140
vn 0.3827 0.8821 0.2748
vn 0.9236 0.3532 0.1492
vn 0.3827 0.8509 0.3599
vn 0.9236 0.3369 0.1830
vn 0.3827 0.8115 0.4415
vn 0.9236 0.3174 0.2151
vn 0.3827 0.7644 0.5189
vn 0.9236 0.2948 0.2450
vn 0.3828 0.7098 0.5913
vn 0.9236 0.2694 0.2727
vn 0.3828 0.6485 0.6580
vn 0.9236 0.2414 0.2977
vn 0.3829 0.5809 0.7183
vn 0.9237 0.2111 0.3198
vn 0.3830 0.5077 0.7718
vn 0.9237 0.1787 0.3389
vn 0.3831 0.4296 0.8177
vn 0.9237 0.1447 0.3547
vn 0.3831 0.3474 0.8559
vn 0.9238 0.1092 0.3671
vn 0.3832 0.2618 0.8858
vn 0.9238 0.0728 0.3759
vn 0.3833 0.1738 0.9071
vn 0.9238 0.0356 0.3811
vn 0.3834 0.0840 0.9198
vn -0.3826 -0.9048 -0.1870
vn -0.3827 -0.8821 -0.2748
vn -0.9236 -0.3662 -0.1140
vn -0.9235 -0.3755 -0.0776
vn -0.3827 -0.8116 -0.4415
vn -0.3827 -0.7644 -0.5189
vn -0.9236 -0.3174 -0.2151
vn -0.9236 -0.3369 -0.1830
vn -0.3828 -0.7098 -0.5913
vn -0.9236 -0.2948 -0.2450
vn -0.3829 -0.6485 -0.6579
vn -0.9236 -0.2694 -0.2727
vn -0.3829 -0.5809 -0.7183
vn -0.9236 -0.2414 -0.2977
vn -0.3830 -0.5077 -0.7717
vn -0.9237 -0.2111 -0.3198
vn -0.3831 -0.3474 -0.8559
vn -0.3832 -0.2618 -0.8858
vn -0.9238 -0.1092 -0.3670
vn -0.9237 -0.1447 -0.3547
vn -0.3833 -0.1738 -0.9071
vn -0.9238 -0.0728 -0.3759
vn -0.3834 -0.0840 -0.9198
vn -0.9238 -0.0356 -0.3811
vn -0.3835 0.0065 -0.9235
vn -0.9239 0.0019 -0.3827
vn -0.3836 0.0970 -0.9184
vn -0.9239 0.0394 -0.3806
vn -0.3837 0.1866 -0.9044
vn -0.9240 0.0765 -0.3748
vn -0.3838 0.3594 -0.8506
vn -0.3840 0.4410 -0.8112
vn -0.9241 0.1819 -0.3362
vn -0.9240 0.1481 -0.3525
vn -0.3841 0.5184 -0.7640
vn -0.9241 0.2139 -0.3166
vn -0.3841 0.5908 -0.7095
vn -0.9241 0.2439 -0.2940
vn -0.3842 0.6575 -0.6482
vn -0.9242 0.2716 -0.2686
vn -0.3843 0.7713 -0.5074
vn -0.3844 0.8173 -0.4293
vn -0.9243 0.3378 -0.1780
vn -0.9242 0.3187 -0.2103
vn -0.3844 0.8554 -0.3471
vn -0.9243 0.3536 -0.1439
vn -0.3846 0.9040 0.1869
vn -0.3846 0.8813 0.2746
vn -0.9243 0.3643 0.1136
vn -0.9243 0.3736 0.0773
vn -0.3846 0.9179 0.0973
vn -0.9243 0.3794 0.0402
vn -0.3845 0.9067 -0.1734
vn -0.3846 0.9193 -0.0837
vn -0.9243 0.3800 -0.0348
vn -0.9243 0.3748 -0.0720
vn -0.3845 0.8853 -0.2615
vn -0.9243 0.3659 -0.1085
vn -0.3843 0.7178 -0.5806
vn -0.9242 0.2966 -0.2406
vn -0.3837 0.2743 -0.8818
vn -0.9240 0.1128 -0.3654
vn -0.3831 -0.4296 -0.8177
vn -0.9237 -0.1787 -0.3389
vn -0.3827 -0.8509 -0.3599
vn -0.9236 -0.3532 -0.1492
vn -0.3827 -0.9187 -0.0975
vn -0.9236 -0.3813 -0.0405
vn -0.9243 0.3816 0.0027
vn -0.3846 0.9231 0.0069
vn -0.9243 0.3513 0.1489
vn -0.3846 0.8501 0.3597
vn -0.9243 0.3350 0.1827
vn -0.3845 0.8108 0.4414
vn -0.9243 0.3155 0.2147
vn -0.3845 0.7636 0.5187
vn -0.9243 0.2929 0.2447
vn -0.3845 0.7090 0.5911
vn -0.9243 0.2675 0.2723
vn -0.3845 0.6477 0.6578
vn -0.9243 0.2395 0.2973
vn -0.3844 0.5801 0.7182
vn -0.9242 0.2092 0.3195
vn -0.3843 0.5069 0.7716
vn -0.9242 0.1768 0.3385
vn -0.3843 0.4288 0.8176
vn -0.9242 0.1428 0.3543
vn -0.3842 0.3466 0.8557
vn -0.9241 0.1073 0.3667
vn -0.3841 0.2610 0.8856
vn -0.9241 0.0709 0.3755
vn -0.3840 0.1730 0.9070
vn -0.9241 0.0337 0.3808
vn -0.3839 0.0832 0.9196
vn -0.9240 -0.0038 0.3823
vn -0.3838 -0.0073 0.9234
vn -0.9240 -0.0413 0.3802
vn -0.3837 -0.0978 0.9183
vn -0.9239 -0.0784 0.3744
vn -0.3836 -0.1873 0.9043
vn -0.9239 -0.1147 0.3650
vn -0.3835 -0.2751 0.8816
vn -0.9239 -0.1500 0.3521
vn -0.3834 -0.3602 0.8504
vn -0.9238 -0.1838 0.3358
vn -0.3834 -0.4418 0.8111
vn -0.9238 -0.2159 0.3163
vn -0.3833 -0.5192 0.7639
vn -0.9238 -0.2458 0.2937
vn -0.3832 -0.5916 0.7094
vn -0.9237 -0.2734 0.2683
vn -0.3831 -0.6583 0.6480
vn -0.9237 -0.2985 0.2403
vn -0.3830 -0.7186 0.5804
vn -0.9237 -0.3206 0.2100
vn -0.3830 -0.7721 0.5072
vn -0.9236 -0.3396 0.1776
vn -0.3829 -0.8181 0.4291
vn -0.9236 -0.3554 0.1436
vn -0.3828 -0.8562 0.3469
vn -0.9236 -0.3678 0.1081
vn -0.3827 -0.8861 0.2614
vn -0.9236 -0.3767 0.0716
vn -0.3827 -0.9075 0.1733
vn -0.9236 -0.3819 0.0345
vn -0.3827 -0.9201 0.0836
vn -0.9236 -0.3835 -0.0030
vn -0.3827 -0.9238 -0.0070
vt 0.258614 0.534521
vt 0.743788 0.533559
vt 0.262165 0.976562
vt 0.498850 0.057422
vt 0.262221 0.983444
vt 0.262193 0.979998
vt 0.514294 0.057422
vt 0.239270 0.981961
vt 0.239565 0.975101
vt 0.239418 0.978526
vt 0.529737 0.057422
vt 0.216505 0.976169
vt 0.217150 0.969397
vt 0.216828 0.972778
vt 0.545180 0.057422
vt 0.194146 0.966123
vt 0.195133 0.959505
vt 0.194640 0.962809
vt 0.560624 0.057422
vt 0.172408 0.951920
vt 0.173728 0.945520
vt 0.173069 0.948715
vt 0.576067 0.057422
vt 0.151499 0.933698
vt 0.153141 0.927577
vt 0.152321 0.930633
vt 0.591511 0.057422
vt 0.131623 0.911632
vt 0.133569 0.905849
vt 0.132597 0.908736
vt 0.606954 0.057422
vt 0.112969 0.885934
vt 0.115201 0.880544
vt 0.114087 0.883235
vt 0.622397 0.057422
vt 0.095718 0.856851
vt 0.098215 0.851907
vt 0.096968 0.854375
vt 0.637841 0.057422
vt 0.080036 0.824664
vt 0.082773 0.820214
vt 0.081407 0.822436
vt 0.653284 0.057422
vt 0.066074 0.789683
vt 0.069025 0.785769
vt 0.067551 0.787723
vt 0.668728 0.057422
vt 0.053966 0.752245
vt 0.057103 0.748905
vt 0.055536 0.750572
vt 0.684171 0.057422
vt 0.043828 0.712710
vt 0.047121 0.709976
vt 0.045477 0.711340
vt 0.699614 0.057422
vt 0.035760 0.671459
vt 0.039176 0.669357
vt 0.037470 0.670406
vt 0.715058 0.057422
vt 0.029837 0.628889
vt 0.033344 0.627440
vt 0.031593 0.628163
vt 0.730501 0.057422
vt 0.026118 0.585410
vt 0.029682 0.584627
vt 0.027903 0.585018
vt 0.745944 0.057422
vt 0.024638 0.541441
vt 0.028225 0.541333
vt 0.026434 0.541386
vt 0.761388 0.057422
vt 0.025411 0.497406
vt 0.028986 0.497972
vt 0.027201 0.497689
vt 0.776831 0.057422
vt 0.028430 0.453728
vt 0.031959 0.454964
vt 0.030197 0.454346
vt 0.792274 0.057422
vt 0.033666 0.410828
vt 0.037115 0.412722
vt 0.035393 0.411776
vt 0.807718 0.057422
vt 0.041068 0.369119
vt 0.044404 0.371652
vt 0.042738 0.370387
vt 0.823161 0.057422
vt 0.050565 0.329003
vt 0.053755 0.332152
vt 0.052163 0.330579
vt 0.838605 0.057422
vt 0.062066 0.290867
vt 0.065080 0.294600
vt 0.063575 0.292736
vt 0.854048 0.057422
vt 0.075460 0.255076
vt 0.078269 0.259359
vt 0.076866 0.257220
vt 0.869492 0.057422
vt 0.090617 0.221978
vt 0.093194 0.226767
vt 0.091908 0.224376
vt 0.884935 0.057422
vt 0.107393 0.191889
vt 0.109712 0.197140
vt 0.108555 0.194518
vt 0.900378 0.057422
vt 0.125625 0.165100
vt 0.127665 0.170762
vt 0.126647 0.167935
vt 0.915822 0.057422
vt 0.145137 0.141868
vt 0.146878 0.147887
vt 0.146009 0.144882
vt 0.931265 0.057422
vt 0.165743 0.122418
vt 0.167168 0.128735
vt 0.166457 0.125581
vt 0.946709 0.057422
vt 0.187243 0.106937
vt 0.188339 0.113491
vt 0.187792 0.110219
vt 0.962152 0.057422
vt 0.209430 0.095573
vt 0.210185 0.102303
vt 0.209809 0.098943
vt 0.977595 0.057422
vt 0.232091 0.088437
vt 0.232499 0.095276
vt 0.232296 0.091862
vt 0.993038 0.057422
vt 0.004662 0.057422
vt 0.255007 0.085597
vt 0.255064 0.092480
vt 0.255036 0.089044
vt 0.020105 0.057422
vt 0.277958 0.087081
vt 0.277663 0.093941
vt 0.277811 0.090516
vt 0.035549 0.057422
vt 0.300723 0.092873
vt 0.300079 0.099645
vt 0.300401 0.096264
vt 0.050992 0.057422
vt 0.323082 0.102919
vt 0.322095 0.109537
vt 0.322588 0.106233
vt 0.066435 0.057422
vt 0.344821 0.117121
vt 0.343500 0.123522
vt 0.344160 0.120326
vt 0.081879 0.057422
vt 0.365729 0.135343
vt 0.364088 0.141465
vt 0.364908 0.138409
vt 0.097322 0.057422
vt 0.385606 0.157410
vt 0.383660 0.163193
vt 0.384631 0.160306
vt 0.112766 0.057422
vt 0.404259 0.183108
vt 0.402027 0.188497
vt 0.403142 0.185807
vt 0.128209 0.057422
vt 0.421510 0.212190
vt 0.419014 0.217134
vt 0.420260 0.214666
vt 0.143652 0.057422
vt 0.437192 0.244377
vt 0.434455 0.248827
vt 0.435822 0.246606
vt 0.159096 0.057422
vt 0.451155 0.279358
vt 0.448204 0.283272
vt 0.449677 0.281318
vt 0.174539 0.057422
vt 0.463263 0.316796
vt 0.460126 0.320137
vt 0.461692 0.318469
vt 0.189982 0.057422
vt 0.473400 0.356331
vt 0.470108 0.359066
vt 0.471752 0.357701
vt 0.205426 0.057422
vt 0.481469 0.397583
vt 0.478053 0.399685
vt 0.479758 0.398636
vt 0.220869 0.057422
vt 0.487391 0.440153
vt 0.483884 0.441602
vt 0.485635 0.440879
vt 0.236313 0.057422
vt 0.491111 0.483631
vt 0.487546 0.484414
vt 0.489326 0.484024
vt 0.251756 0.057422
vt 0.492591 0.527600
vt 0.489003 0.527709
vt 0.490795 0.527655
vt 0.267200 0.057422
vt 0.491818 0.571636
vt 0.488242 0.571069
vt 0.490027 0.571353
vt 0.282643 0.057422
vt 0.488799 0.615314
vt 0.485269 0.614078
vt 0.487031 0.614695
vt 0.298086 0.057422
vt 0.483563 0.658214
vt 0.480114 0.656320
vt 0.481836 0.657266
vt 0.313529 0.057422
vt 0.476161 0.699923
vt 0.472825 0.697389
vt 0.474490 0.698655
vt 0.328973 0.057422
vt 0.466663 0.740039
vt 0.463473 0.736890
vt 0.465066 0.738462
vt 0.344416 0.057422
vt 0.455162 0.778175
vt 0.452148 0.774442
vt 0.453653 0.776306
vt 0.359860 0.057422
vt 0.441769 0.813965
vt 0.438960 0.809683
vt 0.440362 0.811821
vt 0.375303 0.057422
vt 0.426611 0.847064
vt 0.424034 0.842274
vt 0.425321 0.844666
vt 0.390747 0.057422
vt 0.409836 0.877153
vt 0.407516 0.871902
vt 0.408674 0.874524
vt 0.406190 0.057422
vt 0.391604 0.903942
vt 0.389564 0.898280
vt 0.390582 0.901107
vt 0.421633 0.057422
vt 0.372091 0.927173
vt 0.370350 0.921155
vt 0.371219 0.924160
vt 0.437076 0.057422
vt 0.351486 0.946624
vt 0.350060 0.940307
vt 0.350772 0.943461
vt 0.452520 0.057422
vt 0.329986 0.962105
vt 0.328890 0.955550
vt 0.329437 0.958823
vt 0.467963 0.057422
vt 0.307798 0.973468
vt 0.307043 0.966739
vt 0.307420 0.970099
vt 0.483407 0.057422
vt 0.285137 0.980604
vt 0.284729 0.973765
vt 0.284933 0.977180
vt 0.776831 0.010045
vt 0.972664 0.452564
vt 0.969155 0.453808
vt 0.970907 0.453187
vt 0.963996 0.411809
vt 0.792275 0.010045
vt 0.967424 0.409910
vt 0.965707 0.410861
vt 0.823161 0.010045
vt 0.950554 0.328576
vt 0.947385 0.331721
vt 0.948967 0.330151
vt 0.936093 0.294404
vt 0.838605 0.010045
vt 0.939087 0.290678
vt 0.937588 0.292544
vt 0.922950 0.259390
vt 0.854048 0.010045
vt 0.925738 0.255120
vt 0.924342 0.257258
vt 0.908081 0.227017
vt 0.869492 0.010045
vt 0.910638 0.222242
vt 0.909358 0.224633
vt 0.891630 0.197595
vt 0.884935 0.010045
vt 0.893930 0.192363
vt 0.892779 0.194983
vt 0.873755 0.171410
vt 0.900378 0.010045
vt 0.875777 0.165769
vt 0.874765 0.168594
vt 0.931265 0.010045
vt 0.835844 0.123431
vt 0.834434 0.129720
vt 0.835138 0.126580
vt 0.813367 0.114617
vt 0.946709 0.010045
vt 0.814449 0.108094
vt 0.813907 0.111361
vt 0.791630 0.103549
vt 0.962152 0.010045
vt 0.792373 0.096853
vt 0.792001 0.100206
vt 0.769432 0.096623
vt 0.977595 0.010045
vt 0.769830 0.089819
vt 0.769631 0.093226
vt 0.746987 0.093904
vt 0.993038 0.010045
vt 0.004662 0.010045
vt 0.747036 0.087058
vt 0.747012 0.090486
vt 0.724512 0.095419
vt 0.020105 0.010045
vt 0.724210 0.088598
vt 0.724361 0.092014
vt 0.702222 0.101154
vt 0.035549 0.010045
vt 0.701573 0.094422
vt 0.701898 0.097792
vt 0.066435 0.010045
vt 0.657733 0.118662
vt 0.659053 0.125021
vt 0.658394 0.121846
vt 0.638591 0.142924
vt 0.081879 0.010045
vt 0.636952 0.136843
vt 0.637773 0.139888
vt 0.619141 0.164588
vt 0.097322 0.010045
vt 0.617199 0.158845
vt 0.618172 0.161720
vt 0.600892 0.189806
vt 0.112766 0.010045
vt 0.598666 0.184456
vt 0.599781 0.187135
vt 0.584020 0.218335
vt 0.128209 0.010045
vt 0.581531 0.213429
vt 0.582777 0.215885
vt 0.159096 0.010045
vt 0.552098 0.280315
vt 0.555037 0.284195
vt 0.553570 0.282257
vt 0.543207 0.320893
vt 0.174539 0.010045
vt 0.540084 0.317584
vt 0.541648 0.319240
vt 0.533309 0.359638
vt 0.189982 0.010045
vt 0.530031 0.356933
vt 0.531673 0.358287
vt 0.220869 0.010045
vt 0.516179 0.440339
vt 0.519669 0.441766
vt 0.517927 0.441053
vt 0.282643 0.010045
vt 0.514912 0.614555
vt 0.518420 0.613311
vt 0.516669 0.613931
vt 0.050992 0.010045
vt 0.679343 0.104476
vt 0.680332 0.111053
vt 0.679838 0.107769
vt 0.143652 0.010045
vt 0.565958 0.245485
vt 0.568685 0.249899
vt 0.567324 0.247694
vt 0.205426 0.010045
vt 0.522037 0.397983
vt 0.525437 0.400059
vt 0.523740 0.399022
vt 0.516059 0.484356
vt 0.236313 0.010045
vt 0.512513 0.483592
vt 0.514288 0.483974
vt 0.514642 0.527420
vt 0.251756 0.010045
vt 0.511074 0.527327
vt 0.512860 0.527373
vt 0.267200 0.010045
vt 0.511876 0.571122
vt 0.515431 0.570544
vt 0.513656 0.570832
vt 0.523580 0.655310
vt 0.298086 0.010045
vt 0.520151 0.657207
vt 0.521868 0.656257
vt 0.530860 0.696136
vt 0.313529 0.010045
vt 0.527545 0.698670
vt 0.529205 0.697401
vt 0.540191 0.735397
vt 0.328973 0.010045
vt 0.537021 0.738542
vt 0.538608 0.736967
vt 0.551482 0.772714
vt 0.344416 0.010045
vt 0.548489 0.776440
vt 0.549987 0.774574
vt 0.564626 0.807728
vt 0.359860 0.010045
vt 0.561837 0.811999
vt 0.563233 0.809860
vt 0.579494 0.840101
vt 0.375303 0.010045
vt 0.576937 0.844876
vt 0.578218 0.842485
vt 0.595945 0.869522
vt 0.390747 0.010045
vt 0.593645 0.874756
vt 0.594797 0.872135
vt 0.613821 0.895709
vt 0.406190 0.010045
vt 0.611798 0.901349
vt 0.612811 0.898524
vt 0.632947 0.918406
vt 0.421633 0.010045
vt 0.631222 0.924399
vt 0.632086 0.921399
vt 0.653141 0.937398
vt 0.437076 0.010045
vt 0.651731 0.943687
vt 0.652437 0.940538
vt 0.674208 0.952501
vt 0.452520 0.010045
vt 0.673126 0.959025
vt 0.673668 0.955758
vt 0.695945 0.963570
vt 0.467963 0.010045
vt 0.695202 0.970265
vt 0.695574 0.966912
vt 0.718143 0.970496
vt 0.483407 0.010045
vt 0.717745 0.977299
vt 0.717944 0.973892
vt 0.740588 0.973215
vt 0.498850 0.010045
vt 0.740540 0.980060
vt 0.740564 0.976632
vt 0.763064 0.971699
vt 0.514294 0.010045
vt 0.763365 0.978521
vt 0.763214 0.975105
vt 0.785354 0.965964
vt 0.529737 0.010045
vt 0.786002 0.972696
vt 0.785677 0.969326
vt 0.807243 0.956065
vt 0.545180 0.010045
vt 0.808233 0.962643
vt 0.807737 0.959349
vt 0.828522 0.942097
vt 0.560624 0.010045
vt 0.829843 0.948457
vt 0.829181 0.945272
vt 0.848984 0.924194
vt 0.576067 0.010045
vt 0.850624 0.930275
vt 0.849803 0.927231
vt 0.868434 0.902530
vt 0.591511 0.010045
vt 0.870376 0.908273
vt 0.869403 0.905398
vt 0.886683 0.877312
vt 0.606954 0.010045
vt 0.888909 0.882662
vt 0.887794 0.879984
vt 0.903556 0.848783
vt 0.622397 0.010045
vt 0.906044 0.853690
vt 0.904798 0.851233
vt 0.918890 0.817219
vt 0.637841 0.010045
vt 0.921617 0.821633
vt 0.920252 0.819424
vt 0.932538 0.782923
vt 0.653284 0.010045
vt 0.935478 0.786803
vt 0.934005 0.784861
vt 0.944368 0.746226
vt 0.668728 0.010045
vt 0.947492 0.749534
vt 0.945928 0.747878
vt 0.954266 0.707480
vt 0.684171 0.010045
vt 0.957544 0.710185
vt 0.955903 0.708831
vt 0.962138 0.667059
vt 0.699614 0.010045
vt 0.965538 0.669135
vt 0.963835 0.668096
vt 0.967906 0.625353
vt 0.715058 0.010045
vt 0.971396 0.626779
vt 0.969649 0.626065
vt 0.971517 0.582762
vt 0.730501 0.010045
vt 0.975062 0.583526
vt 0.973287 0.583144
vt 0.972934 0.539698
vt 0.745944 0.010045
vt 0.976501 0.539791
vt 0.974715 0.539745
vt 0.761388 0.010045
vt 0.975699 0.495996
vt 0.972144 0.496575
vt 0.973919 0.496286
vt 0.807718 0.010045
vt 0.960030 0.368448
vt 0.956715 0.370982
vt 0.958370 0.369717
vt 0.915822 0.010045
vt 0.856353 0.142718
vt 0.854628 0.148712
vt 0.855489 0.145720
s 1
usemtl 1_Santim
f 3/3/1 7/9/2 1/1/3
f 198/264/4 2/2/5 382/511/6
f 6/7/7 4/4/8 328/438/9 331/442/10
f 192/256/11 189/252/12 322/430/13 325/434/14
f 114/152/15 111/148/16 240/321/17 244/326/18
f 36/47/19 33/43/20 358/478/21 361/482/22
f 117/156/23 114/152/15 244/326/18 247/330/24
f 39/51/25 36/47/19 361/482/22 364/486/26
f 120/160/27 117/156/23 247/330/24 250/334/28
f 42/55/29 39/51/25 364/486/26 367/490/30
f 123/164/31 120/160/27 250/334/28 253/338/32
f 45/59/33 42/55/29 367/490/30 370/494/34
f 126/168/35 123/164/31 253/338/32 273/365/36
f 48/63/37 45/59/33 370/494/34 373/498/38
f 129/172/39 126/168/35 273/365/36 255/341/40
f 51/67/41 48/63/37 373/498/38 376/502/42
f 132/176/43 129/172/39 255/341/40 259/346/44
f 54/71/45 51/67/41 376/502/42 378/505/46
f 135/180/47 132/176/43 259/346/44 262/350/48
f 57/75/49 54/71/45 378/505/46 195/260/50
f 138/184/51 135/180/47 262/350/48 276/369/52
f 60/79/53 57/75/49 195/260/50 199/265/54
f 141/188/55 138/184/51 276/369/52 264/353/56
f 63/83/57 60/79/53 199/265/54 381/509/58
f 144/192/59 141/188/55 264/353/56 280/374/60
f 66/87/61 63/83/57 381/509/58 201/268/62
f 147/196/63 144/192/59 280/374/60 283/378/64
f 69/91/65 66/87/61 201/268/62 205/273/66
f 150/200/67 147/196/63 283/378/64 285/381/68
f 72/95/69 69/91/65 205/273/66 208/277/70
f 153/204/71 150/200/67 285/381/68 267/357/72
f 75/99/73 72/95/69 208/277/70 211/281/74
f 156/208/75 153/204/71 267/357/72 289/386/76
f 78/103/77 75/99/73 211/281/74 214/285/78
f 159/212/79 156/208/75 289/386/76 292/390/80
f 81/107/81 78/103/77 214/285/78 217/289/82
f 162/216/83 159/212/79 292/390/80 295/394/84
f 84/111/85 81/107/81 217/289/82 384/513/86
f 4/4/8 192/256/11 325/434/14 328/438/9
f 165/220/87 162/216/83 295/394/84 298/398/88
f 87/115/89 84/111/85 384/513/86 219/292/90
f 9/11/91 6/7/7 331/442/10 334/446/92
f 168/224/93 165/220/87 298/398/88 301/402/94
f 90/119/95 87/115/89 219/292/90 223/297/96
f 12/15/97 9/11/91 334/446/92 337/450/98
f 171/228/99 168/224/93 301/402/94 304/406/100
f 93/123/101 90/119/95 223/297/96 226/301/102
f 15/19/103 12/15/97 337/450/98 340/454/104
f 174/232/105 171/228/99 304/406/100 307/410/106
f 96/127/107 93/123/101 226/301/102 229/305/108
f 18/23/109 15/19/103 340/454/104 343/458/110
f 177/236/111 174/232/105 307/410/106 310/414/112
f 99/131/113 96/127/107 229/305/108 232/309/114
f 21/27/115 18/23/109 343/458/110 346/462/116
f 180/240/117 177/236/111 310/414/112 313/418/118
f 102/136/119 99/132/113 232/310/114 235/314/120
f 24/31/121 21/27/115 346/462/116 349/466/122
f 183/244/123 180/240/117 313/418/118 316/422/124
f 105/140/125 102/136/119 235/314/120 238/318/126
f 27/35/127 24/31/121 349/466/122 352/470/128
f 186/248/129 183/244/123 316/422/124 319/426/130
f 108/144/131 105/140/125 238/318/126 270/361/132
f 30/39/133 27/35/127 352/470/128 355/474/134
f 189/252/12 186/248/129 319/426/130 322/430/13
f 111/148/16 108/144/131 270/361/132 240/321/17
f 33/43/20 30/39/133 355/474/134 358/478/21
f 1/1/3 142/190/135 145/194/136
f 1/1/3 64/85/137 67/89/138
f 1/1/3 145/194/136 148/198/139
f 1/1/3 67/89/138 70/93/140
f 1/1/3 148/198/139 151/202/141
f 1/1/3 70/93/140 73/97/142
f 1/1/3 151/202/141 154/206/143
f 1/1/3 73/97/142 76/101/144
f 1/1/3 154/206/143 157/210/145
f 1/1/3 76/101/144 79/105/146
f 1/1/3 157/210/145 160/214/147
f 1/1/3 79/105/146 82/109/148
f 1/1/3 160/214/147 163/218/149
f 1/1/3 82/109/148 85/113/150
f 1/1/3 163/218/149 166/222/151
f 1/1/3 85/113/150 88/117/152
f 1/1/3 7/9/2 10/13/153
f 1/1/3 166/222/151 169/226/154
f 1/1/3 88/117/152 91/121/155
f 1/1/3 10/13/153 13/17/156
f 1/1/3 169/226/154 172/230/157
f 1/1/3 91/121/155 94/125/158
f 1/1/3 13/17/156 16/21/159
f 1/1/3 172/230/157 175/234/160
f 1/1/3 94/125/158 97/129/161
f 1/1/3 16/21/159 19/25/162
f 1/1/3 175/234/160 178/238/163
f 1/1/3 97/129/161 100/134/164
f 1/1/3 19/25/162 22/29/165
f 1/1/3 178/238/163 181/242/166
f 1/1/3 100/134/164 103/138/167
f 1/1/3 22/29/165 25/33/168
f 1/1/3 181/242/166 184/246/169
f 1/1/3 103/138/167 106/142/170
f 1/1/3 25/33/168 28/37/171
f 1/1/3 184/246/169 187/250/172
f 1/1/3 106/142/170 109/146/173
f 1/1/3 28/37/171 31/41/174
f 1/1/3 187/250/172 190/254/175
f 1/1/3 109/146/173 112/150/176
f 1/1/3 31/41/174 34/45/177
f 1/1/3 190/254/175 193/258/178
f 1/1/3 112/150/176 115/154/179
f 1/1/3 34/45/177 37/49/180
f 1/1/3 193/258/178 3/3/1
f 1/1/3 115/154/179 118/158/181
f 1/1/3 37/49/180 40/53/182
f 1/1/3 118/158/181 121/162/183
f 1/1/3 40/53/182 43/57/184
f 1/1/3 121/162/183 124/166/185
f 1/1/3 43/57/184 46/61/186
f 1/1/3 124/166/185 127/170/187
f 1/1/3 46/61/186 49/65/188
f 1/1/3 127/170/187 130/174/189
f 1/1/3 49/65/188 52/69/190
f 1/1/3 130/174/189 133/178/191
f 1/1/3 52/69/190 55/73/192
f 1/1/3 133/178/191 136/182/193
f 1/1/3 55/73/192 58/77/194
f 1/1/3 136/182/193 139/186/195
f 1/1/3 58/77/194 61/81/196
f 1/1/3 139/186/195 142/190/135
f 1/1/3 61/81/196 64/85/137
f 271/363/197 2/2/5 241/323/198
f 318/425/199 2/2/5 321/429/200
f 202/270/201 2/2/5 204/272/202
f 237/317/203 2/2/5 271/363/197
f 315/421/204 2/2/5 318/425/199
f 207/276/205 2/2/5 210/280/206
f 312/417/207 2/2/5 315/421/204
f 204/272/202 2/2/5 207/276/205
f 309/413/208 2/2/5 312/417/207
f 196/262/209 2/2/5 198/264/4
f 306/409/210 2/2/5 309/413/208
f 382/511/6 2/2/5 202/270/201
f 303/405/211 2/2/5 306/409/210
f 300/401/212 2/2/5 303/405/211
f 379/507/213 2/2/5 196/262/209
f 297/397/214 2/2/5 300/401/212
f 375/501/215 2/2/5 379/507/213
f 294/393/216 2/2/5 297/397/214
f 372/497/217 2/2/5 375/501/215
f 282/377/218 2/2/5 286/383/219
f 369/493/220 2/2/5 372/497/217
f 288/385/221 2/2/5 291/389/222
f 366/489/223 2/2/5 369/493/220
f 291/389/222 2/2/5 294/393/216
f 363/485/224 2/2/5 366/489/223
f 286/383/219 2/2/5 268/359/225
f 360/481/226 2/2/5 363/485/224
f 268/359/225 2/2/5 288/385/221
f 357/477/227 2/2/5 360/481/226
f 279/373/228 2/2/5 282/377/218
f 354/473/229 2/2/5 357/477/227
f 265/355/230 2/2/5 279/373/228
f 351/469/231 2/2/5 354/473/229
f 277/371/232 2/2/5 265/355/230
f 348/465/233 2/2/5 351/469/231
f 256/343/234 2/2/5 258/345/235
f 345/461/236 2/2/5 348/465/233
f 231/308/237 2/2/5 234/313/238
f 261/349/239 2/2/5 277/371/232
f 342/457/240 2/2/5 345/461/236
f 228/304/241 2/2/5 231/308/237
f 258/345/235 2/2/5 261/349/239
f 339/453/242 2/2/5 342/457/240
f 220/294/243 2/2/5 222/296/244
f 274/367/245 2/2/5 256/343/234
f 336/449/246 2/2/5 339/453/242
f 225/300/247 2/2/5 228/304/241
f 252/337/248 2/2/5 274/367/245
f 333/445/249 2/2/5 336/449/246
f 222/296/244 2/2/5 225/300/247
f 249/333/250 2/2/5 252/337/248
f 330/441/251 2/2/5 333/445/249
f 385/515/252 2/2/5 220/294/243
f 241/323/198 2/2/5 243/325/253
f 327/437/254 2/2/5 330/441/251
f 216/288/255 2/2/5 385/515/252
f 246/329/256 2/2/5 249/333/250
f 324/433/257 2/2/5 327/437/254
f 213/284/258 2/2/5 216/288/255
f 243/325/253 2/2/5 246/329/256
f 321/429/200 2/2/5 324/433/257
f 210/280/206 2/2/5 213/284/258
f 234/313/238 2/2/5 237/317/203
f 7/9/2 3/3/1 5/6/259 8/10/260
f 8/10/261 5/6/262 4/5/8 6/8/7
f 10/13/153 7/9/2 8/10/260 11/14/263
f 11/14/264 8/10/261 6/8/7 9/12/91
f 13/17/156 10/13/153 11/14/263 14/18/265
f 14/18/266 11/14/264 9/12/91 12/16/97
f 16/21/159 13/17/156 14/18/265 17/22/267
f 17/22/268 14/18/266 12/16/97 15/20/103
f 19/25/162 16/21/159 17/22/267 20/26/269
f 20/26/270 17/22/268 15/20/103 18/24/109
f 22/29/165 19/25/162 20/26/269 23/30/271
f 23/30/272 20/26/270 18/24/109 21/28/115
f 25/33/168 22/29/165 23/30/271 26/34/273
f 26/34/274 23/30/272 21/28/115 24/32/121
f 28/37/171 25/33/168 26/34/273 29/38/275
f 29/38/276 26/34/274 24/32/121 27/36/127
f 31/41/174 28/37/171 29/38/275 32/42/277
f 32/42/278 29/38/276 27/36/127 30/40/133
f 34/45/177 31/41/174 32/42/277 35/46/279
f 35/46/280 32/42/278 30/40/133 33/44/20
f 37/49/180 34/45/177 35/46/279 38/50/281
f 38/50/282 35/46/280 33/44/20 36/48/19
f 40/53/182 37/49/180 38/50/281 41/54/283
f 41/54/284 38/50/282 36/48/19 39/52/25
f 43/57/184 40/53/182 41/54/283 44/58/285
f 44/58/286 41/54/284 39/52/25 42/56/29
f 46/61/186 43/57/184 44/58/285 47/62/287
f 47/62/288 44/58/286 42/56/29 45/60/33
f 49/65/188 46/61/186 47/62/287 50/66/289
f 50/66/290 47/62/288 45/60/33 48/64/37
f 52/69/190 49/65/188 50/66/289 53/70/291
f 53/70/292 50/66/290 48/64/37 51/68/41
f 55/73/192 52/69/190 53/70/291 56/74/293
f 56/74/294 53/70/292 51/68/41 54/72/45
f 58/77/194 55/73/192 56/74/293 59/78/295
f 59/78/296 56/74/294 54/72/45 57/76/49
f 61/81/196 58/77/194 59/78/295 62/82/297
f 62/82/298 59/78/296 57/76/49 60/80/53
f 64/85/137 61/81/196 62/82/297 65/86/299
f 65/86/300 62/82/298 60/80/53 63/84/57
f 67/89/138 64/85/137 65/86/299 68/90/301
f 68/90/302 65/86/300 63/84/57 66/88/61
f 70/93/140 67/89/138 68/90/301 71/94/303
f 71/94/304 68/90/302 66/88/61 69/92/65
f 73/97/142 70/93/140 71/94/303 74/98/305
f 74/98/306 71/94/304 69/92/65 72/96/69
f 76/101/144 73/97/142 74/98/305 77/102/307
f 77/102/308 74/98/306 72/96/69 75/100/73
f 79/105/146 76/101/144 77/102/307 80/106/309
f 80/106/310 77/102/308 75/100/73 78/104/77
f 82/109/148 79/105/146 80/106/309 83/110/311
f 83/110/312 80/106/310 78/104/77 81/108/81
f 85/113/150 82/109/148 83/110/311 86/114/313
f 86/114/314 83/110/312 81/108/81 84/112/85
f 88/117/152 85/113/150 86/114/313 89/118/315
f 89/118/316 86/114/314 84/112/85 87/116/89
f 91/121/155 88/117/152 89/118/315 92/122/317
f 92/122/318 89/118/316 87/116/89 90/120/95
f 94/125/158 91/121/155 92/122/317 95/126/319
f 95/126/320 92/122/318 90/120/95 93/124/101
f 97/129/161 94/125/158 95/126/319 98/130/321
f 98/130/322 95/126/320 93/124/101 96/128/107
f 100/134/164 97/129/161 98/130/321 101/135/323
f 101/135/324 98/130/322 96/128/107 99/133/113
f 103/138/167 100/134/164 101/135/323 104/139/325
f 104/139/326 101/135/324 99/133/113 102/137/119
f 106/142/170 103/138/167 104/139/325 107/143/327
f 107/143/328 104/139/326 102/137/119 105/141/125
f 109/146/173 106/142/170 107/143/327 110/147/329
f 110/147/330 107/143/328 105/141/125 108/145/131
f 112/150/176 109/146/173 110/147/329 113/151/331
f 113/151/332 110/147/330 108/145/131 111/149/16
f 115/154/179 112/150/176 113/151/331 116/155/333
f 116/155/334 113/151/332 111/149/16 114/153/15
f 118/158/181 115/154/179 116/155/333 119/159/335
f 119/159/336 116/155/334 114/153/15 117/157/23
f 121/162/183 118/158/181 119/159/335 122/163/337
f 122/163/338 119/159/336 117/157/23 120/161/27
f 124/166/185 121/162/183 122/163/337 125/167/339
f 125/167/340 122/163/338 120/161/27 123/165/31
f 127/170/187 124/166/185 125/167/339 128/171/341
f 128/171/342 125/167/340 123/165/31 126/169/35
f 130/174/189 127/170/187 128/171/341 131/175/343
f 131/175/344 128/171/342 126/169/35 129/173/39
f 133/178/191 130/174/189 131/175/343 134/179/345
f 134/179/346 131/175/344 129/173/39 132/177/43
f 136/182/193 133/178/191 134/179/345 137/183/347
f 137/183/348 134/179/346 132/177/43 135/181/47
f 139/186/195 136/182/193 137/183/347 140/187/349
f 140/187/350 137/183/348 135/181/47 138/185/51
f 142/190/135 139/186/195 140/187/349 143/191/351
f 143/191/352 140/187/350 138/185/51 141/189/55
f 145/194/136 142/190/135 143/191/351 146/195/353
f 146/195/354 143/191/352 141/189/55 144/193/59
f 148/198/139 145/194/136 146/195/353 149/199/355
f 149/199/356 146/195/354 144/193/59 147/197/63
f 151/202/141 148/198/139 149/199/355 152/203/357
f 152/203/358 149/199/356 147/197/63 150/201/67
f 154/206/143 151/202/141 152/203/357 155/207/359
f 155/207/360 152/203/358 150/201/67 153/205/71
f 157/210/145 154/206/143 155/207/359 158/211/361
f 158/211/362 155/207/360 153/205/71 156/209/75
f 160/214/147 157/210/145 158/211/361 161/215/363
f 161/215/364 158/211/362 156/209/75 159/213/79
f 163/218/149 160/214/147 161/215/363 164/219/365
f 164/219/366 161/215/364 159/213/79 162/217/83
f 166/222/151 163/218/149 164/219/365 167/223/367
f 167/223/368 164/219/366 162/217/83 165/221/87
f 169/226/154 166/222/151 167/223/367 170/227/369
f 170/227/370 167/223/368 165/221/87 168/225/93
f 172/230/157 169/226/154 170/227/369 173/231/371
f 173/231/372 170/227/370 168/225/93 171/229/99
f 175/234/160 172/230/157 173/231/371 176/235/373
f 176/235/374 173/231/372 171/229/99 174/233/105
f 178/238/163 175/234/160 176/235/373 179/239/375
f 179/239/376 176/235/374 174/233/105 177/237/111
f 181/242/166 178/238/163 179/239/375 182/243/377
f 182/243/378 179/239/376 177/237/111 180/241/117
f 184/246/169 181/242/166 182/243/377 185/247/379
f 185/247/380 182/243/378 180/241/117 183/245/123
f 187/250/172 184/246/169 185/247/379 188/251/381
f 188/251/382 185/247/380 183/245/123 186/249/129
f 190/254/175 187/250/172 188/251/381 191/255/383
f 191/255/384 188/251/382 186/249/129 189/253/12
f 193/258/178 190/254/175 191/255/383 194/259/385
f 194/259/386 191/255/384 189/253/12 192/257/11
f 3/3/1 193/258/178 194/259/385 5/6/259
f 5/6/262 194/259/386 192/257/11 4/5/8
f 199/266/54 195/261/50 197/263/387 200/267/388
f 200/267/389 197/263/390 196/262/209 198/264/4
f 205/274/66 201/269/62 203/271/391 206/275/392
f 206/275/393 203/271/394 202/270/201 204/272/202
f 208/278/70 205/274/66 206/275/392 209/279/395
f 209/279/396 206/275/393 204/272/202 207/276/205
f 211/282/74 208/278/70 209/279/395 212/283/397
f 212/283/398 209/279/396 207/276/205 210/280/206
f 214/286/78 211/282/74 212/283/397 215/287/399
f 215/287/400 212/283/398 210/280/206 213/284/258
f 217/290/82 214/286/78 215/287/399 218/291/401
f 218/291/402 215/287/400 213/284/258 216/288/255
f 223/298/96 219/293/90 221/295/403 224/299/404
f 224/299/405 221/295/406 220/294/243 222/296/244
f 226/302/102 223/298/96 224/299/404 227/303/407
f 227/303/408 224/299/405 222/296/244 225/300/247
f 229/306/108 226/302/102 227/303/407 230/307/409
f 230/307/410 227/303/408 225/300/247 228/304/241
f 232/311/114 229/306/108 230/307/409 233/312/411
f 233/312/412 230/307/410 228/304/241 231/308/237
f 235/315/120 232/311/114 233/312/411 236/316/413
f 236/316/414 233/312/412 231/308/237 234/313/238
f 238/319/126 235/315/120 236/316/413 239/320/415
f 239/320/416 236/316/414 234/313/238 237/317/203
f 244/327/18 240/322/17 242/324/417 245/328/418
f 245/328/419 242/324/420 241/323/198 243/325/253
f 247/331/24 244/327/18 245/328/418 248/332/421
f 248/332/422 245/328/419 243/325/253 246/329/256
f 250/335/28 247/331/24 248/332/421 251/336/423
f 251/336/424 248/332/422 246/329/256 249/333/250
f 253/339/32 250/335/28 251/336/423 254/340/425
f 254/340/426 251/336/424 249/333/250 252/337/248
f 259/347/44 255/342/40 257/344/427 260/348/428
f 260/348/429 257/344/430 256/343/234 258/345/235
f 262/351/48 259/347/44 260/348/428 263/352/431
f 263/352/432 260/348/429 258/345/235 261/349/239
f 289/387/76 267/358/72 269/360/433 290/388/434
f 290/388/435 269/360/436 268/359/225 288/385/221
f 267/358/72 285/382/68 287/384/437 269/360/433
f 269/360/436 287/384/438 286/383/219 268/359/225
f 280/375/60 264/354/56 266/356/439 281/376/440
f 281/376/441 266/356/442 265/355/230 279/373/228
f 264/354/56 276/370/52 278/372/443 266/356/439
f 266/356/442 278/372/444 277/371/232 265/355/230
f 276/370/52 262/351/48 263/352/431 278/372/443
f 278/372/444 263/352/432 261/349/239 277/371/232
f 255/342/40 273/366/36 275/368/445 257/344/427
f 257/344/430 275/368/446 274/367/245 256/343/234
f 273/366/36 253/339/32 254/340/425 275/368/445
f 275/368/446 254/340/426 252/337/248 274/367/245
f 240/322/17 270/362/132 272/364/447 242/324/417
f 242/324/420 272/364/448 271/363/197 241/323/198
f 270/362/132 238/319/126 239/320/415 272/364/447
f 272/364/448 239/320/416 237/317/203 271/363/197
f 219/293/90 384/514/86 386/516/449 221/295/403
f 221/295/406 386/516/450 385/515/252 220/294/243
f 384/514/86 217/290/82 218/291/401 386/516/449
f 386/516/450 218/291/402 216/288/255 385/515/252
f 201/269/62 381/510/58 383/512/451 203/271/391
f 203/271/394 383/512/452 382/511/6 202/270/201
f 381/510/58 199/266/54 200/267/388 383/512/451
f 383/512/452 200/267/389 198/264/4 382/511/6
f 195/261/50 378/506/46 380/508/453 197/263/387
f 197/263/390 380/508/454 379/507/213 196/262/209
f 279/373/228 282/377/218 284/380/455 281/376/441
f 281/376/440 284/380/456 283/379/64 280/375/60
f 282/377/218 286/383/219 287/384/438 284/380/455
f 284/380/456 287/384/437 285/382/68 283/379/64
f 288/385/221 291/389/222 293/392/457 290/388/435
f 290/388/434 293/392/458 292/391/80 289/387/76
f 291/389/222 294/393/216 296/396/459 293/392/457
f 293/392/458 296/396/460 295/395/84 292/391/80
f 294/393/216 297/397/214 299/400/461 296/396/459
f 296/396/460 299/400/462 298/399/88 295/395/84
f 297/397/214 300/401/212 302/404/463 299/400/461
f 299/400/462 302/404/464 301/403/94 298/399/88
f 300/401/212 303/405/211 305/408/465 302/404/463
f 302/404/464 305/408/466 304/407/100 301/403/94
f 303/405/211 306/409/210 308/412/467 305/408/465
f 305/408/466 308/412/468 307/411/106 304/407/100
f 306/409/210 309/413/208 311/416/469 308/412/467
f 308/412/468 311/416/470 310/415/112 307/411/106
f 309/413/208 312/417/207 314/420/471 311/416/469
f 311/416/470 314/420/472 313/419/118 310/415/112
f 312/417/207 315/421/204 317/424/473 314/420/471
f 314/420/472 317/424/474 316/423/124 313/419/118
f 315/421/204 318/425/199 320/428/475 317/424/473
f 317/424/474 320/428/476 319/427/130 316/423/124
f 318/425/199 321/429/200 323/432/477 320/428/475
f 320/428/476 323/432/478 322/431/13 319/427/130
f 321/429/200 324/433/257 326/436/479 323/432/477
f 323/432/478 326/436/480 325/435/14 322/431/13
f 324/433/257 327/437/254 329/440/481 326/436/479
f 326/436/480 329/440/482 328/439/9 325/435/14
f 327/437/254 330/441/251 332/444/483 329/440/481
f 329/440/482 332/444/484 331/443/10 328/439/9
f 330/441/251 333/445/249 335/448/485 332/444/483
f 332/444/484 335/448/486 334/447/92 331/443/10
f 333/445/249 336/449/246 338/452/487 335/448/485
f 335/448/486 338/452/488 337/451/98 334/447/92
f 336/449/246 339/453/242 341/456/489 338/452/487
f 338/452/488 341/456/490 340/455/104 337/451/98
f 339/453/242 342/457/240 344/460/491 341/456/489
f 341/456/490 344/460/492 343/459/110 340/455/104
f 342/457/240 345/461/236 347/464/493 344/460/491
f 344/460/492 347/464/494 346/463/116 343/459/110
f 345/461/236 348/465/233 350/468/495 347/464/493
f 347/464/494 350/468/496 349/467/122 346/463/116
f 348/465/233 351/469/231 353/472/497 350/468/495
f 350/468/496 353/472/498 352/471/128 349/467/122
f 351/469/231 354/473/229 356/476/499 353/472/497
f 353/472/498 356/476/500 355/475/134 352/471/128
f 354/473/229 357/477/227 359/480/501 356/476/499
f 356/476/500 359/480/502 358/479/21 355/475/134
f 357/477/227 360/481/226 362/484/503 359/480/501
f 359/480/502 362/484/504 361/483/22 358/479/21
f 360/481/226 363/485/224 365/488/505 362/484/503
f 362/484/504 365/488/506 364/487/26 361/483/22
f 363/485/224 366/489/223 368/492/507 365/488/505
f 365/488/506 368/492/508 367/491/30 364/487/26
f 366/489/223 369/493/220 371/496/509 368/492/507
f 368/492/508 371/496/510 370/495/34 367/491/30
f 369/493/220 372/497/217 374/500/511 371/496/509
f 371/496/510 374/500/512 373/499/38 370/495/34
f 372/497/217 375/501/215 377/504/513 374/500/511
f 374/500/512 377/504/514 376/503/42 373/499/38
f 375/501/215 379/507/213 380/508/454 377/504/513
f 377/504/514 380/508/453 378/506/46 376/503/42
