# Blender 3.3.2 Release Candidate
# www.blender.org
mtllib 20_Frank.mtl
o 20_Frank
v 0.000971 -0.000492 0.019684
v -0.001025 -0.000367 0.019684
v 0.000850 -0.002416 0.019547
v -0.001146 -0.002290 0.019547
v 0.000730 -0.004317 0.019222
v -0.001266 -0.004191 0.019222
v 0.000613 -0.006176 0.018712
v -0.001383 -0.006051 0.018712
v 0.000500 -0.007977 0.018021
v -0.001496 -0.007852 0.018021
v 0.000392 -0.009702 0.017157
v -0.001604 -0.009577 0.017157
v 0.000289 -0.011334 0.016128
v -0.001707 -0.011209 0.016128
v 0.000193 -0.012858 0.014943
v -0.001803 -0.012732 0.014943
v 0.000105 -0.014258 0.013615
v -0.001891 -0.014132 0.013615
v 0.000025 -0.015521 0.012155
v -0.001971 -0.015396 0.012155
v -0.000045 -0.016636 0.010578
v -0.002041 -0.016510 0.010578
v -0.000105 -0.017591 0.008900
v -0.002101 -0.017465 0.008900
v -0.000154 -0.018377 0.007135
v -0.002150 -0.018252 0.007135
v -0.000193 -0.018987 0.005302
v -0.002189 -0.018861 0.005302
v -0.000219 -0.019415 0.003418
v -0.002216 -0.019289 0.003418
v -0.000235 -0.019656 0.001501
v -0.002231 -0.019530 0.001501
v -0.000238 -0.019708 -0.000430
v -0.002234 -0.019583 -0.000430
v -0.000229 -0.019572 -0.002358
v -0.002225 -0.019446 -0.002358
v -0.000209 -0.019247 -0.004262
v -0.002205 -0.019121 -0.004262
v -0.000177 -0.018738 -0.006126
v -0.002173 -0.018612 -0.006126
v -0.000134 -0.018049 -0.007930
v -0.002130 -0.017923 -0.007930
v -0.000079 -0.017186 -0.009659
v -0.002075 -0.017061 -0.009659
v -0.000015 -0.016159 -0.011294
v -0.002011 -0.016033 -0.011294
v 0.000060 -0.014977 -0.012820
v -0.001936 -0.014851 -0.012820
v 0.000143 -0.013651 -0.014223
v -0.001853 -0.013525 -0.014223
v 0.000235 -0.012194 -0.015489
v -0.001761 -0.012068 -0.015489
v 0.000334 -0.010620 -0.016606
v -0.001662 -0.010495 -0.016606
v 0.000439 -0.008945 -0.017563
v -0.001557 -0.008819 -0.017563
v 0.000550 -0.007184 -0.018351
v -0.001446 -0.007059 -0.018351
v 0.000665 -0.005355 -0.018962
v -0.001331 -0.005229 -0.018962
v 0.000783 -0.003474 -0.019390
v -0.001213 -0.003349 -0.019390
v 0.000904 -0.001561 -0.019632
v -0.001092 -0.001435 -0.019632
v 0.001025 0.000367 -0.019684
v -0.000971 0.000492 -0.019684
v 0.001146 0.002290 -0.019547
v -0.000850 0.002416 -0.019547
v 0.001266 0.004191 -0.019222
v -0.000730 0.004317 -0.019222
v 0.001383 0.006051 -0.018712
v -0.000613 0.006176 -0.018712
v 0.001496 0.007852 -0.018021
v -0.000500 0.007977 -0.018021
v 0.001604 0.009577 -0.017157
v -0.000392 0.009702 -0.017157
v 0.001707 0.011209 -0.016128
v -0.000289 0.011334 -0.016128
v 0.001803 0.012732 -0.014943
v -0.000193 0.012858 -0.014943
v 0.001891 0.014132 -0.013615
v -0.000105 0.014258 -0.013615
v 0.001971 0.015396 -0.012155
v -0.000025 0.015521 -0.012155
v 0.002041 0.016510 -0.010578
v 0.000045 0.016636 -0.010578
v 0.002101 0.017465 -0.008900
v 0.000105 0.017591 -0.008900
v 0.002150 0.018252 -0.007135
v 0.000154 0.018377 -0.007135
v 0.002189 0.018861 -0.005302
v 0.000193 0.018987 -0.005302
v 0.002216 0.019289 -0.003418
v 0.000219 0.019415 -0.003418
v 0.002231 0.019530 -0.001501
v 0.000235 0.019656 -0.001501
v 0.002234 0.019583 0.000430
v 0.000238 0.019708 0.000430
v 0.002225 0.019446 0.002358
v 0.000229 0.019572 0.002358
v 0.002205 0.019121 0.004262
v 0.000209 0.019247 0.004262
v 0.002173 0.018612 0.006126
v 0.000177 0.018738 0.006126
v 0.002130 0.017923 0.007930
v 0.000134 0.018049 0.007930
v 0.002075 0.017061 0.009659
v 0.000079 0.017186 0.009659
v 0.002011 0.016033 0.011294
v 0.000015 0.016159 0.011294
v 0.001936 0.014851 0.012820
v -0.000060 0.014977 0.012820
v 0.001853 0.013525 0.014223
v -0.000143 0.013651 0.014223
v 0.001761 0.012068 0.015489
v -0.000235 0.012194 0.015489
v 0.001662 0.010495 0.016606
v -0.000334 0.010620 0.016606
v 0.001557 0.008819 0.017563
v -0.000439 0.008945 0.017563
v 0.001446 0.007059 0.018351
v -0.000550 0.007184 0.018351
v 0.001331 0.005229 0.018962
v -0.000665 0.005355 0.018962
v 0.001213 0.003349 0.019390
v -0.000783 0.003474 0.019390
v 0.001092 0.001435 0.019632
v -0.000904 0.001561 0.019632
v -0.000844 -0.002274 0.019259
v -0.000725 -0.000379 0.019393
v -0.000962 -0.004147 0.018938
v -0.001078 -0.005979 0.018435
v -0.001189 -0.007754 0.017755
v -0.001296 -0.009453 0.016904
v -0.001397 -0.011061 0.015890
v -0.001492 -0.012562 0.014722
v -0.001579 -0.013941 0.013414
v -0.001657 -0.015186 0.011975
v -0.001726 -0.016284 0.010422
v -0.001785 -0.017225 0.008768
v -0.001834 -0.018000 0.007030
v -0.001872 -0.018601 0.005224
v -0.001898 -0.019022 0.003368
v -0.001913 -0.019259 0.001479
v -0.001916 -0.019311 -0.000424
v -0.001908 -0.019177 -0.002323
v -0.001888 -0.018857 -0.004199
v -0.001856 -0.018355 -0.006035
v -0.001813 -0.017676 -0.007813
v -0.001760 -0.016826 -0.009516
v -0.001696 -0.015814 -0.011127
v -0.001623 -0.014649 -0.012631
v -0.001541 -0.013343 -0.014013
v -0.001451 -0.011908 -0.015260
v -0.001353 -0.010357 -0.016361
v -0.001249 -0.008707 -0.017303
v -0.001140 -0.006972 -0.018079
v -0.001027 -0.005170 -0.018681
v -0.000910 -0.003317 -0.019103
v -0.000791 -0.001432 -0.019342
v -0.000672 0.000467 -0.019393
v -0.000553 0.002362 -0.019259
v -0.000435 0.004235 -0.018938
v -0.000320 0.006067 -0.018435
v -0.000208 0.007842 -0.017755
v -0.000101 0.009541 -0.016904
v 0.000000 0.011149 -0.015890
v 0.000094 0.012650 -0.014722
v 0.000181 0.014029 -0.013414
v 0.000260 0.015274 -0.011975
v 0.000329 0.016372 -0.010422
v 0.000388 0.017313 -0.008768
v 0.000437 0.018088 -0.007030
v 0.000474 0.018688 -0.005224
v 0.000501 0.019110 -0.003368
v 0.000516 0.019347 -0.001479
v 0.000519 0.019399 0.000424
v 0.000511 0.019264 0.002323
v 0.000491 0.018945 0.004199
v 0.000459 0.018443 0.006035
v 0.000416 0.017764 0.007813
v 0.000363 0.016914 0.009516
v 0.000299 0.015902 0.011127
v 0.000226 0.014737 0.012631
v 0.000144 0.013431 0.014013
v 0.000053 0.011996 0.015260
v -0.000044 0.010445 0.016361
v -0.000148 0.008795 0.017303
v -0.000257 0.007060 0.018079
v -0.000371 0.005258 0.018681
v -0.000487 0.003405 0.019103
v -0.000606 0.001520 0.019342
v 0.000672 -0.000467 0.019393
v 0.000553 -0.002362 0.019259
v 0.000435 -0.004235 0.018938
v 0.000320 -0.006067 0.018435
v 0.000208 -0.007842 0.017755
v 0.000101 -0.009541 0.016904
v -0.000000 -0.011149 0.015890
v -0.000094 -0.012650 0.014722
v -0.000181 -0.014029 0.013414
v -0.000260 -0.015274 0.011975
v -0.000329 -0.016372 0.010422
v -0.000388 -0.017313 0.008768
v -0.000437 -0.018088 0.007030
v -0.000474 -0.018688 0.005224
v -0.000501 -0.019110 0.003368
v -0.000516 -0.019347 0.001479
v -0.000519 -0.019399 -0.000424
v -0.000511 -0.019264 -0.002323
v -0.000491 -0.018945 -0.004199
v -0.000459 -0.018443 -0.006035
v -0.000416 -0.017764 -0.007813
v -0.000363 -0.016914 -0.009516
v -0.000299 -0.015902 -0.011127
v -0.000226 -0.014737 -0.012631
v -0.000144 -0.013431 -0.014013
v -0.000053 -0.011996 -0.015260
v 0.000044 -0.010445 -0.016361
v 0.000148 -0.008795 -0.017303
v 0.000257 -0.007060 -0.018079
v 0.000371 -0.005258 -0.018681
v 0.000487 -0.003405 -0.019103
v 0.000606 -0.001520 -0.019342
v 0.000725 0.000379 -0.019393
v 0.000844 0.002274 -0.019259
v 0.000962 0.004147 -0.018938
v 0.001078 0.005979 -0.018435
v 0.001189 0.007754 -0.017755
v 0.001296 0.009453 -0.016904
v 0.001397 0.011061 -0.015890
v 0.001492 0.012562 -0.014722
v 0.001579 0.013941 -0.013414
v 0.001657 0.015186 -0.011975
v 0.001726 0.016284 -0.010422
v 0.001785 0.017225 -0.008768
v 0.001834 0.018000 -0.007030
v 0.001872 0.018601 -0.005224
v 0.001898 0.019022 -0.003368
v 0.001913 0.019259 -0.001479
v 0.001916 0.019311 0.000424
v 0.001908 0.019177 0.002323
v 0.001888 0.018857 0.004199
v 0.001856 0.018355 0.006035
v 0.001813 0.017676 0.007813
v 0.001760 0.016826 0.009516
v 0.001696 0.015814 0.011127
v 0.001623 0.014649 0.012631
v 0.001541 0.013343 0.014013
v 0.001451 0.011908 0.015260
v 0.001353 0.010357 0.016361
v 0.001249 0.008707 0.017303
v 0.001140 0.006972 0.018079
v 0.001027 0.005170 0.018681
v 0.000910 0.003317 0.019103
v 0.000791 0.001432 0.019342
v -0.001154 -0.002422 0.020647
v -0.000953 -0.002460 0.020849
v -0.001096 -0.002443 0.020790
v -0.000824 -0.000408 0.020995
v -0.001027 -0.000391 0.020792
v -0.000967 -0.000398 0.020935
v -0.001281 -0.004430 0.020304
v -0.001081 -0.004487 0.020502
v -0.001223 -0.004465 0.020444
v -0.001404 -0.006395 0.019765
v -0.001206 -0.006471 0.019958
v -0.001348 -0.006443 0.019901
v -0.001524 -0.008297 0.019035
v -0.001326 -0.008392 0.019221
v -0.001468 -0.008359 0.019167
v -0.001639 -0.010119 0.018122
v -0.001442 -0.010231 0.018300
v -0.001584 -0.010193 0.018248
v -0.001747 -0.011843 0.017035
v -0.001552 -0.011972 0.017202
v -0.001693 -0.011929 0.017153
v -0.001848 -0.013452 0.015784
v -0.001654 -0.013597 0.015938
v -0.001795 -0.013549 0.015893
v -0.001941 -0.014931 0.014381
v -0.001748 -0.015090 0.014521
v -0.001889 -0.015038 0.014480
v -0.002025 -0.016265 0.012839
v -0.001833 -0.016438 0.012964
v -0.001973 -0.016382 0.012928
v -0.002099 -0.017443 0.011173
v -0.001907 -0.017627 0.011283
v -0.002048 -0.017567 0.011251
v -0.002163 -0.018451 0.009400
v -0.001972 -0.018645 0.009492
v -0.002112 -0.018583 0.009465
v -0.002215 -0.019282 0.007537
v -0.002024 -0.019484 0.007610
v -0.002164 -0.019419 0.007589
v -0.002256 -0.019926 0.005601
v -0.002065 -0.020134 0.005655
v -0.002205 -0.020068 0.005639
v -0.002284 -0.020378 0.003611
v -0.002094 -0.020590 0.003646
v -0.002234 -0.020523 0.003635
v -0.002300 -0.020632 0.001586
v -0.002110 -0.020848 0.001601
v -0.002250 -0.020779 0.001597
v -0.002304 -0.020688 -0.000454
v -0.002114 -0.020904 -0.000459
v -0.002253 -0.020835 -0.000458
v -0.002294 -0.020544 -0.002490
v -0.002104 -0.020758 -0.002515
v -0.002244 -0.020690 -0.002507
v -0.002273 -0.020201 -0.004502
v -0.002083 -0.020412 -0.004546
v -0.002222 -0.020344 -0.004533
v -0.002239 -0.019663 -0.006470
v -0.002049 -0.019868 -0.006534
v -0.002188 -0.019803 -0.006515
v -0.002193 -0.018935 -0.008376
v -0.002002 -0.019133 -0.008458
v -0.002142 -0.019070 -0.008434
v -0.002136 -0.018024 -0.010202
v -0.001944 -0.018213 -0.010302
v -0.002084 -0.018153 -0.010272
v -0.002068 -0.016939 -0.011929
v -0.001875 -0.017118 -0.012046
v -0.002016 -0.017060 -0.012012
v -0.001989 -0.015690 -0.013541
v -0.001796 -0.015857 -0.013674
v -0.001937 -0.015803 -0.013635
v -0.001901 -0.014289 -0.015023
v -0.001707 -0.014443 -0.015170
v -0.001848 -0.014392 -0.015127
v -0.001804 -0.012751 -0.016361
v -0.001609 -0.012889 -0.016520
v -0.001750 -0.012843 -0.016474
v -0.001700 -0.011089 -0.017540
v -0.001504 -0.011210 -0.017712
v -0.001645 -0.011169 -0.017661
v -0.001588 -0.009319 -0.018551
v -0.001391 -0.009423 -0.018732
v -0.001533 -0.009388 -0.018679
v -0.001471 -0.007459 -0.019383
v -0.001273 -0.007545 -0.019572
v -0.001415 -0.007515 -0.019517
v -0.001350 -0.005527 -0.020028
v -0.001150 -0.005594 -0.020224
v -0.001293 -0.005569 -0.020167
v -0.001225 -0.003541 -0.020481
v -0.001024 -0.003589 -0.020681
v -0.001167 -0.003569 -0.020622
v -0.001098 -0.001520 -0.020736
v -0.000896 -0.001548 -0.020939
v -0.001039 -0.001534 -0.020879
v -0.000969 0.000516 -0.020792
v -0.000767 0.000508 -0.020995
v -0.000910 0.000516 -0.020935
v -0.000842 0.002548 -0.020647
v -0.000637 0.002560 -0.020849
v -0.000781 0.002562 -0.020790
v -0.000715 0.004556 -0.020304
v -0.000510 0.004587 -0.020502
v -0.000654 0.004583 -0.020444
v -0.000592 0.006520 -0.019765
v -0.000385 0.006571 -0.019958
v -0.000530 0.006561 -0.019901
v -0.000472 0.008423 -0.019035
v -0.000264 0.008492 -0.019221
v -0.000409 0.008477 -0.019167
v -0.000357 0.010245 -0.018122
v -0.000149 0.010331 -0.018300
v -0.000294 0.010311 -0.018248
v -0.000249 0.011968 -0.017035
v -0.000039 0.012072 -0.017202
v -0.000184 0.012047 -0.017153
v -0.000148 0.013577 -0.015784
v 0.000063 0.013697 -0.015938
v -0.000083 0.013667 -0.015893
v -0.000055 0.015056 -0.014381
v 0.000157 0.015190 -0.014521
v 0.000011 0.015156 -0.014480
v 0.000029 0.016391 -0.012839
v 0.000242 0.016538 -0.012964
v 0.000096 0.016500 -0.012928
v 0.000103 0.017568 -0.011173
v 0.000317 0.017727 -0.011283
v 0.000170 0.017686 -0.011251
v 0.000167 0.018577 -0.009400
v 0.000381 0.018745 -0.009492
v 0.000234 0.018701 -0.009465
v 0.000219 0.019408 -0.007537
v 0.000434 0.019584 -0.007610
v 0.000287 0.019537 -0.007589
v 0.000260 0.020052 -0.005601
v 0.000475 0.020234 -0.005655
v 0.000328 0.020186 -0.005639
v 0.000288 0.020503 -0.003611
v 0.000503 0.020690 -0.003646
v 0.000356 0.020641 -0.003635
v 0.000304 0.020758 -0.001586
v 0.000519 0.020948 -0.001601
v 0.000372 0.020897 -0.001597
v 0.000307 0.020813 0.000454
v 0.000523 0.021004 0.000459
v 0.000376 0.020953 0.000458
v 0.000298 0.020669 0.002490
v 0.000514 0.020858 0.002515
v 0.000367 0.020808 0.002507
v 0.000277 0.020326 0.004502
v 0.000492 0.020512 0.004546
v 0.000345 0.020463 0.004533
v 0.000243 0.019788 0.006470
v 0.000458 0.019968 0.006534
v 0.000311 0.019921 0.006515
v 0.000197 0.019060 0.008376
v 0.000412 0.019233 0.008458
v 0.000265 0.019188 0.008434
v 0.000140 0.018149 0.010202
v 0.000354 0.018314 0.010302
v 0.000207 0.018271 0.010272
v 0.000072 0.017064 0.011929
v 0.000285 0.017218 0.012046
v 0.000138 0.017178 0.012012
v -0.000007 0.015816 0.013541
v 0.000205 0.015957 0.013674
v 0.000059 0.015921 0.013635
v -0.000095 0.014415 0.015023
v 0.000116 0.014543 0.015170
v -0.000029 0.014510 0.015127
v -0.000192 0.012876 0.016361
v 0.000019 0.012989 0.016520
v -0.000127 0.012961 0.016474
v -0.000296 0.011214 0.017540
v -0.000087 0.011310 0.017712
v -0.000232 0.011287 0.017661
v -0.000408 0.009445 0.018551
v -0.000199 0.009524 0.018732
v -0.000344 0.009506 0.018679
v -0.000525 0.007585 0.019383
v -0.000318 0.007646 0.019572
v -0.000462 0.007633 0.019517
v -0.000646 0.005652 0.020028
v -0.000440 0.005694 0.020224
v -0.000585 0.005687 0.020167
v -0.000771 0.003666 0.020481
v -0.000566 0.003689 0.020681
v -0.000710 0.003687 0.020622
v -0.000898 0.001645 0.020736
v -0.000695 0.001648 0.020939
v -0.000838 0.001653 0.020879
v 0.000969 -0.000516 0.020792
v 0.000767 -0.000508 0.020995
v 0.000910 -0.000516 0.020935
v 0.000637 -0.002560 0.020849
v 0.000842 -0.002548 0.020647
v 0.000781 -0.002562 0.020790
v 0.000510 -0.004587 0.020502
v 0.000715 -0.004556 0.020304
v 0.000654 -0.004583 0.020444
v 0.000385 -0.006571 0.019958
v 0.000592 -0.006520 0.019765
v 0.000530 -0.006561 0.019901
v 0.000264 -0.008492 0.019221
v 0.000472 -0.008423 0.019035
v 0.000409 -0.008477 0.019167
v 0.000149 -0.010331 0.018300
v 0.000357 -0.010245 0.018122
v 0.000294 -0.010311 0.018248
v 0.000039 -0.012072 0.017202
v 0.000249 -0.011968 0.017035
v 0.000184 -0.012047 0.017153
v -0.000063 -0.013697 0.015938
v 0.000148 -0.013577 0.015784
v 0.000083 -0.013667 0.015893
v -0.000157 -0.015190 0.014521
v 0.000055 -0.015056 0.014381
v -0.000011 -0.015156 0.014480
v -0.000242 -0.016538 0.012964
v -0.000029 -0.016391 0.012839
v -0.000096 -0.016500 0.012928
v -0.000317 -0.017727 0.011283
v -0.000103 -0.017568 0.011173
v -0.000170 -0.017686 0.011251
v -0.000381 -0.018745 0.009492
v -0.000167 -0.018577 0.009400
v -0.000234 -0.018701 0.009465
v -0.000434 -0.019584 0.007610
v -0.000219 -0.019408 0.007537
v -0.000287 -0.019537 0.007589
v -0.000475 -0.020234 0.005655
v -0.000260 -0.020052 0.005601
v -0.000328 -0.020186 0.005639
v -0.000503 -0.020690 0.003646
v -0.000288 -0.020503 0.003611
v -0.000356 -0.020641 0.003635
v -0.000519 -0.020948 0.001601
v -0.000304 -0.020758 0.001586
v -0.000372 -0.020897 0.001597
v -0.000523 -0.021004 -0.000459
v -0.000307 -0.020813 -0.000454
v -0.000376 -0.020953 -0.000458
v -0.000514 -0.020858 -0.002515
v -0.000298 -0.020669 -0.002490
v -0.000367 -0.020808 -0.002507
v -0.000492 -0.020512 -0.004546
v -0.000277 -0.020326 -0.004502
v -0.000345 -0.020463 -0.004533
v -0.000458 -0.019968 -0.006534
v -0.000243 -0.019788 -0.006470
v -0.000311 -0.019921 -0.006515
v -0.000412 -0.019233 -0.008458
v -0.000197 -0.019060 -0.008376
v -0.000265 -0.019188 -0.008434
v -0.000354 -0.018314 -0.010302
v -0.000140 -0.018149 -0.010202
v -0.000207 -0.018271 -0.010272
v -0.000285 -0.017218 -0.012046
v -0.000072 -0.017064 -0.011929
v -0.000138 -0.017178 -0.012012
v -0.000205 -0.015957 -0.013674
v 0.000007 -0.015816 -0.013541
v -0.000059 -0.015921 -0.013635
v -0.000116 -0.014543 -0.015170
v 0.000095 -0.014415 -0.015023
v 0.000029 -0.014510 -0.015127
v -0.000019 -0.012989 -0.016520
v 0.000192 -0.012876 -0.016361
v 0.000127 -0.012961 -0.016474
v 0.000087 -0.011310 -0.017712
v 0.000296 -0.011214 -0.017540
v 0.000232 -0.011287 -0.017661
v 0.000199 -0.009524 -0.018732
v 0.000408 -0.009445 -0.018551
v 0.000344 -0.009506 -0.018679
v 0.000318 -0.007646 -0.019572
v 0.000525 -0.007585 -0.019383
v 0.000462 -0.007633 -0.019517
v 0.000440 -0.005694 -0.020224
v 0.000646 -0.005652 -0.020028
v 0.000585 -0.005687 -0.020167
v 0.000566 -0.003689 -0.020681
v 0.000771 -0.003666 -0.020481
v 0.000710 -0.003687 -0.020622
v 0.000695 -0.001648 -0.020939
v 0.000898 -0.001645 -0.020736
v 0.000838 -0.001653 -0.020879
v 0.000824 0.000408 -0.020995
v 0.001027 0.000391 -0.020792
v 0.000967 0.000398 -0.020935
v 0.000953 0.002460 -0.020849
v 0.001154 0.002422 -0.020647
v 0.001096 0.002443 -0.020790
v 0.001081 0.004487 -0.020502
v 0.001281 0.004430 -0.020304
v 0.001223 0.004465 -0.020444
v 0.001206 0.006471 -0.019958
v 0.001404 0.006395 -0.019765
v 0.001348 0.006443 -0.019901
v 0.001326 0.008392 -0.019221
v 0.001524 0.008297 -0.019035
v 0.001468 0.008359 -0.019167
v 0.001442 0.010231 -0.018300
v 0.001639 0.010119 -0.018122
v 0.001584 0.010193 -0.018248
v 0.001552 0.011972 -0.017202
v 0.001747 0.011843 -0.017035
v 0.001693 0.011929 -0.017153
v 0.001654 0.013597 -0.015938
v 0.001848 0.013452 -0.015784
v 0.001795 0.013549 -0.015893
v 0.001748 0.015090 -0.014521
v 0.001941 0.014931 -0.014381
v 0.001889 0.015038 -0.014480
v 0.001833 0.016438 -0.012964
v 0.002025 0.016265 -0.012839
v 0.001973 0.016382 -0.012928
v 0.001907 0.017627 -0.011283
v 0.002099 0.017443 -0.011173
v 0.002048 0.017567 -0.011251
v 0.001972 0.018645 -0.009492
v 0.002163 0.018451 -0.009400
v 0.002112 0.018583 -0.009465
v 0.002024 0.019484 -0.007610
v 0.002215 0.019282 -0.007537
v 0.002164 0.019419 -0.007589
v 0.002065 0.020134 -0.005655
v 0.002256 0.019926 -0.005601
v 0.002205 0.020068 -0.005639
v 0.002094 0.020590 -0.003646
v 0.002284 0.020378 -0.003611
v 0.002234 0.020523 -0.003635
v 0.002110 0.020848 -0.001601
v 0.002300 0.020632 -0.001586
v 0.002250 0.020779 -0.001597
v 0.002114 0.020904 0.000459
v 0.002304 0.020688 0.000454
v 0.002253 0.020835 0.000458
v 0.002104 0.020758 0.002515
v 0.002294 0.020544 0.002490
v 0.002244 0.020690 0.002507
v 0.002083 0.020412 0.004546
v 0.002273 0.020201 0.004502
v 0.002222 0.020344 0.004533
v 0.002049 0.019868 0.006534
v 0.002239 0.019663 0.006470
v 0.002188 0.019803 0.006515
v 0.002002 0.019133 0.008458
v 0.002193 0.018935 0.008376
v 0.002142 0.019070 0.008434
v 0.001944 0.018213 0.010302
v 0.002136 0.018024 0.010202
v 0.002084 0.018153 0.010272
v 0.001875 0.017118 0.012046
v 0.002068 0.016939 0.011929
v 0.002016 0.017060 0.012012
v 0.001796 0.015857 0.013674
v 0.001989 0.015690 0.013541
v 0.001937 0.015803 0.013635
v 0.001707 0.014443 0.015170
v 0.001901 0.014289 0.015023
v 0.001848 0.014392 0.015127
v 0.001609 0.012889 0.016520
v 0.001804 0.012751 0.016361
v 0.001750 0.012843 0.016474
v 0.001504 0.011210 0.017712
v 0.001700 0.011089 0.017540
v 0.001645 0.011169 0.017661
v 0.001391 0.009423 0.018732
v 0.001588 0.009319 0.018551
v 0.001533 0.009388 0.018679
v 0.001273 0.007545 0.019572
v 0.001471 0.007459 0.019383
v 0.001415 0.007515 0.019517
v 0.001150 0.005594 0.020224
v 0.001350 0.005527 0.020028
v 0.001293 0.005569 0.020167
v 0.001024 0.003589 0.020681
v 0.001225 0.003541 0.020481
v 0.001167 0.003569 0.020622
v 0.000896 0.001548 0.020939
v 0.001098 0.001520 0.020736
v 0.001039 0.001534 0.020879
vn 0.1867 -0.1294 0.9739
vn -0.2014 -0.1050 0.9739
vn -0.2074 -0.1997 0.9577
vn 0.1807 -0.2241 0.9577
vn -0.9206 0.1034 -0.3766
vn -0.9183 0.1400 -0.3703
vn -0.9804 0.0181 0.1961
vn -0.9792 0.0375 0.1994
vn -0.9160 0.1759 -0.3605
vn -0.9816 -0.0009 0.1909
vn -0.9139 0.2106 -0.3472
vn -0.9828 -0.0192 0.1838
vn -0.9118 0.2438 -0.3305
vn -0.9839 -0.0368 0.1750
vn -0.9098 0.2752 -0.3107
vn -0.9849 -0.0535 0.1645
vn -0.9079 0.3046 -0.2879
vn -0.9859 -0.0690 0.1524
vn -0.9062 0.3316 -0.2623
vn -0.9868 -0.0833 0.1389
vn -0.9047 0.3559 -0.2342
vn -0.9876 -0.0962 0.1240
vn -0.9034 0.3774 -0.2038
vn -0.9883 -0.1076 0.1079
vn -0.9022 0.3958 -0.1715
vn -0.9889 -0.1173 0.0908
vn -0.9012 0.4109 -0.1375
vn -0.9894 -0.1253 0.0728
vn -0.9005 0.4227 -0.1021
vn -0.9898 -0.1315 0.0541
vn -0.9000 0.4309 -0.0659
vn -0.9901 -0.1359 0.0349
vn -0.8997 0.4356 -0.0289
vn -0.9903 -0.1384 0.0153
vn -0.8996 0.4366 0.0083
vn -0.9903 -0.1389 -0.0044
vn -0.8998 0.4339 0.0454
vn -0.9902 -0.1375 -0.0241
vn -0.9002 0.4277 0.0821
vn -0.9900 -0.1342 -0.0435
vn -0.9008 0.4179 0.1180
vn -0.9897 -0.1290 -0.0625
vn -0.9016 0.4046 0.1528
vn -0.9892 -0.1220 -0.0809
vn -0.9027 0.3880 0.1861
vn -0.9887 -0.1132 -0.0985
vn -0.9039 0.3682 0.2176
vn -0.9880 -0.1027 -0.1152
vn -0.9054 0.3454 0.2470
vn -0.9873 -0.0906 -0.1308
vn -0.9070 0.3199 0.2740
vn -0.9864 -0.0771 -0.1451
vn -0.9087 0.2918 0.2984
vn -0.9855 -0.0622 -0.1580
vn -0.9107 0.2615 0.3199
vn -0.9845 -0.0462 -0.1694
vn -0.9127 0.2292 0.3383
vn -0.9834 -0.0291 -0.1792
vn -0.9148 0.1953 0.3535
vn -0.9823 -0.0111 -0.1872
vn -0.9170 0.1600 0.3653
vn -0.9811 0.0075 -0.1934
vn -0.9193 0.1238 0.3735
vn -0.9799 0.0267 -0.1978
vn -0.9216 0.0870 0.3782
vn -0.9787 0.0462 -0.2003
vn -0.9240 0.0498 0.3792
vn -0.9774 0.0659 -0.2008
vn -0.9263 0.0128 0.3766
vn -0.9762 0.0855 -0.1994
vn -0.9286 -0.0238 0.3703
vn -0.9750 0.1049 -0.1961
vn -0.9309 -0.0597 0.3605
vn -0.9738 0.1239 -0.1909
vn -0.9330 -0.0944 0.3472
vn -0.9726 0.1423 -0.1838
vn -0.9351 -0.1276 0.3305
vn -0.9715 0.1598 -0.1750
vn -0.9371 -0.1590 0.3107
vn -0.9705 0.1765 -0.1645
vn -0.9390 -0.1884 0.2879
vn -0.9695 0.1920 -0.1524
vn -0.9407 -0.2154 0.2623
vn -0.9686 0.2063 -0.1389
vn -0.9422 -0.2397 0.2342
vn -0.9678 0.2192 -0.1240
vn -0.9435 -0.2612 0.2038
vn -0.9671 0.2306 -0.1079
vn -0.9447 -0.2796 0.1715
vn -0.9664 0.2403 -0.0908
vn -0.9456 -0.2947 0.1375
vn -0.9659 0.2483 -0.0728
vn -0.9464 -0.3065 0.1021
vn -0.9655 0.2546 -0.0541
vn -0.9469 -0.3147 0.0659
vn -0.9653 0.2589 -0.0349
vn -0.9472 -0.3194 0.0289
vn -0.9651 0.2614 -0.0153
vn -0.9473 -0.3204 -0.0083
vn -0.9651 0.2619 0.0044
vn -0.9471 -0.3177 -0.0454
vn -0.9652 0.2605 0.0241
vn -0.9467 -0.3115 -0.0821
vn -0.9654 0.2572 0.0435
vn -0.9461 -0.3017 -0.1180
vn -0.9657 0.2520 0.0625
vn -0.9452 -0.2884 -0.1528
vn -0.9661 0.2450 0.0809
vn -0.9442 -0.2718 -0.1861
vn -0.9667 0.2362 0.0985
vn -0.9430 -0.2520 -0.2176
vn -0.9674 0.2257 0.1152
vn -0.9415 -0.2292 -0.2470
vn -0.9681 0.2137 0.1308
vn -0.9399 -0.2037 -0.2740
vn -0.9690 0.2001 0.1451
vn -0.9381 -0.1756 -0.2984
vn -0.9699 0.1853 0.1580
vn -0.9362 -0.1453 -0.3199
vn -0.9709 0.1692 0.1694
vn -0.9342 -0.1130 -0.3383
vn -0.9720 0.1521 0.1792
vn -0.9321 -0.0791 -0.3535
vn -0.9731 0.1342 0.1872
vn -0.9299 -0.0438 -0.3653
vn -0.9743 0.1155 0.1934
vn -0.9276 -0.0076 -0.3735
vn -0.9755 0.0963 0.1978
vn -0.8942 0.3845 0.2294
vn -0.8957 0.3605 0.2604
vn -0.9253 0.0292 -0.3782
vn -0.9767 0.0768 0.2003
vn -0.9229 0.0664 -0.3792
vn -0.9780 0.0571 0.2008
vn 0.9435 0.2612 -0.2038
vn 0.9447 0.2796 -0.1715
vn 0.9371 0.2985 -0.1808
vn 0.9359 0.2791 -0.2149
vn 0.1927 -0.0336 0.9807
vn -0.1954 -0.0092 0.9807
vn 0.1987 0.0624 0.9781
vn -0.1894 0.0869 0.9781
vn 0.1749 -0.3168 0.9322
vn -0.2132 -0.2924 0.9322
vn -0.2189 -0.3821 0.8978
vn 0.1692 -0.4065 0.8978
vn -0.2243 -0.4680 0.8548
vn 0.1638 -0.4925 0.8548
vn -0.2294 -0.5493 0.8035
vn 0.1587 -0.5738 0.8035
vn -0.2342 -0.6252 0.7445
vn 0.1539 -0.6497 0.7445
vn -0.2385 -0.6950 0.6783
vn 0.1496 -0.7194 0.6783
vn -0.2425 -0.7579 0.6056
vn 0.1456 -0.7824 0.6056
vn -0.2460 -0.8135 0.5270
vn 0.1421 -0.8379 0.5270
vn -0.2490 -0.8611 0.4434
vn 0.1391 -0.8855 0.4434
vn -0.2515 -0.9002 0.3555
vn 0.1366 -0.9246 0.3555
vn -0.2534 -0.9306 0.2642
vn 0.1347 -0.9550 0.2642
vn -0.2547 -0.9519 0.1703
vn 0.1334 -0.9763 0.1703
vn -0.2555 -0.9639 0.0748
vn 0.1326 -0.9883 0.0748
vn -0.2556 -0.9665 -0.0214
vn 0.1325 -0.9910 -0.0214
vn -0.2552 -0.9597 -0.1175
vn 0.1329 -0.9841 -0.1175
vn -0.2542 -0.9436 -0.2123
vn 0.1339 -0.9680 -0.2123
vn -0.2526 -0.9182 -0.3052
vn 0.1355 -0.9426 -0.3052
vn -0.2504 -0.8838 -0.3951
vn 0.1377 -0.9083 -0.3951
vn -0.2477 -0.8409 -0.4812
vn 0.1404 -0.8653 -0.4812
vn -0.2445 -0.7897 -0.5627
vn 0.1436 -0.8141 -0.5627
vn -0.2408 -0.7308 -0.6387
vn 0.1473 -0.7552 -0.6387
vn -0.2366 -0.6647 -0.7086
vn 0.1515 -0.6892 -0.7086
vn -0.2321 -0.5922 -0.7717
vn 0.1560 -0.6166 -0.7717
vn -0.2271 -0.5138 -0.8273
vn 0.1610 -0.5382 -0.8273
vn -0.2219 -0.4303 -0.8750
vn 0.1662 -0.4547 -0.8750
vn -0.2164 -0.3426 -0.9142
vn 0.1717 -0.3670 -0.9142
vn -0.2106 -0.2514 -0.9447
vn 0.1775 -0.2759 -0.9447
vn -0.2047 -0.1578 -0.9660
vn 0.1834 -0.1822 -0.9660
vn -0.1987 -0.0624 -0.9781
vn 0.1894 -0.0869 -0.9781
vn -0.1927 0.0336 -0.9807
vn 0.1954 0.0092 -0.9807
vn -0.1867 0.1294 -0.9739
vn 0.2014 0.1050 -0.9739
vn -0.1807 0.2241 -0.9577
vn 0.2074 0.1997 -0.9577
vn -0.1749 0.3168 -0.9322
vn 0.2132 0.2924 -0.9322
vn -0.1692 0.4065 -0.8978
vn 0.2189 0.3821 -0.8978
vn -0.1638 0.4925 -0.8548
vn 0.2243 0.4680 -0.8548
vn -0.1587 0.5738 -0.8035
vn 0.2294 0.5493 -0.8035
vn -0.1539 0.6497 -0.7445
vn 0.2342 0.6252 -0.7445
vn -0.1496 0.7194 -0.6783
vn 0.2385 0.6950 -0.6783
vn -0.1456 0.7824 -0.6056
vn 0.2425 0.7579 -0.6056
vn -0.1421 0.8379 -0.5270
vn 0.2460 0.8135 -0.5270
vn -0.1391 0.8855 -0.4434
vn 0.2490 0.8611 -0.4434
vn -0.1366 0.9246 -0.3555
vn 0.2515 0.9002 -0.3555
vn -0.1347 0.9550 -0.2642
vn 0.2534 0.9306 -0.2642
vn -0.1334 0.9763 -0.1703
vn 0.2547 0.9519 -0.1703
vn -0.1326 0.9883 -0.0748
vn 0.2555 0.9639 -0.0748
vn -0.1325 0.9910 0.0214
vn 0.2556 0.9665 0.0214
vn -0.1329 0.9841 0.1175
vn 0.2552 0.9597 0.1175
vn -0.1339 0.9680 0.2123
vn 0.2542 0.9436 0.2123
vn -0.1355 0.9426 0.3052
vn 0.2526 0.9182 0.3052
vn -0.1377 0.9083 0.3951
vn 0.2504 0.8838 0.3951
vn -0.1404 0.8653 0.4812
vn 0.2477 0.8409 0.4812
vn -0.1436 0.8141 0.5627
vn 0.2445 0.7897 0.5627
vn -0.1473 0.7552 0.6387
vn 0.2408 0.7308 0.6387
vn -0.1515 0.6892 0.7086
vn 0.2366 0.6647 0.7086
vn -0.1560 0.6166 0.7717
vn 0.2321 0.5922 0.7717
vn -0.1610 0.5382 0.8273
vn 0.2271 0.5138 0.8273
vn -0.1662 0.4547 0.8750
vn 0.2219 0.4303 0.8750
vn -0.1717 0.3670 0.9142
vn 0.2164 0.3426 0.9142
vn -0.1775 0.2759 0.9447
vn 0.2106 0.2514 0.9447
vn -0.1834 0.1822 0.9660
vn 0.2047 0.1578 0.9660
vn 0.9263 -0.0128 -0.3766
vn 0.9240 -0.0498 -0.3792
vn 0.9774 -0.0659 0.2008
vn 0.9762 -0.0855 0.1994
vn 0.9216 -0.0870 -0.3782
vn 0.9787 -0.0462 0.2003
vn 0.9309 0.0597 -0.3605
vn 0.9286 0.0238 -0.3703
vn 0.9750 -0.1049 0.1961
vn 0.9738 -0.1239 0.1909
vn 0.9330 0.0944 -0.3472
vn 0.9726 -0.1423 0.1838
vn 0.9351 0.1276 -0.3305
vn 0.9715 -0.1598 0.1750
vn 0.9371 0.1590 -0.3107
vn 0.9705 -0.1765 0.1645
vn 0.9390 0.1884 -0.2879
vn 0.9695 -0.1920 0.1524
vn 0.9407 0.2154 -0.2623
vn 0.9686 -0.2063 0.1389
vn 0.9422 0.2397 -0.2342
vn 0.9678 -0.2192 0.1240
vn 0.9671 -0.2306 0.1079
vn 0.9664 -0.2403 0.0908
vn 0.9456 0.2947 -0.1375
vn 0.9659 -0.2483 0.0728
vn 0.9464 0.3065 -0.1021
vn 0.9655 -0.2546 0.0541
vn 0.9469 0.3147 -0.0659
vn 0.9653 -0.2589 0.0349
vn 0.9472 0.3194 -0.0289
vn 0.9651 -0.2614 0.0153
vn 0.9473 0.3204 0.0083
vn 0.9651 -0.2619 -0.0044
vn 0.9471 0.3177 0.0454
vn 0.9652 -0.2605 -0.0241
vn 0.9467 0.3115 0.0821
vn 0.9654 -0.2572 -0.0435
vn 0.9461 0.3017 0.1180
vn 0.9657 -0.2520 -0.0625
vn 0.9452 0.2884 0.1528
vn 0.9661 -0.2450 -0.0809
vn 0.9442 0.2718 0.1861
vn 0.9667 -0.2362 -0.0985
vn 0.9430 0.2520 0.2176
vn 0.9674 -0.2257 -0.1152
vn 0.9415 0.2292 0.2470
vn 0.9681 -0.2137 -0.1308
vn 0.9399 0.2037 0.2740
vn 0.9690 -0.2001 -0.1451
vn 0.9381 0.1756 0.2984
vn 0.9699 -0.1853 -0.1580
vn 0.9362 0.1453 0.3199
vn 0.9709 -0.1692 -0.1694
vn 0.9342 0.1130 0.3383
vn 0.9720 -0.1521 -0.1792
vn 0.9321 0.0791 0.3535
vn 0.9731 -0.1342 -0.1872
vn 0.9299 0.0438 0.3653
vn 0.9743 -0.1155 -0.1934
vn 0.9276 0.0076 0.3735
vn 0.9755 -0.0963 -0.1978
vn 0.9253 -0.0292 0.3782
vn 0.9767 -0.0768 -0.2003
vn 0.9229 -0.0664 0.3792
vn 0.9780 -0.0571 -0.2008
vn 0.9206 -0.1034 0.3766
vn 0.9792 -0.0375 -0.1994
vn 0.9183 -0.1400 0.3703
vn 0.9804 -0.0181 -0.1961
vn 0.9160 -0.1759 0.3605
vn 0.9816 0.0009 -0.1909
vn 0.9139 -0.2106 0.3472
vn 0.9828 0.0192 -0.1838
vn 0.9118 -0.2438 0.3305
vn 0.9839 0.0368 -0.1750
vn 0.9098 -0.2752 0.3107
vn 0.9849 0.0535 -0.1645
vn 0.9079 -0.3046 0.2879
vn 0.9859 0.0690 -0.1524
vn 0.9062 -0.3316 0.2623
vn 0.9868 0.0833 -0.1389
vn 0.9047 -0.3559 0.2342
vn 0.9876 0.0962 -0.1240
vn 0.9034 -0.3774 0.2038
vn 0.9883 0.1076 -0.1079
vn 0.9022 -0.3958 0.1715
vn 0.9889 0.1173 -0.0908
vn 0.9012 -0.4109 0.1375
vn 0.9894 0.1253 -0.0728
vn 0.9005 -0.4227 0.1021
vn 0.9898 0.1315 -0.0541
vn 0.9000 -0.4309 0.0659
vn 0.9901 0.1359 -0.0349
vn 0.8997 -0.4356 0.0289
vn 0.9903 0.1384 -0.0153
vn 0.8996 -0.4366 -0.0083
vn 0.9903 0.1389 0.0044
vn 0.8998 -0.4339 -0.0454
vn 0.9902 0.1375 0.0241
vn 0.9002 -0.4277 -0.0821
vn 0.9900 0.1342 0.0435
vn 0.9008 -0.4179 -0.1180
vn 0.9897 0.1290 0.0625
vn 0.9016 -0.4046 -0.1528
vn 0.9892 0.1220 0.0809
vn 0.9027 -0.3880 -0.1861
vn 0.9887 0.1132 0.0985
vn 0.9039 -0.3682 -0.2176
vn 0.9880 0.1027 0.1152
vn 0.9054 -0.3454 -0.2470
vn 0.9873 0.0906 0.1308
vn 0.9070 -0.3199 -0.2740
vn 0.9864 0.0771 0.1451
vn 0.9087 -0.2918 -0.2984
vn 0.9855 0.0622 0.1580
vn 0.9107 -0.2615 -0.3199
vn 0.9845 0.0462 0.1694
vn 0.9127 -0.2292 -0.3383
vn 0.9834 0.0291 0.1792
vn 0.9148 -0.1953 -0.3535
vn 0.9823 0.0111 0.1872
vn 0.9170 -0.1600 -0.3653
vn 0.9811 -0.0075 0.1934
vn 0.9193 -0.1238 -0.3735
vn 0.9799 -0.0267 0.1978
vn -0.9117 0.1053 -0.3971
vn -0.9142 0.0663 -0.3999
vn -0.9166 0.0271 -0.3988
vn -0.9191 -0.0118 -0.3939
vn -0.9215 -0.0499 -0.3852
vn -0.9238 -0.0871 -0.3728
vn -0.9261 -0.1229 -0.3568
vn -0.9282 -0.1569 -0.3373
vn -0.9302 -0.1889 -0.3146
vn -0.9321 -0.2185 -0.2889
vn -0.9338 -0.2454 -0.2604
vn -0.9353 -0.2694 -0.2294
vn -0.9366 -0.2903 -0.1962
vn -0.9377 -0.3078 -0.1611
vn -0.9386 -0.3218 -0.1244
vn -0.9392 -0.3322 -0.0866
vn -0.9397 -0.3388 -0.0479
vn -0.9398 -0.3415 -0.0087
vn -0.9398 -0.3405 0.0305
vn -0.9395 -0.3356 0.0694
vn -0.9389 -0.3269 0.1077
vn -0.9381 -0.3145 0.1449
vn -0.9371 -0.2985 0.1808
vn -0.9359 -0.2791 0.2149
vn -0.9345 -0.2565 0.2469
vn -0.9329 -0.2308 0.2766
vn -0.9311 -0.2024 0.3036
vn -0.9291 -0.1714 0.3276
vn -0.9270 -0.1383 0.3485
vn -0.9248 -0.1032 0.3661
vn -0.9225 -0.0666 0.3801
vn -0.9202 -0.0289 0.3905
vn -0.9177 0.0098 0.3971
vn -0.9153 0.0488 0.3999
vn -0.9128 0.0880 0.3988
vn -0.9104 0.1269 0.3939
vn -0.9080 0.1650 0.3852
vn -0.9056 0.2022 0.3728
vn -0.9034 0.2380 0.3568
vn -0.9012 0.2720 0.3373
vn -0.8992 0.3040 0.3146
vn -0.8974 0.3336 0.2889
vn -0.8928 0.4054 0.1962
vn -0.8917 0.4229 0.1611
vn -0.8909 0.4369 0.1244
vn -0.8902 0.4473 0.0866
vn -0.8898 0.4538 0.0479
vn -0.8896 0.4566 0.0087
vn -0.8897 0.4556 -0.0305
vn -0.8900 0.4507 -0.0694
vn -0.8905 0.4420 -0.1077
vn -0.8913 0.4296 -0.1449
vn -0.8923 0.4136 -0.1808
vn -0.8935 0.3942 -0.2149
vn -0.8950 0.3716 -0.2469
vn -0.8966 0.3459 -0.2766
vn -0.8984 0.3175 -0.3036
vn -0.9003 0.2865 -0.3276
vn -0.9024 0.2534 -0.3485
vn -0.9046 0.2183 -0.3661
vn -0.9069 0.1817 -0.3801
vn -0.9093 0.1440 -0.3905
vn 0.9153 -0.0488 -0.3999
vn 0.9177 -0.0098 -0.3971
vn 0.9202 0.0289 -0.3905
vn 0.9225 0.0666 -0.3801
vn 0.9248 0.1032 -0.3661
vn 0.9270 0.1383 -0.3485
vn 0.9291 0.1714 -0.3276
vn 0.9311 0.2024 -0.3036
vn 0.9329 0.2308 -0.2766
vn 0.9345 0.2565 -0.2469
vn 0.9381 0.3145 -0.1449
vn 0.9389 0.3269 -0.1077
vn 0.9395 0.3356 -0.0694
vn 0.9398 0.3405 -0.0305
vn 0.9398 0.3415 0.0087
vn 0.9397 0.3388 0.0479
vn 0.9392 0.3322 0.0866
vn 0.9386 0.3218 0.1244
vn 0.9377 0.3078 0.1611
vn 0.9366 0.2903 0.1962
vn 0.9353 0.2694 0.2294
vn 0.9338 0.2454 0.2604
vn 0.9321 0.2185 0.2889
vn 0.9302 0.1889 0.3146
vn 0.9282 0.1569 0.3373
vn 0.9261 0.1229 0.3568
vn 0.9238 0.0871 0.3728
vn 0.9215 0.0499 0.3852
vn 0.9191 0.0118 0.3939
vn 0.9166 -0.0271 0.3988
vn 0.9142 -0.0663 0.3999
vn 0.9117 -0.1053 0.3971
vn 0.9093 -0.1440 0.3905
vn 0.9069 -0.1817 0.3801
vn 0.9046 -0.2183 0.3661
vn 0.9024 -0.2534 0.3485
vn 0.9003 -0.2865 0.3276
vn 0.8984 -0.3175 0.3036
vn 0.8966 -0.3459 0.2766
vn 0.8950 -0.3716 0.2469
vn 0.8935 -0.3942 0.2149
vn 0.8923 -0.4136 0.1808
vn 0.8913 -0.4296 0.1449
vn 0.8905 -0.4420 0.1077
vn 0.8900 -0.4507 0.0694
vn 0.8897 -0.4556 0.0305
vn 0.8896 -0.4566 -0.0087
vn 0.8898 -0.4538 -0.0479
vn 0.8902 -0.4473 -0.0866
vn 0.8909 -0.4369 -0.1244
vn 0.8917 -0.4229 -0.1611
vn 0.8928 -0.4054 -0.1962
vn 0.8942 -0.3845 -0.2294
vn 0.8957 -0.3605 -0.2604
vn 0.8974 -0.3336 -0.2889
vn 0.8992 -0.3040 -0.3146
vn 0.9012 -0.2720 -0.3373
vn 0.9034 -0.2380 -0.3568
vn 0.9056 -0.2022 -0.3728
vn 0.9080 -0.1650 -0.3852
vn 0.9104 -0.1269 -0.3939
vn 0.9128 -0.0880 -0.3988
vn 0.6949 -0.1292 0.7074
vn 0.6992 -0.0596 0.7124
vn -0.7012 0.0285 0.7124
vn -0.7056 -0.0411 0.7074
vn 0.6905 -0.1980 0.6957
vn -0.7099 -0.1099 0.6957
vn 0.6863 -0.2653 0.6772
vn -0.7141 -0.1772 0.6772
vn 0.6822 -0.3305 0.6522
vn -0.7182 -0.2424 0.6522
vn 0.6783 -0.3929 0.6209
vn -0.7222 -0.3048 0.6209
vn 0.6746 -0.4520 0.5837
vn -0.7259 -0.3639 0.5837
vn 0.6711 -0.5071 0.5408
vn -0.7294 -0.4190 0.5408
vn 0.6679 -0.5578 0.4927
vn -0.7325 -0.4697 0.4927
vn 0.6650 -0.6035 0.4399
vn -0.7354 -0.5154 0.4399
vn 0.6625 -0.6438 0.3828
vn -0.7380 -0.5557 0.3828
vn 0.6603 -0.6784 0.3221
vn -0.7401 -0.5903 0.3221
vn 0.6585 -0.7069 0.2582
vn -0.7419 -0.6188 0.2582
vn 0.6571 -0.7289 0.1919
vn -0.7433 -0.6408 0.1919
vn 0.6562 -0.7444 0.1237
vn -0.7443 -0.6563 0.1237
vn 0.6556 -0.7531 0.0543
vn -0.7448 -0.6650 0.0543
vn 0.6555 -0.7550 -0.0156
vn -0.7450 -0.6669 -0.0156
vn 0.6558 -0.7501 -0.0853
vn -0.7446 -0.6620 -0.0853
vn 0.6565 -0.7383 -0.1543
vn -0.7439 -0.6502 -0.1543
vn 0.6577 -0.7199 -0.2217
vn -0.7427 -0.6318 -0.2217
vn 0.6593 -0.6950 -0.2870
vn -0.7412 -0.6069 -0.2870
vn 0.6612 -0.6638 -0.3496
vn -0.7392 -0.5757 -0.3496
vn 0.6636 -0.6266 -0.4087
vn -0.7369 -0.5385 -0.4087
vn 0.6663 -0.5838 -0.4640
vn -0.7342 -0.4957 -0.4640
vn 0.6693 -0.5358 -0.5147
vn -0.7312 -0.4477 -0.5147
vn 0.6726 -0.4831 -0.5606
vn -0.7278 -0.3950 -0.5606
vn 0.6762 -0.4261 -0.6010
vn -0.7243 -0.3380 -0.6010
vn 0.6800 -0.3655 -0.6356
vn -0.7205 -0.2774 -0.6356
vn 0.6840 -0.3018 -0.6641
vn -0.7164 -0.2137 -0.6641
vn 0.6882 -0.2356 -0.6862
vn -0.7123 -0.1475 -0.6862
vn 0.6925 -0.1675 -0.7017
vn -0.7080 -0.0794 -0.7017
vn 0.6968 -0.0983 -0.7105
vn -0.7036 -0.0102 -0.7105
vn 0.7012 -0.0285 -0.7124
vn -0.6992 0.0596 -0.7124
vn 0.7056 0.0411 -0.7074
vn -0.6949 0.1292 -0.7074
vn 0.7099 0.1099 -0.6957
vn -0.6905 0.1980 -0.6957
vn 0.7141 0.1772 -0.6772
vn -0.6863 0.2653 -0.6772
vn 0.7182 0.2424 -0.6522
vn -0.6822 0.3305 -0.6522
vn 0.7222 0.3048 -0.6209
vn -0.6783 0.3929 -0.6209
vn 0.7259 0.3639 -0.5837
vn -0.6746 0.4520 -0.5837
vn 0.7294 0.4190 -0.5408
vn -0.6711 0.5071 -0.5408
vn 0.7325 0.4697 -0.4927
vn -0.6679 0.5578 -0.4927
vn 0.7354 0.5154 -0.4399
vn -0.6650 0.6035 -0.4399
vn 0.7380 0.5557 -0.3828
vn -0.6625 0.6438 -0.3828
vn 0.7401 0.5903 -0.3221
vn -0.6603 0.6784 -0.3221
vn 0.7419 0.6188 -0.2582
vn -0.6585 0.7069 -0.2582
vn 0.7433 0.6408 -0.1919
vn -0.6571 0.7289 -0.1919
vn 0.7443 0.6563 -0.1237
vn -0.6562 0.7444 -0.1237
vn 0.7448 0.6650 -0.0543
vn -0.6556 0.7531 -0.0543
vn 0.7450 0.6669 0.0156
vn -0.6555 0.7550 0.0156
vn 0.7446 0.6620 0.0853
vn -0.6558 0.7501 0.0853
vn 0.7439 0.6502 0.1543
vn -0.6565 0.7383 0.1543
vn 0.7427 0.6318 0.2217
vn -0.6577 0.7199 0.2217
vn 0.7412 0.6069 0.2870
vn -0.6593 0.6950 0.2870
vn 0.7392 0.5757 0.3496
vn -0.6612 0.6638 0.3496
vn 0.7369 0.5385 0.4087
vn -0.6636 0.6266 0.4087
vn 0.7342 0.4957 0.4640
vn -0.6663 0.5838 0.4640
vn 0.7312 0.4477 0.5147
vn -0.6693 0.5358 0.5147
vn 0.7278 0.3950 0.5606
vn -0.6726 0.4831 0.5606
vn 0.7243 0.3380 0.6010
vn -0.6762 0.4261 0.6010
vn 0.7205 0.2774 0.6356
vn -0.6800 0.3655 0.6356
vn 0.7164 0.2137 0.6641
vn -0.6840 0.3018 0.6641
vn 0.7123 0.1475 0.6862
vn -0.6882 0.2356 0.6862
vn 0.7080 0.0794 0.7017
vn -0.6925 0.1675 0.7017
vn 0.7036 0.0102 0.7105
vn -0.6968 0.0983 0.7105
vt 0.243499 0.951355
vt 0.752005 0.956157
vt 0.223207 0.947223
vt 0.772727 0.952303
vt 0.203184 0.939068
vt 0.793186 0.944303
vt 0.183596 0.926946
vt 0.813216 0.932409
vt 0.164612 0.910926
vt 0.832570 0.916569
vt 0.146440 0.891105
vt 0.851060 0.896920
vt 0.129184 0.867611
vt 0.868509 0.873649
vt 0.113090 0.840696
vt 0.884748 0.846990
vt 0.098286 0.810571
vt 0.899622 0.817198
vt 0.084982 0.777556
vt 0.912988 0.784567
vt 0.073314 0.741959
vt 0.924717 0.749409
vt 0.063401 0.704103
vt 0.934700 0.712077
vt 0.055313 0.664251
vt 0.942837 0.672928
vt 0.049186 0.622874
vt 0.949047 0.632336
vt 0.045093 0.580418
vt 0.953274 0.590691
vt 0.043031 0.537522
vt 0.955497 0.548408
vt 0.042987 0.495597
vt 0.955675 0.505896
vt 0.045005 0.454115
vt 0.953806 0.463554
vt 0.048992 0.413186
vt 0.949907 0.421760
vt 0.054920 0.373144
vt 0.944073 0.380860
vt 0.062755 0.334337
vt 0.936306 0.341339
vt 0.072450 0.297190
vt 0.926676 0.303584
vt 0.083942 0.261916
vt 0.915275 0.267958
vt 0.097108 0.229016
vt 0.902217 0.234806
vt 0.111843 0.198753
vt 0.887628 0.204446
vt 0.127992 0.171554
vt 0.871649 0.177167
vt 0.145405 0.147701
vt 0.854435 0.153234
vt 0.163923 0.127434
vt 0.836155 0.132866
vt 0.183417 0.110898
vt 0.816986 0.116275
vt 0.203658 0.098368
vt 0.797110 0.103621
vt 0.224427 0.089997
vt 0.776718 0.095022
vt 0.245409 0.085778
vt 0.756011 0.090510
vt 0.265918 0.085697
vt 0.735193 0.090182
vt 0.286210 0.089828
vt 0.714458 0.094041
vt 0.306233 0.097983
vt 0.693993 0.102049
vt 0.325822 0.110106
vt 0.673975 0.113949
vt 0.344806 0.126125
vt 0.654639 0.129795
vt 0.362977 0.145946
vt 0.636164 0.149448
vt 0.380233 0.169441
vt 0.618727 0.172721
vt 0.396327 0.196356
vt 0.602498 0.199382
vt 0.411131 0.226480
vt 0.587633 0.229178
vt 0.424436 0.259495
vt 0.574273 0.261815
vt 0.436103 0.295093
vt 0.562551 0.296981
vt 0.446017 0.332948
vt 0.552571 0.334324
vt 0.454104 0.372801
vt 0.544438 0.373487
vt 0.460231 0.414177
vt 0.538232 0.414095
vt 0.464324 0.456633
vt 0.534009 0.455758
vt 0.466386 0.499529
vt 0.531790 0.498066
vt 0.466430 0.541454
vt 0.531618 0.540603
vt 0.464412 0.582937
vt 0.533494 0.582969
vt 0.460425 0.623865
vt 0.537400 0.624777
vt 0.454497 0.663908
vt 0.543232 0.665655
vt 0.446662 0.702714
vt 0.550995 0.705143
vt 0.436967 0.739862
vt 0.560619 0.742869
vt 0.425475 0.775135
vt 0.572014 0.778472
vt 0.412310 0.808035
vt 0.585064 0.811606
vt 0.397574 0.838298
vt 0.599647 0.841951
vt 0.381425 0.865497
vt 0.615619 0.869218
vt 0.364012 0.889350
vt 0.632826 0.893139
vt 0.345494 0.909617
vt 0.651098 0.913497
vt 0.326000 0.926154
vt 0.670258 0.930079
vt 0.305759 0.938683
vt 0.690125 0.942725
vt 0.284991 0.947054
vt 0.710506 0.951318
vt 0.264008 0.951273
vt 0.731200 0.955828
vt 0.772099 0.943215
vt 0.751818 0.946992
vt 0.792128 0.935360
vt 0.811751 0.923721
vt 0.830694 0.908219
vt 0.848791 0.888989
vt 0.865870 0.866215
vt 0.881765 0.840126
vt 0.896323 0.810968
vt 0.909406 0.779032
vt 0.920885 0.744619
vt 0.930659 0.708081
vt 0.938623 0.669765
vt 0.944702 0.630037
vt 0.948839 0.589271
vt 0.951018 0.547882
vt 0.951192 0.506271
vt 0.949361 0.464829
vt 0.945537 0.423921
vt 0.939826 0.383863
vt 0.932224 0.345180
vt 0.922799 0.308229
vt 0.911642 0.273359
vt 0.898863 0.240911
vt 0.884584 0.211195
vt 0.868945 0.184495
vt 0.852096 0.161071
vt 0.834204 0.141133
vt 0.815442 0.124894
vt 0.795989 0.112509
vt 0.776027 0.104095
vt 0.755758 0.099675
vt 0.735382 0.099352
vt 0.715087 0.103132
vt 0.695048 0.110991
vt 0.675442 0.122632
vt 0.656515 0.138138
vt 0.638433 0.157372
vt 0.621367 0.180150
vt 0.605482 0.206243
vt 0.590932 0.235405
vt 0.577856 0.267347
vt 0.566383 0.301768
vt 0.556613 0.338318
vt 0.548654 0.376648
vt 0.542579 0.416393
vt 0.538447 0.457177
vt 0.536273 0.498590
vt 0.536103 0.540223
vt 0.537940 0.581690
vt 0.541771 0.622621
vt 0.547476 0.662652
vt 0.555073 0.701303
vt 0.564493 0.738227
vt 0.575644 0.773074
vt 0.588417 0.805504
vt 0.602690 0.835205
vt 0.618321 0.861893
vt 0.635164 0.885306
vt 0.653048 0.905234
vt 0.671801 0.921464
vt 0.691245 0.933841
vt 0.711197 0.942249
vt 0.731454 0.946670
vt 0.243729 0.942327
vt 0.223867 0.938319
vt 0.204258 0.930329
vt 0.185084 0.918434
vt 0.166501 0.902721
vt 0.148738 0.883298
vt 0.131843 0.860246
vt 0.116107 0.833880
vt 0.101620 0.804363
vt 0.088606 0.772038
vt 0.077194 0.737188
vt 0.067511 0.700142
vt 0.059605 0.661117
vt 0.053614 0.620641
vt 0.049591 0.579097
vt 0.047504 0.536890
vt 0.047405 0.496066
vt 0.049362 0.455464
vt 0.053268 0.415380
vt 0.059086 0.376185
vt 0.066770 0.338197
vt 0.076270 0.301886
vt 0.087546 0.267348
vt 0.100443 0.235179
vt 0.114881 0.205564
vt 0.130693 0.178961
vt 0.147740 0.155631
vt 0.165861 0.135834
vt 0.184951 0.119668
vt 0.204751 0.107419
vt 0.225073 0.099188
vt 0.245718 0.094916
vt 0.265688 0.094724
vt 0.285550 0.098732
vt 0.305159 0.106722
vt 0.324333 0.118618
vt 0.342917 0.134331
vt 0.360679 0.153753
vt 0.377575 0.176805
vt 0.393310 0.203172
vt 0.407798 0.232688
vt 0.420811 0.265013
vt 0.432223 0.299864
vt 0.441906 0.336909
vt 0.449813 0.375935
vt 0.455803 0.416410
vt 0.459826 0.457954
vt 0.461913 0.500161
vt 0.462013 0.540986
vt 0.460055 0.581587
vt 0.456149 0.621672
vt 0.450332 0.660867
vt 0.442647 0.698855
vt 0.433147 0.735165
vt 0.421871 0.769704
vt 0.408974 0.801872
vt 0.394536 0.831487
vt 0.378725 0.858091
vt 0.361677 0.881421
vt 0.343556 0.901217
vt 0.324466 0.917383
vt 0.304666 0.929633
vt 0.284344 0.937863
vt 0.263699 0.942135
vt 0.774372 0.976428
vt 0.481490 0.044923
vt 0.481468 0.049689
vt 0.774604 0.979820
vt 0.496933 0.044923
vt 0.752489 0.980488
vt 0.496955 0.049689
vt 0.752559 0.983910
vt 0.795963 0.968045
vt 0.466046 0.044923
vt 0.466024 0.049689
vt 0.796354 0.971378
vt 0.817098 0.955482
vt 0.450603 0.044923
vt 0.450581 0.049689
vt 0.817645 0.958726
vt 0.837539 0.938753
vt 0.435159 0.044923
vt 0.435137 0.049689
vt 0.838239 0.941872
vt 0.857073 0.917993
vt 0.419716 0.044923
vt 0.419694 0.049689
vt 0.857920 0.920956
vt 0.875507 0.893406
vt 0.404272 0.044923
vt 0.404250 0.049689
vt 0.876492 0.896183
vt 0.892662 0.865238
vt 0.388829 0.044923
vt 0.388807 0.049689
vt 0.893776 0.867802
vt 0.908373 0.833764
vt 0.373385 0.044923
vt 0.373363 0.049689
vt 0.909605 0.836091
vt 0.922492 0.799290
vt 0.357942 0.044922
vt 0.357920 0.049688
vt 0.923830 0.801358
vt 0.934882 0.762152
vt 0.342499 0.044922
vt 0.342477 0.049688
vt 0.936312 0.763941
vt 0.945427 0.722714
vt 0.327055 0.044922
vt 0.327033 0.049688
vt 0.946936 0.724207
vt 0.954020 0.681354
vt 0.311612 0.044922
vt 0.311590 0.049688
vt 0.955594 0.682536
vt 0.960581 0.638474
vt 0.296168 0.044922
vt 0.296146 0.049688
vt 0.962203 0.639334
vt 0.965048 0.594492
vt 0.280725 0.044922
vt 0.280703 0.049688
vt 0.966704 0.595023
vt 0.967391 0.549832
vt 0.265281 0.044922
vt 0.265260 0.049688
vt 0.969064 0.550029
vt 0.967577 0.504926
vt 0.249838 0.044921
vt 0.249816 0.049688
vt 0.969251 0.504786
vt 0.965607 0.460206
vt 0.234395 0.044921
vt 0.234373 0.049688
vt 0.967267 0.459733
vt 0.961514 0.416082
vt 0.218951 0.044921
vt 0.218929 0.049688
vt 0.963144 0.415282
vt 0.955353 0.372908
vt 0.203508 0.044921
vt 0.203486 0.049687
vt 0.956940 0.371787
vt 0.947150 0.331162
vt 0.188064 0.044921
vt 0.188042 0.049688
vt 0.948675 0.329728
vt 0.936976 0.291275
vt 0.172621 0.044921
vt 0.172599 0.049688
vt 0.938424 0.289541
vt 0.924930 0.253638
vt 0.157178 0.044921
vt 0.157156 0.049688
vt 0.926288 0.251622
vt 0.911135 0.218616
vt 0.141734 0.044921
vt 0.141712 0.049687
vt 0.912388 0.216337
vt 0.895722 0.186543
vt 0.126291 0.044921
vt 0.126269 0.049687
vt 0.896859 0.184023
vt 0.878842 0.157726
vt 0.110847 0.044921
vt 0.110825 0.049687
vt 0.879852 0.154990
vt 0.860659 0.132441
vt 0.095404 0.044921
vt 0.095382 0.049687
vt 0.861533 0.129516
vt 0.841349 0.110927
vt 0.079960 0.044921
vt 0.079938 0.049687
vt 0.842078 0.107840
vt 0.821098 0.093400
vt 0.064517 0.044921
vt 0.064495 0.049687
vt 0.821675 0.090181
vt 0.800103 0.080029
vt 0.049074 0.044921
vt 0.049052 0.049687
vt 0.800522 0.076711
vt 0.778568 0.070936
vt 0.033630 0.044921
vt 0.033608 0.049687
vt 0.778826 0.067549
vt 0.756698 0.066180
vt 0.018187 0.044921
vt 0.018165 0.049687
vt 0.756794 0.062757
vt 0.734708 0.065835
vt 0.002743 0.044921
vt 0.991125 0.044921
vt 0.002765 0.049687
vt 0.991103 0.049688
vt 0.734638 0.062410
vt 0.712810 0.069905
vt 0.975682 0.044922
vt 0.975660 0.049688
vt 0.712577 0.066511
vt 0.691212 0.078311
vt 0.960238 0.044922
vt 0.960216 0.049688
vt 0.690820 0.074978
vt 0.670090 0.090893
vt 0.944795 0.044922
vt 0.944773 0.049688
vt 0.669542 0.087652
vt 0.649668 0.107630
vt 0.929351 0.044922
vt 0.929329 0.049688
vt 0.648967 0.104514
vt 0.630150 0.128391
vt 0.913908 0.044922
vt 0.913886 0.049689
vt 0.629303 0.125431
vt 0.611729 0.152977
vt 0.898464 0.044923
vt 0.898442 0.049689
vt 0.610744 0.150202
vt 0.594584 0.181145
vt 0.883020 0.044923
vt 0.882999 0.049689
vt 0.593470 0.178582
vt 0.578880 0.212621
vt 0.867577 0.044923
vt 0.867555 0.049689
vt 0.577648 0.210294
vt 0.564767 0.247098
vt 0.852134 0.044923
vt 0.852112 0.049689
vt 0.563430 0.245031
vt 0.552383 0.284243
vt 0.836690 0.044923
vt 0.836668 0.049689
vt 0.550952 0.282454
vt 0.541842 0.323691
vt 0.821247 0.044923
vt 0.821225 0.049689
vt 0.540332 0.322199
vt 0.533251 0.365065
vt 0.805803 0.044923
vt 0.805781 0.049690
vt 0.531677 0.363883
vt 0.526693 0.407961
vt 0.790360 0.044924
vt 0.790338 0.049690
vt 0.525070 0.407102
vt 0.522229 0.451963
vt 0.774916 0.044924
vt 0.774894 0.049690
vt 0.520573 0.451432
vt 0.519890 0.496647
vt 0.759473 0.044924
vt 0.759451 0.049690
vt 0.518216 0.496451
vt 0.519709 0.541581
vt 0.744029 0.044924
vt 0.744007 0.049690
vt 0.518034 0.541721
vt 0.521688 0.586327
vt 0.728585 0.044924
vt 0.728563 0.049690
vt 0.520028 0.586802
vt 0.525795 0.630461
vt 0.713142 0.044924
vt 0.713120 0.049690
vt 0.524164 0.631262
vt 0.531959 0.673606
vt 0.697698 0.044924
vt 0.697676 0.049690
vt 0.530374 0.674727
vt 0.540159 0.715315
vt 0.682255 0.044924
vt 0.682233 0.049690
vt 0.538636 0.716748
vt 0.550327 0.755171
vt 0.666811 0.044924
vt 0.666789 0.049690
vt 0.548880 0.756904
vt 0.562364 0.792783
vt 0.651368 0.044924
vt 0.651346 0.049690
vt 0.561008 0.794799
vt 0.576152 0.827787
vt 0.635925 0.044924
vt 0.635903 0.049690
vt 0.574899 0.830065
vt 0.591557 0.859845
vt 0.620481 0.044924
vt 0.620459 0.049690
vt 0.590420 0.862364
vt 0.608429 0.888650
vt 0.605038 0.044924
vt 0.605016 0.049690
vt 0.607419 0.891385
vt 0.626605 0.913923
vt 0.589594 0.044924
vt 0.589572 0.049690
vt 0.625731 0.916847
vt 0.645907 0.935426
vt 0.574151 0.044924
vt 0.574129 0.049690
vt 0.645178 0.938512
vt 0.666149 0.952944
vt 0.558707 0.044923
vt 0.558685 0.049690
vt 0.665573 0.956161
vt 0.687134 0.966304
vt 0.543263 0.044923
vt 0.543241 0.049689
vt 0.686715 0.969621
vt 0.708658 0.975390
vt 0.527820 0.044923
vt 0.527798 0.049689
vt 0.708400 0.978775
vt 0.730514 0.980143
vt 0.512377 0.044923
vt 0.512355 0.049689
vt 0.730419 0.983563
vt 0.242880 0.975281
vt 0.496933 0.007512
vt 0.496955 0.002746
vt 0.242790 0.978644
vt 0.481490 0.007512
vt 0.221465 0.970839
vt 0.481468 0.002746
vt 0.221222 0.974157
vt 0.466046 0.007512
vt 0.200337 0.962269
vt 0.466024 0.002746
vt 0.199939 0.965532
vt 0.450603 0.007512
vt 0.179649 0.949543
vt 0.450581 0.002746
vt 0.179097 0.952723
vt 0.435159 0.007512
vt 0.159592 0.932706
vt 0.435137 0.002746
vt 0.158889 0.935771
vt 0.419716 0.007512
vt 0.140366 0.911875
vt 0.419694 0.002746
vt 0.139516 0.914799
vt 0.404272 0.007512
vt 0.122119 0.887162
vt 0.404250 0.002746
vt 0.121128 0.889916
vt 0.388829 0.007512
vt 0.105085 0.858803
vt 0.388807 0.002746
vt 0.103962 0.861354
vt 0.373385 0.007512
vt 0.089432 0.827038
vt 0.373363 0.002746
vt 0.088188 0.829358
vt 0.357942 0.007512
vt 0.075356 0.792192
vt 0.357920 0.002746
vt 0.074004 0.794255
vt 0.342499 0.007511
vt 0.063006 0.754616
vt 0.342477 0.002745
vt 0.061558 0.756401
vt 0.327055 0.007511
vt 0.052492 0.714650
vt 0.327033 0.002745
vt 0.050960 0.716141
vt 0.311612 0.007511
vt 0.043914 0.672574
vt 0.311590 0.002745
vt 0.042311 0.673751
vt 0.296168 0.007511
vt 0.037419 0.628826
vt 0.296146 0.002745
vt 0.035763 0.629667
vt 0.280725 0.007511
vt 0.033131 0.583921
vt 0.280703 0.002745
vt 0.031447 0.584410
vt 0.265282 0.007511
vt 0.031130 0.538665
vt 0.265260 0.002745
vt 0.029456 0.538806
vt 0.249838 0.007511
vt 0.031278 0.494335
vt 0.249816 0.002745
vt 0.029632 0.494152
vt 0.234395 0.007511
vt 0.033449 0.450559
vt 0.234373 0.002745
vt 0.031825 0.450062
vt 0.218951 0.007511
vt 0.037640 0.407369
vt 0.218929 0.002745
vt 0.036043 0.406557
vt 0.203508 0.007511
vt 0.043863 0.365081
vt 0.203486 0.002745
vt 0.042307 0.363954
vt 0.188064 0.007511
vt 0.052098 0.324080
vt 0.188042 0.002745
vt 0.050598 0.322643
vt 0.172621 0.007511
vt 0.062287 0.284780
vt 0.172599 0.002745
vt 0.060855 0.283043
vt 0.157178 0.007511
vt 0.074375 0.247479
vt 0.157156 0.002745
vt 0.073027 0.245454
vt 0.141734 0.007511
vt 0.088247 0.212658
vt 0.141712 0.002745
vt 0.086999 0.210364
vt 0.126291 0.007511
vt 0.103785 0.180659
vt 0.126269 0.002745
vt 0.102649 0.178117
vt 0.110847 0.007511
vt 0.120830 0.151885
vt 0.110825 0.002745
vt 0.119821 0.149121
vt 0.095404 0.007511
vt 0.139211 0.126637
vt 0.095382 0.002745
vt 0.138338 0.123678
vt 0.079960 0.007511
vt 0.158761 0.105143
vt 0.079938 0.002745
vt 0.158031 0.102011
vt 0.064517 0.007511
vt 0.179343 0.087604
vt 0.064495 0.002745
vt 0.178767 0.084328
vt 0.049074 0.007510
vt 0.200744 0.074322
vt 0.049052 0.002744
vt 0.200332 0.070937
vt 0.033630 0.007510
vt 0.222711 0.065552
vt 0.033608 0.002744
vt 0.222472 0.062110
vt 0.018187 0.007510
vt 0.244851 0.061458
vt 0.018165 0.002744
vt 0.244782 0.058039
vt 0.002743 0.007510
vt 0.991125 0.007510
vt 0.266537 0.061770
vt 0.002765 0.002744
vt 0.991103 0.002744
vt 0.266627 0.058408
vt 0.975682 0.007511
vt 0.287952 0.066213
vt 0.975660 0.002744
vt 0.288195 0.062894
vt 0.960238 0.007511
vt 0.309080 0.074782
vt 0.960216 0.002745
vt 0.309478 0.071520
vt 0.944795 0.007511
vt 0.329768 0.087508
vt 0.944773 0.002745
vt 0.330320 0.084329
vt 0.929351 0.007511
vt 0.349826 0.104346
vt 0.929329 0.002745
vt 0.350529 0.101280
vt 0.913908 0.007511
vt 0.369051 0.125176
vt 0.913886 0.002745
vt 0.369901 0.122252
vt 0.898464 0.007512
vt 0.387298 0.149889
vt 0.898442 0.002746
vt 0.388289 0.147136
vt 0.883021 0.007512
vt 0.404332 0.178249
vt 0.882999 0.002746
vt 0.405455 0.175698
vt 0.867577 0.007512
vt 0.419985 0.210013
vt 0.867555 0.002746
vt 0.421229 0.207693
vt 0.852134 0.007512
vt 0.434061 0.244859
vt 0.852112 0.002746
vt 0.435414 0.242796
vt 0.836690 0.007512
vt 0.446411 0.282436
vt 0.836668 0.002746
vt 0.447859 0.280651
vt 0.821247 0.007512
vt 0.456925 0.322401
vt 0.821225 0.002746
vt 0.458457 0.320911
vt 0.805803 0.007513
vt 0.465503 0.364477
vt 0.805781 0.002747
vt 0.467106 0.363301
vt 0.790360 0.007513
vt 0.471998 0.408225
vt 0.790338 0.002747
vt 0.473655 0.407384
vt 0.774916 0.007513
vt 0.476286 0.453130
vt 0.774894 0.002747
vt 0.477970 0.452642
vt 0.759473 0.007513
vt 0.478287 0.498387
vt 0.759451 0.002747
vt 0.479961 0.498246
vt 0.744029 0.007513
vt 0.478139 0.542717
vt 0.744007 0.002747
vt 0.479786 0.542900
vt 0.728585 0.007513
vt 0.475968 0.586493
vt 0.728563 0.002747
vt 0.477592 0.586989
vt 0.713142 0.007513
vt 0.471778 0.629682
vt 0.713120 0.002747
vt 0.473374 0.630494
vt 0.697698 0.007513
vt 0.465554 0.671970
vt 0.697676 0.002747
vt 0.467110 0.673098
vt 0.682255 0.007513
vt 0.457319 0.712972
vt 0.682233 0.002747
vt 0.458820 0.714408
vt 0.666811 0.007513
vt 0.447131 0.752272
vt 0.666789 0.002747
vt 0.448562 0.754009
vt 0.651368 0.007513
vt 0.435043 0.789573
vt 0.651346 0.002747
vt 0.436390 0.791598
vt 0.635925 0.007513
vt 0.421170 0.824394
vt 0.635903 0.002747
vt 0.422419 0.826688
vt 0.620481 0.007513
vt 0.405632 0.856392
vt 0.620459 0.002747
vt 0.406768 0.858934
vt 0.605038 0.007513
vt 0.388587 0.885166
vt 0.605016 0.002747
vt 0.389596 0.887930
vt 0.589594 0.007513
vt 0.370206 0.910414
vt 0.589572 0.002747
vt 0.371080 0.913373
vt 0.574151 0.007513
vt 0.350656 0.931909
vt 0.574129 0.002747
vt 0.351386 0.935040
vt 0.558707 0.007513
vt 0.330074 0.949447
vt 0.558685 0.002747
vt 0.330650 0.952723
vt 0.543263 0.007513
vt 0.308673 0.962730
vt 0.543242 0.002747
vt 0.309085 0.966114
vt 0.527820 0.007513
vt 0.286706 0.971499
vt 0.527798 0.002747
vt 0.286945 0.974942
vt 0.512377 0.007513
vt 0.264566 0.975593
vt 0.512355 0.002747
vt 0.264635 0.979013
s 1
usemtl Yirmi_Frank
f 452/519/1 258/258/2 264/266/3 455/523/4
f 4/4/5 6/6/6 263/265/7 257/257/8
f 6/6/6 8/8/9 266/269/10 263/265/7
f 8/8/9 10/10/11 269/273/12 266/269/10
f 10/10/11 12/12/13 272/277/14 269/273/12
f 12/12/13 14/14/15 275/281/16 272/277/14
f 14/14/15 16/16/17 278/285/18 275/281/16
f 16/16/17 18/18/19 281/289/20 278/285/18
f 18/18/19 20/20/21 284/293/22 281/289/20
f 20/20/21 22/22/23 287/297/24 284/293/22
f 22/22/23 24/24/25 290/301/26 287/297/24
f 24/24/25 26/26/27 293/305/28 290/301/26
f 26/26/27 28/28/29 296/309/30 293/305/28
f 28/28/29 30/30/31 299/313/32 296/309/30
f 30/30/31 32/32/33 302/317/34 299/313/32
f 32/32/33 34/34/35 305/321/36 302/317/34
f 34/34/35 36/36/37 308/325/38 305/321/36
f 36/36/37 38/38/39 311/329/40 308/325/38
f 38/38/39 40/40/41 314/333/42 311/329/40
f 40/40/41 42/42/43 317/337/44 314/333/42
f 42/42/43 44/44/45 320/341/46 317/337/44
f 44/44/45 46/46/47 323/345/48 320/341/46
f 46/46/47 48/48/49 326/349/50 323/345/48
f 48/48/49 50/50/51 329/353/52 326/349/50
f 50/50/51 52/52/53 332/357/54 329/353/52
f 52/52/53 54/54/55 335/361/56 332/357/54
f 54/54/55 56/56/57 338/365/58 335/361/56
f 56/56/57 58/58/59 341/369/60 338/365/58
f 58/58/59 60/60/61 344/373/62 341/369/60
f 60/60/61 62/62/63 347/377/64 344/373/62
f 62/62/63 64/64/65 350/381/66 347/377/64
f 64/64/65 66/66/67 353/385/68 350/381/66
f 66/66/67 68/68/69 356/391/70 353/385/68
f 68/68/69 70/70/71 359/395/72 356/391/70
f 70/70/71 72/72/73 362/399/74 359/395/72
f 72/72/73 74/74/75 365/403/76 362/399/74
f 74/74/75 76/76/77 368/407/78 365/403/76
f 76/76/77 78/78/79 371/411/80 368/407/78
f 78/78/79 80/80/81 374/415/82 371/411/80
f 80/80/81 82/82/83 377/419/84 374/415/82
f 82/82/83 84/84/85 380/423/86 377/419/84
f 84/84/85 86/86/87 383/427/88 380/423/86
f 86/86/87 88/88/89 386/431/90 383/427/88
f 88/88/89 90/90/91 389/435/92 386/431/90
f 90/90/91 92/92/93 392/439/94 389/435/92
f 92/92/93 94/94/95 395/443/96 392/439/94
f 94/94/95 96/96/97 398/447/98 395/443/96
f 96/96/97 98/98/99 401/451/100 398/447/98
f 98/98/99 100/100/101 404/455/102 401/451/100
f 100/100/101 102/102/103 407/459/104 404/455/102
f 102/102/103 104/104/105 410/463/106 407/459/104
f 104/104/105 106/106/107 413/467/108 410/463/106
f 106/106/107 108/108/109 416/471/110 413/467/108
f 108/108/109 110/110/111 419/475/112 416/471/110
f 110/110/111 112/112/113 422/479/114 419/475/112
f 112/112/113 114/114/115 425/483/116 422/479/114
f 114/114/115 116/116/117 428/487/118 425/483/116
f 116/116/117 118/118/119 431/491/120 428/487/118
f 118/118/119 120/120/121 434/495/122 431/491/120
f 120/120/121 122/122/123 437/499/124 434/495/122
f 122/122/123 124/124/125 440/503/126 437/499/124
f 124/124/125 126/126/127 443/507/128 440/503/126
f 48/48/49 46/46/47 151/151/129 152/152/130
f 126/126/127 128/128/131 446/511/132 443/507/128
f 128/128/131 2/2/133 261/262/134 446/511/132
f 21/21/135 23/23/136 204/204/137 203/203/138
f 450/516/139 260/261/140 258/258/2 452/519/1
f 638/769/141 447/512/142 260/261/140 450/516/139
f 458/527/143 267/270/144 270/274/145 461/531/146
f 461/531/146 270/274/145 273/278/147 464/535/148
f 464/535/148 273/278/147 276/282/149 467/539/150
f 467/539/150 276/282/149 279/286/151 470/543/152
f 470/543/152 279/286/151 282/290/153 473/547/154
f 473/547/154 282/290/153 285/294/155 476/551/156
f 476/551/156 285/294/155 288/298/157 479/555/158
f 479/555/158 288/298/157 291/302/159 482/559/160
f 482/559/160 291/302/159 294/306/161 485/563/162
f 485/563/162 294/306/161 297/310/163 488/567/164
f 488/567/164 297/310/163 300/314/165 491/571/166
f 491/571/166 300/314/165 303/318/167 494/575/168
f 494/575/168 303/318/167 306/322/169 497/579/170
f 497/579/170 306/322/169 309/326/171 500/583/172
f 500/583/172 309/326/171 312/330/173 503/587/174
f 503/587/174 312/330/173 315/334/175 506/591/176
f 506/591/176 315/334/175 318/338/177 509/595/178
f 509/595/178 318/338/177 321/342/179 512/599/180
f 512/599/180 321/342/179 324/346/181 515/603/182
f 515/603/182 324/346/181 327/350/183 518/607/184
f 518/607/184 327/350/183 330/354/185 521/611/186
f 521/611/186 330/354/185 333/358/187 524/615/188
f 524/615/188 333/358/187 336/362/189 527/619/190
f 527/619/190 336/362/189 339/366/191 530/623/192
f 530/623/192 339/366/191 342/370/193 533/627/194
f 533/627/194 342/370/193 345/374/195 536/631/196
f 536/631/196 345/374/195 348/378/197 539/635/198
f 539/635/198 348/378/197 351/382/199 542/639/200
f 542/639/200 351/382/199 354/386/201 545/643/202
f 545/644/202 354/387/201 357/392/203 548/649/204
f 548/649/204 357/392/203 360/396/205 551/653/206
f 551/653/206 360/396/205 363/400/207 554/657/208
f 554/657/208 363/400/207 366/404/209 557/661/210
f 557/661/210 366/404/209 369/408/211 560/665/212
f 560/665/212 369/408/211 372/412/213 563/669/214
f 563/669/214 372/412/213 375/416/215 566/673/216
f 566/673/216 375/416/215 378/420/217 569/677/218
f 569/677/218 378/420/217 381/424/219 572/681/220
f 572/681/220 381/424/219 384/428/221 575/685/222
f 575/685/222 384/428/221 387/432/223 578/689/224
f 578/689/224 387/432/223 390/436/225 581/693/226
f 581/693/226 390/436/225 393/440/227 584/697/228
f 584/697/228 393/440/227 396/444/229 587/701/230
f 587/701/230 396/444/229 399/448/231 590/705/232
f 590/705/232 399/448/231 402/452/233 593/709/234
f 593/709/234 402/452/233 405/456/235 596/713/236
f 596/713/236 405/456/235 408/460/237 599/717/238
f 599/717/238 408/460/237 411/464/239 602/721/240
f 602/721/240 411/464/239 414/468/241 605/725/242
f 605/725/242 414/468/241 417/472/243 608/729/244
f 608/729/244 417/472/243 420/476/245 611/733/246
f 611/733/246 420/476/245 423/480/247 614/737/248
f 614/737/248 423/480/247 426/484/249 617/741/250
f 617/741/250 426/484/249 429/488/251 620/745/252
f 620/745/252 429/488/251 432/492/253 623/749/254
f 623/749/254 432/492/253 435/496/255 626/753/256
f 626/753/256 435/496/255 438/500/257 629/757/258
f 629/757/258 438/500/257 441/504/259 632/761/260
f 632/761/260 441/504/259 444/508/261 635/765/262
f 635/765/262 444/508/261 447/512/142 638/769/141
f 3/3/263 1/1/264 449/515/265 453/520/266
f 455/523/4 264/266/3 267/270/144 458/527/143
f 1/1/264 127/127/267 639/770/268 449/515/265
f 7/7/269 5/5/270 456/524/271 459/528/272
f 9/9/273 7/7/269 459/528/272 462/532/274
f 11/11/275 9/9/273 462/532/274 465/536/276
f 13/13/277 11/11/275 465/536/276 468/540/278
f 15/15/279 13/13/277 468/540/278 471/544/280
f 17/17/281 15/15/279 471/544/280 474/548/282
f 19/19/283 17/17/281 474/548/282 477/552/284
f 21/21/135 19/19/283 477/552/284 480/556/285
f 23/23/136 21/21/135 480/556/285 483/560/286
f 25/25/287 23/23/136 483/560/286 486/564/288
f 27/27/289 25/25/287 486/564/288 489/568/290
f 29/29/291 27/27/289 489/568/290 492/572/292
f 31/31/293 29/29/291 492/572/292 495/576/294
f 33/33/295 31/31/293 495/576/294 498/580/296
f 35/35/297 33/33/295 498/580/296 501/584/298
f 37/37/299 35/35/297 501/584/298 504/588/300
f 39/39/301 37/37/299 504/588/300 507/592/302
f 41/41/303 39/39/301 507/592/302 510/596/304
f 43/43/305 41/41/303 510/596/304 513/600/306
f 45/45/307 43/43/305 513/600/306 516/604/308
f 47/47/309 45/45/307 516/604/308 519/608/310
f 49/49/311 47/47/309 519/608/310 522/612/312
f 51/51/313 49/49/311 522/612/312 525/616/314
f 53/53/315 51/51/313 525/616/314 528/620/316
f 55/55/317 53/53/315 528/620/316 531/624/318
f 57/57/319 55/55/317 531/624/318 534/628/320
f 59/59/321 57/57/319 534/628/320 537/632/322
f 61/61/323 59/59/321 537/632/322 540/636/324
f 63/63/325 61/61/323 540/636/324 543/640/326
f 65/65/327 63/63/325 543/640/326 546/645/328
f 67/67/329 65/65/327 546/645/328 549/650/330
f 69/69/331 67/67/329 549/650/330 552/654/332
f 71/71/333 69/69/331 552/654/332 555/658/334
f 73/73/335 71/71/333 555/658/334 558/662/336
f 75/75/337 73/73/335 558/662/336 561/666/338
f 77/77/339 75/75/337 561/666/338 564/670/340
f 79/79/341 77/77/339 564/670/340 567/674/342
f 81/81/343 79/79/341 567/674/342 570/678/344
f 83/83/345 81/81/343 570/678/344 573/682/346
f 85/85/347 83/83/345 573/682/346 576/686/348
f 87/87/349 85/85/347 576/686/348 579/690/350
f 89/89/351 87/87/349 579/690/350 582/694/352
f 91/91/353 89/89/351 582/694/352 585/698/354
f 93/93/355 91/91/353 585/698/354 588/702/356
f 95/95/357 93/93/355 588/702/356 591/706/358
f 97/97/359 95/95/357 591/706/358 594/710/360
f 99/99/361 97/97/359 594/710/360 597/714/362
f 101/101/363 99/99/361 597/714/362 600/718/364
f 103/103/365 101/101/363 600/718/364 603/722/366
f 105/105/367 103/103/365 603/722/366 606/726/368
f 107/107/369 105/105/367 606/726/368 609/730/370
f 109/109/371 107/107/369 609/730/370 612/734/372
f 111/111/373 109/109/371 612/734/372 615/738/374
f 113/113/375 111/111/373 615/738/374 618/742/376
f 115/115/377 113/113/375 618/742/376 621/746/378
f 117/117/379 115/115/377 621/746/378 624/750/380
f 119/119/381 117/117/379 624/750/380 627/754/382
f 121/121/383 119/119/381 627/754/382 630/758/384
f 123/123/385 121/121/383 630/758/384 633/762/386
f 125/125/387 123/123/385 633/762/386 636/766/388
f 127/127/267 125/125/387 636/766/388 639/770/268
f 5/5/270 3/3/263 453/520/266 456/524/271
f 129/129/389 130/130/390 192/192/391 191/191/392 190/190/393 189/189/394 188/188/395 187/187/396 186/186/397 185/185/398 184/184/399 183/183/400 182/182/401 181/181/402 180/180/403 179/179/404 178/178/405 177/177/406 176/176/407 175/175/408 174/174/409 173/173/410 172/172/411 171/171/412 170/170/413 169/169/414 168/168/415 167/167/416 166/166/417 165/165/418 164/164/419 163/163/420 162/162/421 161/161/422 160/160/423 159/159/424 158/158/425 157/157/426 156/156/427 155/155/428 154/154/429 153/153/430 152/152/130 151/151/129 150/150/431 149/149/432 148/148/433 147/147/434 146/146/435 145/145/436 144/144/437 143/143/438 142/142/439 141/141/440 140/140/441 139/139/442 138/138/443 137/137/444 136/136/445 135/135/446 134/134/447 133/133/448 132/132/449 131/131/450
f 102/102/103 100/100/101 178/178/405 179/179/404
f 50/50/51 48/48/49 152/152/130 153/153/430
f 104/104/105 102/102/103 179/179/404 180/180/403
f 52/52/53 50/50/51 153/153/430 154/154/429
f 106/106/107 104/104/105 180/180/403 181/181/402
f 54/54/55 52/52/53 154/154/429 155/155/428
f 108/108/109 106/106/107 181/181/402 182/182/401
f 56/56/57 54/54/55 155/155/428 156/156/427
f 4/4/5 2/2/133 130/130/390 129/129/389
f 110/110/111 108/108/109 182/182/401 183/183/400
f 58/58/59 56/56/57 156/156/427 157/157/426
f 6/6/6 4/4/5 129/129/389 131/131/450
f 112/112/113 110/110/111 183/183/400 184/184/399
f 60/60/61 58/58/59 157/157/426 158/158/425
f 8/8/9 6/6/6 131/131/450 132/132/449
f 114/114/115 112/112/113 184/184/399 185/185/398
f 62/62/63 60/60/61 158/158/425 159/159/424
f 10/10/11 8/8/9 132/132/449 133/133/448
f 116/116/117 114/114/115 185/185/398 186/186/397
f 64/64/65 62/62/63 159/159/424 160/160/423
f 12/12/13 10/10/11 133/133/448 134/134/447
f 118/118/119 116/116/117 186/186/397 187/187/396
f 66/66/67 64/64/65 160/160/423 161/161/422
f 14/14/15 12/12/13 134/134/447 135/135/446
f 120/120/121 118/118/119 187/187/396 188/188/395
f 68/68/69 66/66/67 161/161/422 162/162/421
f 16/16/17 14/14/15 135/135/446 136/136/445
f 122/122/123 120/120/121 188/188/395 189/189/394
f 70/70/71 68/68/69 162/162/421 163/163/420
f 18/18/19 16/16/17 136/136/445 137/137/444
f 124/124/125 122/122/123 189/189/394 190/190/393
f 72/72/73 70/70/71 163/163/420 164/164/419
f 20/20/21 18/18/19 137/137/444 138/138/443
f 126/126/127 124/124/125 190/190/393 191/191/392
f 74/74/75 72/72/73 164/164/419 165/165/418
f 22/22/23 20/20/21 138/138/443 139/139/442
f 128/128/131 126/126/127 191/191/392 192/192/391
f 76/76/77 74/74/75 165/165/418 166/166/417
f 24/24/25 22/22/23 139/139/442 140/140/441
f 2/2/133 128/128/131 192/192/391 130/130/390
f 78/78/79 76/76/77 166/166/417 167/167/416
f 26/26/27 24/24/25 140/140/441 141/141/440
f 80/80/81 78/78/79 167/167/416 168/168/415
f 28/28/29 26/26/27 141/141/440 142/142/439
f 82/82/83 80/80/81 168/168/415 169/169/414
f 30/30/31 28/28/29 142/142/439 143/143/438
f 84/84/85 82/82/83 169/169/414 170/170/413
f 32/32/33 30/30/31 143/143/438 144/144/437
f 86/86/87 84/84/85 170/170/413 171/171/412
f 34/34/35 32/32/33 144/144/437 145/145/436
f 88/88/89 86/86/87 171/171/412 172/172/411
f 36/36/37 34/34/35 145/145/436 146/146/435
f 90/90/91 88/88/89 172/172/411 173/173/410
f 38/38/39 36/36/37 146/146/435 147/147/434
f 92/92/93 90/90/91 173/173/410 174/174/409
f 40/40/41 38/38/39 147/147/434 148/148/433
f 94/94/95 92/92/93 174/174/409 175/175/408
f 42/42/43 40/40/41 148/148/433 149/149/432
f 96/96/97 94/94/95 175/175/408 176/176/407
f 44/44/45 42/42/43 149/149/432 150/150/431
f 98/98/99 96/96/97 176/176/407 177/177/406
f 46/46/47 44/44/45 150/150/431 151/151/129
f 100/100/101 98/98/99 177/177/406 178/178/405
f 193/193/451 194/194/452 195/195/453 196/196/454 197/197/455 198/198/456 199/199/457 200/200/458 201/201/459 202/202/460 203/203/138 204/204/137 205/205/461 206/206/462 207/207/463 208/208/464 209/209/465 210/210/466 211/211/467 212/212/468 213/213/469 214/214/470 215/215/471 216/216/472 217/217/473 218/218/474 219/219/475 220/220/476 221/221/477 222/222/478 223/223/479 224/224/480 225/225/481 226/226/482 227/227/483 228/228/484 229/229/485 230/230/486 231/231/487 232/232/488 233/233/489 234/234/490 235/235/491 236/236/492 237/237/493 238/238/494 239/239/495 240/240/496 241/241/497 242/242/498 243/243/499 244/244/500 245/245/501 246/246/502 247/247/503 248/248/504 249/249/505 250/250/506 251/251/507 252/252/508 253/253/509 254/254/510 255/255/511 256/256/512
f 127/127/267 1/1/264 193/193/451 256/256/512
f 75/75/337 77/77/339 231/231/487 230/230/486
f 23/23/136 25/25/287 205/205/461 204/204/137
f 77/77/339 79/79/341 232/232/488 231/231/487
f 25/25/287 27/27/289 206/206/462 205/205/461
f 79/79/341 81/81/343 233/233/489 232/232/488
f 27/27/289 29/29/291 207/207/463 206/206/462
f 81/81/343 83/83/345 234/234/490 233/233/489
f 29/29/291 31/31/293 208/208/464 207/207/463
f 83/83/345 85/85/347 235/235/491 234/234/490
f 31/31/293 33/33/295 209/209/465 208/208/464
f 85/85/347 87/87/349 236/236/492 235/235/491
f 33/33/295 35/35/297 210/210/466 209/209/465
f 87/87/349 89/89/351 237/237/493 236/236/492
f 35/35/297 37/37/299 211/211/467 210/210/466
f 89/89/351 91/91/353 238/238/494 237/237/493
f 37/37/299 39/39/301 212/212/468 211/211/467
f 91/91/353 93/93/355 239/239/495 238/238/494
f 39/39/301 41/41/303 213/213/469 212/212/468
f 93/93/355 95/95/357 240/240/496 239/239/495
f 41/41/303 43/43/305 214/214/470 213/213/469
f 95/95/357 97/97/359 241/241/497 240/240/496
f 43/43/305 45/45/307 215/215/471 214/214/470
f 97/97/359 99/99/361 242/242/498 241/241/497
f 45/45/307 47/47/309 216/216/472 215/215/471
f 99/99/361 101/101/363 243/243/499 242/242/498
f 47/47/309 49/49/311 217/217/473 216/216/472
f 101/101/363 103/103/365 244/244/500 243/243/499
f 49/49/311 51/51/313 218/218/474 217/217/473
f 103/103/365 105/105/367 245/245/501 244/244/500
f 51/51/313 53/53/315 219/219/475 218/218/474
f 105/105/367 107/107/369 246/246/502 245/245/501
f 53/53/315 55/55/317 220/220/476 219/219/475
f 1/1/264 3/3/263 194/194/452 193/193/451
f 107/107/369 109/109/371 247/247/503 246/246/502
f 55/55/317 57/57/319 221/221/477 220/220/476
f 3/3/263 5/5/270 195/195/453 194/194/452
f 109/109/371 111/111/373 248/248/504 247/247/503
f 57/57/319 59/59/321 222/222/478 221/221/477
f 5/5/270 7/7/269 196/196/454 195/195/453
f 111/111/373 113/113/375 249/249/505 248/248/504
f 59/59/321 61/61/323 223/223/479 222/222/478
f 7/7/269 9/9/273 197/197/455 196/196/454
f 113/113/375 115/115/377 250/250/506 249/249/505
f 61/61/323 63/63/325 224/224/480 223/223/479
f 9/9/273 11/11/275 198/198/456 197/197/455
f 115/115/377 117/117/379 251/251/507 250/250/506
f 63/63/325 65/65/327 225/225/481 224/224/480
f 11/11/275 13/13/277 199/199/457 198/198/456
f 117/117/379 119/119/381 252/252/508 251/251/507
f 65/65/327 67/67/329 226/226/482 225/225/481
f 13/13/277 15/15/279 200/200/458 199/199/457
f 119/119/381 121/121/383 253/253/509 252/252/508
f 67/67/329 69/69/331 227/227/483 226/226/482
f 15/15/279 17/17/281 201/201/459 200/200/458
f 121/121/383 123/123/385 254/254/510 253/253/509
f 69/69/331 71/71/333 228/228/484 227/227/483
f 17/17/281 19/19/283 202/202/460 201/201/459
f 123/123/385 125/125/387 255/255/511 254/254/510
f 71/71/333 73/73/335 229/229/485 228/228/484
f 19/19/283 21/21/135 203/203/138 202/202/460
f 125/125/387 127/127/267 256/256/512 255/255/511
f 73/73/335 75/75/337 230/230/486 229/229/485
f 450/516/139 452/519/1 454/521/513 451/517/514
f 451/518/514 454/522/513 453/520/266 449/515/265
f 258/258/2 260/261/140 262/263/515 259/259/516
f 259/260/516 262/264/515 261/262/134 257/257/8
f 452/519/1 455/523/4 457/525/517 454/521/513
f 454/522/513 457/526/517 456/524/271 453/520/266
f 264/266/3 258/258/2 259/259/516 265/267/518
f 265/268/518 259/260/516 257/257/8 263/265/7
f 455/523/4 458/527/143 460/529/519 457/525/517
f 457/526/517 460/530/519 459/528/272 456/524/271
f 267/270/144 264/266/3 265/267/518 268/271/520
f 268/272/520 265/268/518 263/265/7 266/269/10
f 458/527/143 461/531/146 463/533/521 460/529/519
f 460/530/519 463/534/521 462/532/274 459/528/272
f 270/274/145 267/270/144 268/271/520 271/275/522
f 271/276/522 268/272/520 266/269/10 269/273/12
f 461/531/146 464/535/148 466/537/523 463/533/521
f 463/534/521 466/538/523 465/536/276 462/532/274
f 273/278/147 270/274/145 271/275/522 274/279/524
f 274/280/524 271/276/522 269/273/12 272/277/14
f 464/535/148 467/539/150 469/541/525 466/537/523
f 466/538/523 469/542/525 468/540/278 465/536/276
f 276/282/149 273/278/147 274/279/524 277/283/526
f 277/284/526 274/280/524 272/277/14 275/281/16
f 467/539/150 470/543/152 472/545/527 469/541/525
f 469/542/525 472/546/527 471/544/280 468/540/278
f 279/286/151 276/282/149 277/283/526 280/287/528
f 280/288/528 277/284/526 275/281/16 278/285/18
f 470/543/152 473/547/154 475/549/529 472/545/527
f 472/546/527 475/550/529 474/548/282 471/544/280
f 282/290/153 279/286/151 280/287/528 283/291/530
f 283/292/530 280/288/528 278/285/18 281/289/20
f 473/547/154 476/551/156 478/553/531 475/549/529
f 475/550/529 478/554/531 477/552/284 474/548/282
f 285/294/155 282/290/153 283/291/530 286/295/532
f 286/296/532 283/292/530 281/289/20 284/293/22
f 476/551/156 479/555/158 481/557/533 478/553/531
f 478/554/531 481/558/533 480/556/285 477/552/284
f 288/298/157 285/294/155 286/295/532 289/299/534
f 289/300/534 286/296/532 284/293/22 287/297/24
f 479/555/158 482/559/160 484/561/535 481/557/533
f 481/558/533 484/562/535 483/560/286 480/556/285
f 291/302/159 288/298/157 289/299/534 292/303/536
f 292/304/536 289/300/534 287/297/24 290/301/26
f 482/559/160 485/563/162 487/565/537 484/561/535
f 484/562/535 487/566/537 486/564/288 483/560/286
f 294/306/161 291/302/159 292/303/536 295/307/538
f 295/308/538 292/304/536 290/301/26 293/305/28
f 485/563/162 488/567/164 490/569/539 487/565/537
f 487/566/537 490/570/539 489/568/290 486/564/288
f 297/310/163 294/306/161 295/307/538 298/311/540
f 298/312/540 295/308/538 293/305/28 296/309/30
f 488/567/164 491/571/166 493/573/541 490/569/539
f 490/570/539 493/574/541 492/572/292 489/568/290
f 300/314/165 297/310/163 298/311/540 301/315/542
f 301/316/542 298/312/540 296/309/30 299/313/32
f 491/571/166 494/575/168 496/577/543 493/573/541
f 493/574/541 496/578/543 495/576/294 492/572/292
f 303/318/167 300/314/165 301/315/542 304/319/544
f 304/320/544 301/316/542 299/313/32 302/317/34
f 494/575/168 497/579/170 499/581/545 496/577/543
f 496/578/543 499/582/545 498/580/296 495/576/294
f 306/322/169 303/318/167 304/319/544 307/323/546
f 307/324/546 304/320/544 302/317/34 305/321/36
f 497/579/170 500/583/172 502/585/547 499/581/545
f 499/582/545 502/586/547 501/584/298 498/580/296
f 309/326/171 306/322/169 307/323/546 310/327/548
f 310/328/548 307/324/546 305/321/36 308/325/38
f 500/583/172 503/587/174 505/589/549 502/585/547
f 502/586/547 505/590/549 504/588/300 501/584/298
f 312/330/173 309/326/171 310/327/548 313/331/550
f 313/332/550 310/328/548 308/325/38 311/329/40
f 503/587/174 506/591/176 508/593/551 505/589/549
f 505/590/549 508/594/551 507/592/302 504/588/300
f 315/334/175 312/330/173 313/331/550 316/335/552
f 316/336/552 313/332/550 311/329/40 314/333/42
f 506/591/176 509/595/178 511/597/553 508/593/551
f 508/594/551 511/598/553 510/596/304 507/592/302
f 318/338/177 315/334/175 316/335/552 319/339/554
f 319/340/554 316/336/552 314/333/42 317/337/44
f 509/595/178 512/599/180 514/601/555 511/597/553
f 511/598/553 514/602/555 513/600/306 510/596/304
f 321/342/179 318/338/177 319/339/554 322/343/556
f 322/344/556 319/340/554 317/337/44 320/341/46
f 512/599/180 515/603/182 517/605/557 514/601/555
f 514/602/555 517/606/557 516/604/308 513/600/306
f 324/346/181 321/342/179 322/343/556 325/347/558
f 325/348/558 322/344/556 320/341/46 323/345/48
f 515/603/182 518/607/184 520/609/559 517/605/557
f 517/606/557 520/610/559 519/608/310 516/604/308
f 327/350/183 324/346/181 325/347/558 328/351/560
f 328/352/560 325/348/558 323/345/48 326/349/50
f 518/607/184 521/611/186 523/613/561 520/609/559
f 520/610/559 523/614/561 522/612/312 519/608/310
f 330/354/185 327/350/183 328/351/560 331/355/562
f 331/356/562 328/352/560 326/349/50 329/353/52
f 521/611/186 524/615/188 526/617/563 523/613/561
f 523/614/561 526/618/563 525/616/314 522/612/312
f 333/358/187 330/354/185 331/355/562 334/359/564
f 334/360/564 331/356/562 329/353/52 332/357/54
f 524/615/188 527/619/190 529/621/565 526/617/563
f 526/618/563 529/622/565 528/620/316 525/616/314
f 336/362/189 333/358/187 334/359/564 337/363/566
f 337/364/566 334/360/564 332/357/54 335/361/56
f 527/619/190 530/623/192 532/625/567 529/621/565
f 529/622/565 532/626/567 531/624/318 528/620/316
f 339/366/191 336/362/189 337/363/566 340/367/568
f 340/368/568 337/364/566 335/361/56 338/365/58
f 530/623/192 533/627/194 535/629/569 532/625/567
f 532/626/567 535/630/569 534/628/320 531/624/318
f 342/370/193 339/366/191 340/367/568 343/371/570
f 343/372/570 340/368/568 338/365/58 341/369/60
f 533/627/194 536/631/196 538/633/571 535/629/569
f 535/630/569 538/634/571 537/632/322 534/628/320
f 345/374/195 342/370/193 343/371/570 346/375/572
f 346/376/572 343/372/570 341/369/60 344/373/62
f 536/631/196 539/635/198 541/637/573 538/633/571
f 538/634/571 541/638/573 540/636/324 537/632/322
f 348/378/197 345/374/195 346/375/572 349/379/574
f 349/380/574 346/376/572 344/373/62 347/377/64
f 539/635/198 542/639/200 544/641/575 541/637/573
f 541/638/573 544/642/575 543/640/326 540/636/324
f 351/382/199 348/378/197 349/379/574 352/383/576
f 352/384/576 349/380/574 347/377/64 350/381/66
f 542/639/200 545/643/202 547/646/577 544/641/575
f 544/642/575 547/648/577 546/645/328 543/640/326
f 354/386/201 351/382/199 352/383/576 355/388/578
f 355/390/578 352/384/576 350/381/66 353/385/68
f 545/644/202 548/649/204 550/651/579 547/647/577
f 547/648/577 550/652/579 549/650/330 546/645/328
f 357/392/203 354/387/201 355/389/578 358/393/580
f 358/394/580 355/390/578 353/385/68 356/391/70
f 548/649/204 551/653/206 553/655/581 550/651/579
f 550/652/579 553/656/581 552/654/332 549/650/330
f 360/396/205 357/392/203 358/393/580 361/397/582
f 361/398/582 358/394/580 356/391/70 359/395/72
f 551/653/206 554/657/208 556/659/583 553/655/581
f 553/656/581 556/660/583 555/658/334 552/654/332
f 363/400/207 360/396/205 361/397/582 364/401/584
f 364/402/584 361/398/582 359/395/72 362/399/74
f 554/657/208 557/661/210 559/663/585 556/659/583
f 556/660/583 559/664/585 558/662/336 555/658/334
f 366/404/209 363/400/207 364/401/584 367/405/586
f 367/406/586 364/402/584 362/399/74 365/403/76
f 557/661/210 560/665/212 562/667/587 559/663/585
f 559/664/585 562/668/587 561/666/338 558/662/336
f 369/408/211 366/404/209 367/405/586 370/409/588
f 370/410/588 367/406/586 365/403/76 368/407/78
f 560/665/212 563/669/214 565/671/589 562/667/587
f 562/668/587 565/672/589 564/670/340 561/666/338
f 372/412/213 369/408/211 370/409/588 373/413/590
f 373/414/590 370/410/588 368/407/78 371/411/80
f 563/669/214 566/673/216 568/675/591 565/671/589
f 565/672/589 568/676/591 567/674/342 564/670/340
f 375/416/215 372/412/213 373/413/590 376/417/592
f 376/418/592 373/414/590 371/411/80 374/415/82
f 566/673/216 569/677/218 571/679/593 568/675/591
f 568/676/591 571/680/593 570/678/344 567/674/342
f 378/420/217 375/416/215 376/417/592 379/421/594
f 379/422/594 376/418/592 374/415/82 377/419/84
f 569/677/218 572/681/220 574/683/595 571/679/593
f 571/680/593 574/684/595 573/682/346 570/678/344
f 381/424/219 378/420/217 379/421/594 382/425/596
f 382/426/596 379/422/594 377/419/84 380/423/86
f 572/681/220 575/685/222 577/687/597 574/683/595
f 574/684/595 577/688/597 576/686/348 573/682/346
f 384/428/221 381/424/219 382/425/596 385/429/598
f 385/430/598 382/426/596 380/423/86 383/427/88
f 575/685/222 578/689/224 580/691/599 577/687/597
f 577/688/597 580/692/599 579/690/350 576/686/348
f 387/432/223 384/428/221 385/429/598 388/433/600
f 388/434/600 385/430/598 383/427/88 386/431/90
f 578/689/224 581/693/226 583/695/601 580/691/599
f 580/692/599 583/696/601 582/694/352 579/690/350
f 390/436/225 387/432/223 388/433/600 391/437/602
f 391/438/602 388/434/600 386/431/90 389/435/92
f 581/693/226 584/697/228 586/699/603 583/695/601
f 583/696/601 586/700/603 585/698/354 582/694/352
f 393/440/227 390/436/225 391/437/602 394/441/604
f 394/442/604 391/438/602 389/435/92 392/439/94
f 584/697/228 587/701/230 589/703/605 586/699/603
f 586/700/603 589/704/605 588/702/356 585/698/354
f 396/444/229 393/440/227 394/441/604 397/445/606
f 397/446/606 394/442/604 392/439/94 395/443/96
f 587/701/230 590/705/232 592/707/607 589/703/605
f 589/704/605 592/708/607 591/706/358 588/702/356
f 399/448/231 396/444/229 397/445/606 400/449/608
f 400/450/608 397/446/606 395/443/96 398/447/98
f 590/705/232 593/709/234 595/711/609 592/707/607
f 592/708/607 595/712/609 594/710/360 591/706/358
f 402/452/233 399/448/231 400/449/608 403/453/610
f 403/454/610 400/450/608 398/447/98 401/451/100
f 593/709/234 596/713/236 598/715/611 595/711/609
f 595/712/609 598/716/611 597/714/362 594/710/360
f 405/456/235 402/452/233 403/453/610 406/457/612
f 406/458/612 403/454/610 401/451/100 404/455/102
f 596/713/236 599/717/238 601/719/613 598/715/611
f 598/716/611 601/720/613 600/718/364 597/714/362
f 408/460/237 405/456/235 406/457/612 409/461/614
f 409/462/614 406/458/612 404/455/102 407/459/104
f 599/717/238 602/721/240 604/723/615 601/719/613
f 601/720/613 604/724/615 603/722/366 600/718/364
f 411/464/239 408/460/237 409/461/614 412/465/616
f 412/466/616 409/462/614 407/459/104 410/463/106
f 602/721/240 605/725/242 607/727/617 604/723/615
f 604/724/615 607/728/617 606/726/368 603/722/366
f 414/468/241 411/464/239 412/465/616 415/469/618
f 415/470/618 412/466/616 410/463/106 413/467/108
f 605/725/242 608/729/244 610/731/619 607/727/617
f 607/728/617 610/732/619 609/730/370 606/726/368
f 417/472/243 414/468/241 415/469/618 418/473/620
f 418/474/620 415/470/618 413/467/108 416/471/110
f 608/729/244 611/733/246 613/735/621 610/731/619
f 610/732/619 613/736/621 612/734/372 609/730/370
f 420/476/245 417/472/243 418/473/620 421/477/622
f 421/478/622 418/474/620 416/471/110 419/475/112
f 611/733/246 614/737/248 616/739/623 613/735/621
f 613/736/621 616/740/623 615/738/374 612/734/372
f 423/480/247 420/476/245 421/477/622 424/481/624
f 424/482/624 421/478/622 419/475/112 422/479/114
f 614/737/248 617/741/250 619/743/625 616/739/623
f 616/740/623 619/744/625 618/742/376 615/738/374
f 426/484/249 423/480/247 424/481/624 427/485/626
f 427/486/626 424/482/624 422/479/114 425/483/116
f 617/741/250 620/745/252 622/747/627 619/743/625
f 619/744/625 622/748/627 621/746/378 618/742/376
f 429/488/251 426/484/249 427/485/626 430/489/628
f 430/490/628 427/486/626 425/483/116 428/487/118
f 620/745/252 623/749/254 625/751/629 622/747/627
f 622/748/627 625/752/629 624/750/380 621/746/378
f 432/492/253 429/488/251 430/489/628 433/493/630
f 433/494/630 430/490/628 428/487/118 431/491/120
f 623/749/254 626/753/256 628/755/631 625/751/629
f 625/752/629 628/756/631 627/754/382 624/750/380
f 435/496/255 432/492/253 433/493/630 436/497/632
f 436/498/632 433/494/630 431/491/120 434/495/122
f 626/753/256 629/757/258 631/759/633 628/755/631
f 628/756/631 631/760/633 630/758/384 627/754/382
f 438/500/257 435/496/255 436/497/632 439/501/634
f 439/502/634 436/498/632 434/495/122 437/499/124
f 629/757/258 632/761/260 634/763/635 631/759/633
f 631/760/633 634/764/635 633/762/386 630/758/384
f 441/504/259 438/500/257 439/501/634 442/505/636
f 442/506/636 439/502/634 437/499/124 440/503/126
f 632/761/260 635/765/262 637/767/637 634/763/635
f 634/764/635 637/768/637 636/766/388 633/762/386
f 444/508/261 441/504/259 442/505/636 445/509/638
f 445/510/638 442/506/636 440/503/126 443/507/128
f 635/765/262 638/769/141 640/771/639 637/767/637
f 637/768/637 640/772/639 639/770/268 636/766/388
f 447/512/142 444/508/261 445/509/638 448/513/640
f 448/514/640 445/510/638 443/507/128 446/511/132
f 638/769/141 450/516/139 451/517/514 640/771/639
f 640/772/639 451/518/514 449/515/265 639/770/268
f 260/261/140 447/512/142 448/513/640 262/263/515
f 262/264/515 448/514/640 446/511/132 261/262/134
f 2/2/133 4/4/5 257/257/8 261/262/134
